<?xml version="1.0" encoding="UTF-8"?>
<!DOCTYPE svg PUBLIC "-//W3C//DTD SVG 1.1//EN" "http://www.w3.org/Graphics/SVG/1.1/DTD/svg11.dtd">
<!-- Creator: CorelDRAW 2019 (64 Bit) -->
<svg xmlns="http://www.w3.org/2000/svg" xml:space="preserve" width="268.817mm" height="52.2119mm" version="1.1" style="shape-rendering:geometricPrecision; text-rendering:geometricPrecision; image-rendering:optimizeQuality; fill-rule:evenodd; clip-rule:evenodd"
viewBox="0 0 26880620 5220982"
 xmlns:xlink="http://www.w3.org/1999/xlink">
 <defs>
  <style type="text/css">
   <![CDATA[
    .str0 {stroke:white;stroke-width:42328;stroke-miterlimit:22.9256}
    .fil0 {fill:none}
    .fil8 {fill:#068544}
    .fil5 {fill:#2E3192}
    .fil1 {fill:#969799}
    .fil11 {fill:#ABBEA2}
    .fil2 {fill:#BE2D31}
    .fil9 {fill:#D1E8C6}
    .fil10 {fill:white}
    .fil3 {fill:white}
    .fil12 {fill:url(#id1)}
    .fil6 {fill:url(#id2)}
    .fil4 {fill:url(#id3)}
    .fil7 {fill:url(#id4)}
   ]]>
  </style>
     <clipPath id="id0">
      <path d="M17294262 1783539l2591717 0 0 1653884 -2591717 0 0 -1653884z"/>
     </clipPath>
  <linearGradient id="id1" gradientUnits="objectBoundingBox" x1="97.5841%" y1="75.964%" x2="2.41589%" y2="24.036%">
   <stop offset="0" style="stop-opacity:1; stop-color:#CA2127"/>
   <stop offset="0.419608" style="stop-opacity:1; stop-color:#D74926"/>
   <stop offset="0.811765" style="stop-opacity:1; stop-color:#F58220"/>
   <stop offset="1" style="stop-opacity:1; stop-color:#F58220"/>
  </linearGradient>
  <linearGradient id="id2" gradientUnits="userSpaceOnUse" x1="4742291" y1="3407764" x2="2439103" y2="1813248">
   <stop offset="0" style="stop-opacity:1; stop-color:#2E3192"/>
   <stop offset="1" style="stop-opacity:1; stop-color:#3B5EAB"/>
  </linearGradient>
  <linearGradient id="id3" gradientUnits="userSpaceOnUse" x1="9373967" y1="3034129" x2="7806259" y2="2093497">
   <stop offset="0" style="stop-opacity:1; stop-color:#BE2D31"/>
   <stop offset="1" style="stop-opacity:1; stop-color:#E51E25"/>
  </linearGradient>
  <radialGradient id="id4" gradientUnits="objectBoundingBox" cx="50.0002%" cy="49.9998%" r="50.0002%" fx="50.0002%" fy="49.9998%">
   <stop offset="0" style="stop-opacity:1; stop-color:#DC1D26"/>
   <stop offset="1" style="stop-opacity:1; stop-color:#8C1624"/>
  </radialGradient>
 </defs>
 <g id="Camada_x0020_1">
  <metadata id="CorelCorpID_0Corel-Layer"/>
  <rect class="fil0" x="-5" y="-4" width="26880620" height="5220982"/>
  <g id="_3009292068752">
   <path class="fil1" d="M6687084 3567428l3812388 0 0 -972761c-437953,-539229 -1128795,-887245 -1906194,-887245 -777399,0 -1468242,348016 -1906194,887245l0 972761z"/>
   <polygon class="fil2" points="6681554,3636085 10495822,3636085 10495822,3709382 6681554,3709382 "/>
   <path class="fil3" d="M8590128 1511600c581107,0 1052208,471091 1052208,1052208 0,581117 -471101,1052218 -1052208,1052218 -581127,0 -1052218,-471101 -1052218,-1052218 0,-581117 471091,-1052208 1052218,-1052208z"/>
   <path class="fil2" d="M8590128 1568788c549528,0 995010,445482 995010,995020 0,549528 -445482,995010 -995010,995010 -549528,0 -995020,-445482 -995020,-995010 0,-549538 445492,-995020 995020,-995020z"/>
   <path class="fil3" d="M8590128 1607706c528039,0 956102,428063 956102,956102 0,528039 -428063,956102 -956102,956102 -528039,0 -956102,-428063 -956102,-956102 0,-528039 428063,-956102 956102,-956102z"/>
   <path class="fil4" d="M8590118 1649694c504860,0 914124,409264 914124,914124 0,504860 -409264,914124 -914124,914124 -504860,0 -914124,-409264 -914124,-914124 0,-504860 409264,-914124 914124,-914124z"/>
   <path class="fil3" d="M7887796 2710082c5440,104466 116025,208332 214101,226091 425663,77117 514900,-612916 -9800,-573477 27629,-74307 83627,-132365 144574,-172233 52818,-34579 94056,-63967 215511,-81827l-50 -76137c-264429,13549 -508900,236941 -482641,525539 73977,-197752 452902,-133835 398974,133665 -17699,85777 -76927,146324 -163713,161244 -69677,11980 -146834,-9550 -196892,-60278 -19159,-19439 -44128,-56888 -54848,-82587l-65217 0z"/>
   <path class="fil3" d="M9292470 2710082c-5440,104466 -116025,208332 -214101,226091 -425653,77117 -514900,-612916 9800,-573477 -27619,-74307 -83627,-132365 -144574,-172233 -52818,-34579 -94056,-63967 -215501,-81827l40 -76137c264429,13549 508900,236941 482641,525539 -73967,-197752 -452902,-133835 -398974,133665 17699,85777 76927,146324 163713,161244 69687,11980 146834,-9550 196892,-60278 19159,-19439 44128,-56888 54848,-82587l65217 0z"/>
   <polygon class="fil3" points="8554090,2869976 8626187,2869976 8626187,2942053 8554090,2942053 "/>
   <polygon class="fil3" points="8554090,3016570 8626187,3016570 8626187,3088667 8554090,3088667 "/>
   <polygon class="fil3" points="8554090,3163184 8626187,3163184 8626187,3235261 8554090,3235261 "/>
   <polygon class="fil3" points="8555839,1913294 8627887,1913294 8627887,2796249 8555839,2796249 "/>
   <polygon class="fil3" points="8319379,2343667 8319379,2271630 8860877,2271630 8860877,2343667 "/>
  </g>
  <g id="_3009311769776">
   <path class="fil3" d="M3590707 998280c890405,0 1612216,721811 1612216,1612216 0,890395 -721811,1612206 -1612216,1612206 -890395,0 -1612206,-721811 -1612206,-1612206 0,-890405 721811,-1612216 1612206,-1612216z"/>
   <path class="fil5" d="M3590717 1085917c841996,0 1524569,682573 1524569,1524569 0,842006 -682573,1524579 -1524569,1524579 -842006,0 -1524579,-682573 -1524579,-1524579 0,-841996 682573,-1524569 1524579,-1524569z"/>
   <path class="fil3" d="M3590717 1145534c809068,0 1464952,655884 1464952,1464952 0,809078 -655884,1464962 -1464952,1464962 -809078,0 -1464962,-655884 -1464962,-1464962 0,-809068 655884,-1464952 1464962,-1464952z"/>
   <path class="fil6" d="M3590697 1209862c773549,0 1400644,627095 1400644,1400644 0,773549 -627095,1400644 -1400644,1400644 -773549,0 -1400644,-627095 -1400644,-1400644 0,-773549 627095,-1400644 1400644,-1400644z"/>
   <path class="fil3" d="M2514590 2834627c8340,160064 177783,319197 328057,346406 652194,118155 788929,-939113 -15019,-878685 42328,-113855 128135,-202812 221521,-263909 80927,-52978 144114,-98006 330207,-125375l-70 -116645c-405164,20759 -779749,363036 -739511,805228 113345,-302988 693942,-205052 611316,204802 -27119,131445 -117865,224211 -250850,247060 -106766,18359 -224981,-14629 -301678,-92356 -29359,-29779 -67617,-87157 -84047,-126525l-99926 0z"/>
   <path class="fil3" d="M4666864 2834627c-8340,160064 -177773,319197 -328057,346406 -652194,118155 -788929,-939113 15019,-878685 -42328,-113855 -128135,-202812 -221511,-263909 -80937,-52978 -144124,-98006 -330207,-125375l60 -116645c405164,20759 779759,363036 739511,805228 -113335,-302988 -693942,-205052 -611316,204802 27119,131445 117875,224211 250850,247060 106766,18359 224981,-14629 301678,-92356 29369,-29779 67617,-87157 84047,-126525l99926 0z"/>
   <polygon class="fil3" points="3535499,3079597 3645955,3079597 3645955,3190053 3535499,3190053 "/>
   <polygon class="fil3" points="3535499,3304228 3645955,3304228 3645955,3414684 3535499,3414684 "/>
   <polygon class="fil3" points="3535499,3528860 3645955,3528860 3645955,3639315 3535499,3639315 "/>
   <polygon class="fil3" points="3538179,1613756 3648575,1613756 3648575,2966642 3538179,2966642 "/>
   <polygon class="fil3" points="3175874,2273190 3175874,2162804 4005551,2162804 4005551,2273190 "/>
  </g>
  <path class="fil7" d="M13664056 1626985c-779789,-933073 -1649584,-321827 -1596266,683483l242530 4410 127875 -17639 154334 -13229 114655 13229 72747 33079 45198 50708 23149 52918 3860 55128 -4960 54018 -22599 51808 -26409 32019 -69447 40238 -79377 16539 -94256 2750 -195412 6060 -183823 -3850 68897 154344 464632 -19799 159304 -4410 91496 8820 61188 18739 62308 41608 34729 49608 8270 50158 -1100 52918 -13229 41338 -27559 39138 -47408 41888 -54018 6070 -522539 1720 133335 165413 518129 -11030c177723,35569 193412,115825 72757,233711l-289928 23149 102526 115755 324097 -14329 119065 -1100 65037 19839 38588 33069 14329 39688 -2210 38588 -11320 25289 -31419 18189 -52088 11300 -124855 2200 427763 196562c627965,-203552 1099166,-623175 1292019,-1426493 -513720,42498 -953592,41518 -1137665,-110236 -59958,-47658 -93316,-104956 -19299,-201202l67277 -66157c30989,-260 61978,-520 92966,-790 87797,-740 175603,-1480 263400,-2220 30729,-260 61468,-520 92196,-780 10330,-90 20659,-180 30989,-270 9810,-80 19619,-160 29439,-240 20399,-180 40798,-350 61198,-520 10330,-90 20659,-180 30989,-260 14429,-130 28879,-170 43298,-300 935413,-17529 454662,-1428683 -516559,-1034139 -174393,66867 -327157,177713 -430823,403504z"/>
  <g id="_3008746749440">
   <g>
    <polygon class="fil2" points="17962335,1382465 17384678,1382465 17384678,3829768 17962335,3829768 "/>
    <polygon class="fil8" points="17910457,914994 19795562,914994 19795562,4305989 17910457,4305989 "/>
    <polygon class="fil9" points="17910457,3829768 19795562,3829768 19795562,1385775 17910457,1385775 "/>
   </g>
   <g>
    <g style="clip-path:url(#id0)">
     <image x="17294262" y="1783539" width="2591717" height="1653884" xlink:href="complexo_Images\complexo_ImgID1.png"/>
    </g>
   </g>
   <g>
    <path class="fil3" d="M17488294 3164414l2206852 0 0 -563098c-253520,-312138 -653414,-513590 -1103426,-513590 -450012,0 -849916,201452 -1103426,513590l0 563098z"/>
    <polygon class="fil10" points="17485094,3204152 19693036,3204152 19693036,3246591 17485094,3246591 "/>
    <path class="fil11" d="M18589900 1974371c336377,0 609076,272699 609076,609086 0,336387 -272699,609086 -609076,609086 -336397,0 -609096,-272699 -609096,-609086 0,-336387 272699,-609086 609096,-609086z"/>
    <path class="fil10" d="M18589900 2007480c318097,0 575977,257870 575977,575977 0,318097 -257880,575977 -575977,575977 -318107,0 -575977,-257880 -575977,-575977 0,-318107 257870,-575977 575977,-575977z"/>
    <path class="fil11" d="M18589900 2029999c305658,0 553448,247790 553448,553458 0,305658 -247790,553448 -553448,553448 -305668,0 -553458,-247790 -553458,-553448 0,-305668 247790,-553458 553458,-553458z"/>
    <path class="fil10" d="M18589890 2054308c292248,0 529149,236911 529149,529149 0,292248 -236901,529159 -529149,529159 -292248,0 -529149,-236911 -529149,-529159 0,-292238 236901,-529149 529149,-529149z"/>
    <path class="fil11" d="M18183346 2668134c3150,60468 67157,120585 123935,130865 246390,44648 298048,-354786 -5680,-331957 15999,-43018 48418,-76617 83697,-99706 30569,-20009 54438,-37019 124745,-47368l-20 -44068c-153074,7850 -294588,137155 -279389,304218 42818,-114475 262170,-77467 230951,77367 -10240,49658 -44528,84707 -94766,93336 -40338,6940 -84997,-5520 -113975,-34889 -11090,-11250 -25539,-32929 -31749,-47798l-37748 0z"/>
    <path class="fil11" d="M18996464 2668134c-3160,60468 -67167,120585 -123945,130865 -246390,44648 -298048,-354786 5680,-331957 -15989,-43018 -48408,-76617 -83687,-99706 -30579,-20009 -54448,-37019 -124755,-47368l30 -44068c153064,7850 294578,137155 279379,304218 -42818,-114475 -262170,-77467 -230951,77367 10250,49658 44528,84707 94766,93336 40338,6940 84997,-5520 113975,-34889 11090,-11250 25539,-32929 31749,-47798l37758 0z"/>
    <polygon class="fil11" points="18569041,2760680 18610769,2760680 18610769,2802408 18569041,2802408 "/>
    <polygon class="fil11" points="18569041,2845547 18610769,2845547 18610769,2887275 18569041,2887275 "/>
    <polygon class="fil11" points="18569041,2930413 18610769,2930413 18610769,2972142 18569041,2972142 "/>
    <polygon class="fil11" points="18570051,2206892 18611749,2206892 18611749,2718012 18570051,2718012 "/>
    <polygon class="fil11" points="18433166,2456022 18433166,2414324 18746624,2414324 18746624,2456022 "/>
   </g>
  </g>
  <g id="_3008752366528">
   <path class="fil12" d="M23595891 1629585c-3120,75007 26249,144924 103836,165463 88346,21529 172453,-37129 176553,-127975 2200,-48538 -25279,-87986 -40018,-134005 -40768,-129945 -27219,-238730 132005,-248820l6710 -270c-19049,-67627 -81267,-65707 -138155,-48348 -37758,11530 -64227,37429 -91366,65127 -90006,91886 -130735,203742 -149564,328827z"/>
   <path class="fil12" d="M23630249 4404035c-1380205,-760170 -1496860,-1286439 -1369186,-1861926 77737,-223681 195372,-456472 352826,-634755 49148,-55648 119085,-112006 174503,-164683 138165,-131405 510600,-493000 334027,-696822 -10390,-11990 -299418,-199212 -338787,-225141 253940,-18809 469211,32019 634975,171973 181733,134725 212942,291348 152134,461352 -55728,146984 -57748,248800 -16469,314177 82157,112366 186063,170043 303248,60068 120945,-125195 104566,-363106 255190,-514020 21089,-21129 39758,-34679 66127,-48528l7110 -3520c60538,-26409 124685,-33669 191822,-24809 -136535,84587 -219061,180533 -176933,302608 28429,78447 74757,151174 130725,220791 1308938,1331757 316827,1885725 -701312,2643235z"/>
   <path class="fil0 str0" d="M23574652 2455392c-496000,-859956 -1540689,-104926 -1171783,765930 163224,382755 847746,849946 1211492,1028229 415053,-262820 961092,-592166 1166054,-1057458 335627,-788239 -743160,-1599446 -1205762,-736701z"/>
  </g>
 </g>
</svg>
