<?xml version="1.0" encoding="UTF-8"?>
<!DOCTYPE svg PUBLIC "-//W3C//DTD SVG 1.1//EN" "http://www.w3.org/Graphics/SVG/1.1/DTD/svg11.dtd">
<!-- Creator: CorelDRAW 2019 (64 Bit) -->
<svg xmlns="http://www.w3.org/2000/svg" xml:space="preserve" width="134.914mm" height="144.506mm" version="1.1" style="shape-rendering:geometricPrecision; text-rendering:geometricPrecision; image-rendering:optimizeQuality; fill-rule:evenodd; clip-rule:evenodd"
viewBox="0 0 1340984 1436330"
 xmlns:xlink="http://www.w3.org/1999/xlink">
 <defs>
  <style type="text/css">
   <![CDATA[
    .fil0 {fill:black}
   ]]>
  </style>
 </defs>
 <g id="Camada_x0020_1">
  <metadata id="CorelCorpID_0Corel-Layer"/>
  <g id="_1884775896192">
   <path class="fil0" d="M47692 1237146l0 -1038001c0,-19619 4272,-32094 19696,-36412l148784 -22346c163482,-22646 333158,-50604 496562,-72936l100834 -14188 0 1329763 -743916 -108929c-17579,-4093 -21960,-16248 -21960,-36952zm981893 -182351l117827 0 0 44886 -117827 0 0 -44886zm-165520 0l117828 0 0 44886 -117828 0 0 -44886zm165520 -241265l117827 0 0 47692 -117827 0 0 -47692zm-165520 0l117828 0 0 47692 -117828 0 0 -47692zm165520 -238460l117827 0 0 47692 -117827 0 0 -47692zm-165520 0l117828 0 0 47692 -117828 0 0 -47692zm165520 -238459l117827 0 0 44886 -117827 0 0 -44886zm-165520 0l117828 0 0 44886 -117828 0 0 -44886zm0 -168325l403979 0c20007,0 25248,16298 25248,36470l0 1026779c0,20172 -5241,36470 -25248,36470l-403979 0 0 -117827 283346 0c13590,0 26846,-6222 34502,-13190 22099,-20109 15995,-52065 15995,-87805 0,-19904 -21979,-44887 -50497,-44887l-283346 0 0 -92578 269319 0c74495,0 64524,-48360 64524,-98189 0,-25640 -22052,-47692 -47692,-47692l-286151 0 0 -95384 286151 0c56052,0 47692,-63555 47692,-95384 0,-35863 -28046,-50497 -64524,-50497l-269319 0 0 -92578 283346 0c28518,0 50497,-24983 50497,-44887 0,-35966 9694,-100995 -50497,-100995l-283346 0 0 -117827zm-864065 11222l0 1077276c0,33139 29499,60226 60043,66200 37506,7335 74179,10393 112709,16341 183087,28263 374369,52606 555079,81748 23825,3842 93523,15257 113791,15257 32184,0 22444,-79077 22444,-117828l392757 0c44565,0 84162,-26812 84162,-67330l0 -1066054c0,-41499 -39280,-67330 -86967,-67330l-389952 0c0,-135661 19852,-128532 -133837,-102978 -35370,5880 -75219,11283 -112552,16497l-555230 81597c-33676,5273 -62446,35935 -62446,66603z"/>
   <path class="fil0" d="M423616 678869c-13505,-9043 -65679,-76432 -77686,-90638 -13570,-16056 -24188,-30406 -37961,-46202 -17453,-20016 -26666,-39900 -44261,-39900 -14102,0 -25249,12197 -25249,25248 0,13000 61189,81365 72578,95748 4173,5269 76109,88473 76109,95020 0,5847 -10590,15940 -17700,24381 -16507,19594 -130987,154878 -130987,163581 0,21016 24281,45927 50518,11242 29177,-38572 80883,-97021 114117,-138369 7801,-9705 10332,-14736 20522,-21559 8410,15893 126160,154890 143469,176347 7309,9061 14122,22321 28819,23983 12539,1417 26896,-7468 26896,-23590 0,-16569 -46937,-68100 -59780,-83297l-108545 -132720c14679,-21921 65798,-79705 85783,-104984 12253,-15498 82541,-92450 82541,-111033 0,-16294 -14404,-24841 -27691,-23670 -15531,1368 -65830,69073 -76508,82185l-71917 87991c-8571,9827 -17054,18868 -23069,30234z"/>
  </g>
 </g>
</svg>
