<?xml version="1.0" encoding="UTF-8"?>
<svg xmlns="http://www.w3.org/2000/svg" viewBox="0 0 64 64" width="512" height="512"><g id="woman-user-people-girl-avatar"><path d="M49.29,43.46,37,40.23V40H50.48a1.024,1.024,0,0,0,.83-.44.992.992,0,0,0,.1-.93L49,32.62V19a17,17,0,0,0-34,0V32.62l-2.41,6.01a.992.992,0,0,0,.1.93,1.024,1.024,0,0,0,.83.44H27v.23L14.7,43.46A9.03,9.03,0,0,0,8,52.17V61a1,1,0,0,0,1,1H55a1,1,0,0,0,1-1V52.17A9.028,9.028,0,0,0,49.29,43.46ZM32,36A11.007,11.007,0,0,1,21,25V18.67l11-4.59,11,4.59V25A11.007,11.007,0,0,1,32,36Zm17,2H37V37a13.017,13.017,0,0,0,7.84-10.09A4.736,4.736,0,0,0,47,25.97v6.84a.937.937,0,0,0,.07.37ZM45,24.81V19.18a3.179,3.179,0,0,1,1.12.69A3.03,3.03,0,0,1,47,22,2.994,2.994,0,0,1,45,24.81ZM32,4A15.012,15.012,0,0,1,46.95,17.98a5,5,0,0,0-2.69-.95L32.38,12.08a.916.916,0,0,0-.76,0L19.74,17.03a5.033,5.033,0,0,0-2.69.95A15.012,15.012,0,0,1,32,4ZM17.87,19.88a3.1,3.1,0,0,1,1.13-.7v5.64a3,3,0,0,1-1.13-4.94ZM15,38l1.93-4.82a.937.937,0,0,0,.07-.37V25.97a4.958,4.958,0,0,0,2.16.94A13.017,13.017,0,0,0,27,37v1ZM31,60H22a4,4,0,0,1,0-8V50a5.99,5.99,0,0,0-4.46,10H10V52.17a7.008,7.008,0,0,1,5.21-6.77L28.13,42H31ZM29,40V37.64a12.68,12.68,0,0,0,6,0V40ZM54,60H46.46A5.99,5.99,0,0,0,42,50v2a4,4,0,0,1,0,8H33V42h2.87l12.91,3.4A7.006,7.006,0,0,1,54,52.17Z"/><path d="M26,21a3,3,0,0,0-3,3h2a1,1,0,0,1,2,0h2A3,3,0,0,0,26,21Z"/><path d="M38,21a3,3,0,0,0-3,3h2a1,1,0,0,1,2,0h2A3,3,0,0,0,38,21Z"/><path d="M32,31a1,1,0,0,1-1-1H29a3,3,0,0,0,6,0H33A1,1,0,0,1,32,31Z"/></g></svg>
