<?xml version="1.0" encoding="UTF-8"?>
<!DOCTYPE svg PUBLIC "-//W3C//DTD SVG 1.1//EN" "http://www.w3.org/Graphics/SVG/1.1/DTD/svg11.dtd">
<!-- Creator: CorelDRAW 2019 (64 Bit) -->
<svg xmlns="http://www.w3.org/2000/svg" xml:space="preserve" width="30.3031mm" height="19.2265mm" version="1.1" style="shape-rendering:geometricPrecision; text-rendering:geometricPrecision; image-rendering:optimizeQuality; fill-rule:evenodd; clip-rule:evenodd"
viewBox="0 0 3029240 1921971"
 xmlns:xlink="http://www.w3.org/1999/xlink">
 <defs>
  <style type="text/css">
   <![CDATA[
    .fil0 {fill:none}
    .fil4 {fill:#B23222}
    .fil5 {fill:#C1C2C2}
    .fil1 {fill:#DBDBDB}
    .fil2 {fill:#DC483B}
    .fil3 {fill:#EEEEEE}
   ]]>
  </style>
 </defs>
 <g id="Camada_x0020_1">
  <metadata id="CorelCorpID_0Corel-Layer"/>
  <g id="_2004391259120">
   <rect class="fil0" width="3029240" height="1921971"/>
   <g>
    <path class="fil1" d="M957772 1506108c7567,-4538 15914,-11536 23652,-17514l55740 -43445c106752,-80422 222511,-174698 330413,-258369l25781 -18883c750,-430 1879,-990 2509,-1340 650,-350 1699,-920 2569,-1340l343229 338730c4338,5958 2139,1649 5968,10626l328224 800 -170 -827398c-37457,16024 -181526,132003 -237126,170220 -31359,21552 -71735,54031 -103354,73524 -21682,13375 -65437,51982 -81931,63438l-86699 59279c-7727,5728 -14115,9647 -21832,15345 -41355,30559 -19743,-1090 -45914,15654l-96326 76683c-12566,-6458 -94087,-90308 -112260,-108732 -31819,-32249 -320217,-313599 -332693,-333792l220 786512z"/>
    <path class="fil2" d="M766249 502473c24391,58989 19563,45884 74964,85920l479591 341499c31129,22492 62268,44444 95996,68206 33998,23962 62888,45754 96296,68826 14225,-4608 252621,-179577 289038,-204608 126125,-86699 256659,-186704 382775,-274253 15565,-10806 34288,-23412 46634,-33868 18823,-15944 20553,-32808 27430,-46833 390,-780 880,-1629 1250,-2339l2829 -4698c0,-48793 -24361,-86529 -69965,-98785 -16504,-4428 -38896,-1779 -57090,-1779 -5288,7207 -66137,48993 -78522,57830l-156015 113590c-25011,18074 -51202,36257 -77243,56020l-311180 224121 -620011 -451561c-16994,0 -38246,-2309 -54341,1160 -11636,2519 -31609,13065 -39186,19693 -10416,9097 -17794,19413 -24091,31689 -8407,16404 -9157,25381 -9157,50172z"/>
    <path class="fil3" d="M2135996 399759l-1242971 0 620011 451561 311180 -224121c26041,-19763 52232,-37947 77243,-56020l156015 -113590c12386,-8837 73234,-50622 78522,-57830z"/>
    <path class="fil4" d="M766249 513259c520,680 1100,1629 1410,2139l3709 6498c1220,2479 2299,5718 3619,8797 13565,31739 56540,65527 80921,89318 16514,16114 31989,31639 48103,47943 13085,13235 35368,38926 49982,48533l-140 -39186c14455,5368 382085,272484 418162,297395 36037,24891 110851,82021 141080,100614 15055,-4848 438995,-312450 489227,-347507 24651,-17194 47763,-37377 73324,-50852l40 11026 170 827398 -480 6218c77922,0 139961,14045 175208,-46554 12716,-21852 12546,-31419 12476,-65007l-10 -909709 -2829 4698c-370,710 -860,1559 -1250,2339 -6878,14025 -8607,30889 -27430,46833 -12346,10456 -31069,23062 -46634,33868 -126115,87549 -256649,187554 -382775,274253 -36417,25031 -274813,199999 -289038,204608 -33408,-23072 -62298,-44864 -96296,-68826 -33728,-23762 -64867,-45714 -95996,-68206l-479591 -341499c-55400,-40036 -50572,-26930 -74964,-85920l0 10786z"/>
    <path class="fil2" d="M954633 1521593l-640 -805106c-14615,-9607 -36897,-35298 -49982,-48533 -16114,-16304 -31589,-31829 -48103,-47943 -24381,-23792 -67356,-57580 -80921,-89318 -1320,-3079 -2399,-6318 -3619,-8797l-3709 -6498c-310,-510 -890,-1459 -1410,-2139l-10 893664c-30,31219 -1439,42385 10246,64137 23052,42915 54641,50632 98215,50532 26641,-60 53291,0 79932,0z"/>
    <path class="fil3" d="M957772 1506108l2109 10176c6658,-2999 726324,-5798 787752,-1709 -3829,-8977 -1629,-4668 -5968,-10626l-343229 -338730c-870,420 -1919,990 -2569,1340 -630,350 -1759,910 -2509,1340l-25781 18883c-107902,83670 -223661,177947 -330413,258369l-55740 43445c-7737,5978 -16084,12975 -23652,17514z"/>
    <path class="fil5" d="M953993 716487l640 805106 1120744 0 480 -6218 -328224 -800c-61428,-4089 -781094,-1290 -787752,1709l-2109 -10176 -220 -786512c12476,20193 300874,301544 332693,333792 18174,18423 99695,102274 112260,108732l96326 -76683c26171,-16744 4558,14905 45914,-15654 7717,-5698 14105,-9617 21832,-15345l86699 -59279c16494,-11456 60249,-50062 81931,-63438 31619,-19493 71995,-51972 103354,-73524 55600,-38217 199669,-154196 237126,-170220l-40 -11026c-25561,13475 -48673,33658 -73324,50852 -50232,35058 -474173,342659 -489227,347507 -30229,-18593 -105043,-75723 -141080,-100614 -36077,-24911 -403707,-292027 -418162,-297395l140 39186z"/>
   </g>
  </g>
 </g>
</svg>
