<?xml version="1.0" encoding="iso-8859-1"?>
<!-- Generator: Adobe Illustrator 19.0.0, SVG Export Plug-In . SVG Version: 6.00 Build 0)  -->
<svg version="1.1" id="Capa_1" xmlns="http://www.w3.org/2000/svg" xmlns:xlink="http://www.w3.org/1999/xlink" x="0px" fill="#666" y="0px"
	 viewBox="0 0 512 512" style="enable-background:new 0 0 512 512;" xml:space="preserve">
<g>
	<g>
		<path d="M341.333,0c-94.104,0-170.667,76.563-170.667,170.667c0,11.208,1.219,22.708,3.625,34.26l-19.063,9.531
			c-3.063,1.531-5.208,4.448-5.76,7.833c-0.552,3.385,0.563,6.823,2.99,9.25l13.792,13.792L155.583,256h-16.917
			c-5.896,0-10.667,4.771-10.667,10.667v16.917l-15.083,15.083H96c-5.896,0-10.667,4.771-10.667,10.667v16.917L70.25,341.333H53.333
			c-5.896,0-10.667,4.771-10.667,10.667v16.917L3.125,408.458c-2,2-3.125,4.708-3.125,7.542v85.333C0,507.229,4.771,512,10.667,512
			H96c2.833,0,5.542-1.125,7.542-3.125L266.667,345.75l13.792,13.792c2.417,2.427,5.865,3.563,9.25,2.99
			c3.385-0.552,6.302-2.698,7.833-5.76l9.531-19.063C415.604,360.333,512,275.979,512,170.667C512,76.563,435.438,0,341.333,0z
			 M231.542,295.542L82.208,444.875c-2.083,2.083-4.813,3.125-7.542,3.125c-2.729,0-5.458-1.042-7.542-3.125
			c-4.167-4.167-4.167-10.917,0-15.083l149.333-149.333c4.167-4.167,10.917-4.167,15.083,0
			C235.708,284.625,235.708,291.375,231.542,295.542z M394.667,170.667c-29.406,0-53.333-23.927-53.333-53.333S365.26,64,394.667,64
			S448,87.927,448,117.333S424.073,170.667,394.667,170.667z"/>
	</g>
</g>
<g>
</g>
<g>
</g>
<g>
</g>
<g>
</g>
<g>
</g>
<g>
</g>
<g>
</g>
<g>
</g>
<g>
</g>
<g>
</g>
<g>
</g>
<g>
</g>
<g>
</g>
<g>
</g>
<g>
</g>
</svg>
