<?xml version="1.0" encoding="UTF-8"?>
<!DOCTYPE svg PUBLIC "-//W3C//DTD SVG 1.1//EN" "http://www.w3.org/Graphics/SVG/1.1/DTD/svg11.dtd">
<!-- Creator: CorelDRAW 2019 (64 Bit) -->
<svg xmlns="http://www.w3.org/2000/svg" xml:space="preserve" width="37.0227mm" height="39.125mm" version="1.1" style="shape-rendering:geometricPrecision; text-rendering:geometricPrecision; image-rendering:optimizeQuality; fill-rule:evenodd; clip-rule:evenodd"
viewBox="0 0 695.78 735.29"
 xmlns:xlink="http://www.w3.org/1999/xlink">
 <defs>
  <style type="text/css">
   <![CDATA[
    .fil2 {fill:#BE2D31}
    .fil1 {fill:white}
    .fil3 {fill:white}
    .fil0 {fill:white;fill-rule:nonzero}
   ]]>
  </style>
 </defs>
 <g id="Camada_x0020_1">
  <metadata id="CorelCorpID_0Corel-Layer"/>
  <g id="_2656255957152">
   <path class="fil0" d="M45.17 446.95c0.46,-0.49 0.95,-1.26 1.41,-2.3 0.56,-1.22 1.17,-1.83 1.85,-1.83 0.98,0 1.59,0.85 1.82,2.54l1.89 15.86 0.22 1.91c0,1.04 -0.5,1.56 -1.48,1.56 -0.72,0 -1.26,-0.18 -1.57,-0.55 -0.33,-0.37 -0.95,-1.56 -1.85,-3.57 -1.55,-3.43 -4.13,-6.52 -7.7,-9.26 -3.57,-2.74 -7.18,-4.12 -10.8,-4.12 -3.5,0 -6.42,1.07 -8.76,3.21 -2.33,2.13 -3.5,4.83 -3.5,8.06 0,2.58 1.09,4.91 3.26,7 2.18,2.07 6.37,4.04 12.55,5.91 9.72,2.94 16.3,6.56 19.74,10.88 3.41,4.3 5.11,9.08 5.11,14.35 0,5.38 -1.24,9.91 -3.74,13.56 -2.5,3.65 -5.48,6.52 -8.96,8.61 -3.48,2.11 -7.93,3.15 -13.35,3.15 -3.07,0 -6.26,-0.47 -9.56,-1.4 -3.29,-0.92 -6.7,-2.32 -10.2,-4.18 -0.72,0.87 -1.35,1.99 -1.85,3.39 -0.57,1.54 -1.3,2.31 -2.17,2.31 -0.89,0 -1.42,-1.04 -1.61,-3.11l-1.56 -20.93c-0.07,-0.91 -0.11,-1.48 -0.11,-1.71 0,-1.12 0.54,-1.67 1.61,-1.67 0.78,0 1.54,0.97 2.26,2.9 2.2,5.79 5.2,10.62 9,14.48 3.76,3.86 8.17,5.79 13.18,5.79 4.28,0 7.72,-1.36 10.35,-4.06 2.61,-2.7 3.92,-5.77 3.92,-9.2 0,-3.43 -1.22,-6.33 -3.65,-8.69 -2.42,-2.35 -6.8,-4.61 -13.09,-6.76 -6.13,-2.11 -10.68,-4.14 -13.65,-6.07 -2.98,-1.91 -5.37,-4.57 -7.15,-7.92 -1.8,-3.37 -2.69,-6.8 -2.69,-10.25 0,-6.05 2.2,-11.19 6.59,-15.43 4.39,-4.24 10.35,-6.35 17.91,-6.35 4.07,0 9.52,1.3 16.31,3.9zm51.24 -4.73l3.91 0c4.76,11 11.5,28.32 20.2,51.94 4.02,10.86 6.77,17.44 8.29,19.75 1.5,2.31 3.91,3.7 7.19,4.22 1.09,0.16 1.63,0.65 1.63,1.52 0,1.2 -0.7,1.79 -2.11,1.79 -0.76,0 -2.72,-0.14 -5.91,-0.41 -3.76,-0.36 -6.93,-0.53 -9.48,-0.53 -2.5,0 -5.76,0.16 -9.76,0.47 -3,0.23 -4.98,0.35 -5.91,0.35 -1.67,0 -2.5,-0.55 -2.5,-1.65 0,-0.83 0.58,-1.3 1.74,-1.42 4.44,-0.43 6.67,-2.31 6.67,-5.64 0,-1.56 -0.67,-4.4 -1.98,-8.53 -1.32,-4.12 -2.72,-7.88 -4.22,-11.25 -2.33,-0.04 -4.17,-0.06 -5.46,-0.06 -7.26,0 -12.91,0.02 -16.95,0.06 -3.13,9.08 -4.7,15.09 -4.7,18.03 0,2.11 0.78,3.72 2.33,4.89 1.56,1.16 3.24,1.83 5.06,2.03 1.39,0.16 2.07,0.75 2.07,1.77 0,1.02 -0.74,1.54 -2.22,1.54 -0.59,0 -2.11,-0.08 -4.57,-0.24 -3.19,-0.24 -5.52,-0.36 -6.96,-0.36 -2.85,0 -5.57,0.18 -8.15,0.55 -0.65,0.1 -1.2,0.16 -1.63,0.16 -1.35,0 -2.02,-0.59 -2.02,-1.75 0,-0.85 0.44,-1.4 1.31,-1.67 2.17,-0.65 3.87,-1.44 5.11,-2.4 1.22,-0.95 2.56,-2.78 3.98,-5.48 1.45,-2.72 3.15,-7.08 5.13,-13.07 4.46,-13.48 11.09,-31.67 19.91,-54.61zm-3.72 20.1l-9.24 25.78 19 -0.3c-1.02,-3 -2.57,-7.09 -4.67,-12.32 -2.28,-5.72 -3.96,-10.11 -5.09,-13.16zm68.14 -18.03c17.37,20.93 31.85,37.74 43.44,50.41 0.04,-2.6 0.05,-4.3 0.05,-5.06l0.06 -22.88c0,-5.38 -0.3,-9.24 -0.87,-11.57 -0.58,-2.35 -1.8,-4.18 -3.69,-5.52 -1.87,-1.34 -4.06,-2.15 -6.56,-2.37 -1.33,-0.16 -2,-0.75 -2,-1.77 0,-1.11 0.61,-1.66 1.83,-1.66 0.69,0 1.57,0.08 2.65,0.22 2.05,0.26 5.07,0.37 9.02,0.37 4.98,0 8.76,-0.14 11.35,-0.43 1.09,-0.1 2,-0.16 2.76,-0.16 1.37,0 2.05,0.55 2.05,1.67 0,1.08 -0.92,1.73 -2.76,1.93 -2.26,0.22 -4.39,1.24 -6.35,3.05 -1.96,1.79 -2.94,5.36 -2.94,10.66l0.28 32.63 -0.37 24.55c0,2.11 -0.61,3.17 -1.83,3.17 -0.31,0 -0.7,-0.12 -1.13,-0.36 -0.43,-0.22 -2.93,-2.9 -7.46,-7.98 -4.55,-5.1 -11.31,-13.01 -20.29,-23.73 -8.98,-10.7 -15.28,-18.39 -18.91,-23.06 -0.08,1.04 -0.11,10.72 -0.11,29.01 0,5.65 0.22,10.09 0.69,13.3 0.45,3.21 1.87,5.54 4.24,6.97 2.37,1.44 4.52,2.17 6.44,2.17 1.24,0 1.85,0.49 1.85,1.48 0,1.14 -0.65,1.72 -1.95,1.72 -0.83,0 -1.89,-0.06 -3.15,-0.2 -2.17,-0.26 -4.93,-0.39 -8.3,-0.39 -5.37,0 -9.28,0.18 -11.69,0.53 -1.52,0.2 -2.61,0.3 -3.26,0.3 -1.41,0 -2.11,-0.63 -2.11,-1.89 0,-0.91 1.15,-1.46 3.43,-1.66 4.09,-0.36 6.67,-1.85 7.68,-4.49 1.04,-2.66 1.55,-6.29 1.55,-10.86 0,-19.86 -0.09,-32 -0.3,-36.42 -0.2,-4.43 -1.52,-8.43 -3.93,-12 -2.43,-3.59 -5.35,-5.71 -8.76,-6.4 -1.42,-0.28 -2.13,-0.89 -2.13,-1.81 0,-1.28 0.74,-1.91 2.22,-1.91 0.37,0 0.89,0.04 1.57,0.12 0.83,0.08 2.33,0.12 4.52,0.12 4.7,0 9.07,0.06 13.13,0.18zm66.25 -0.65c18.78,0.55 32.66,0.83 41.66,0.83 6.85,0 14.37,-0.2 22.57,-0.61 2.95,-0.14 5.33,-0.22 7.22,-0.22 0.72,0 1.94,0.02 3.63,0.06 0.26,1.58 0.59,4.83 0.98,9.76l0.81 9.1c0,1.5 -0.57,2.25 -1.74,2.25 -0.89,0 -1.76,-0.93 -2.59,-2.76 -1.37,-3.11 -3.13,-5.79 -5.29,-8.02 -2.15,-2.23 -4.65,-3.7 -7.5,-4.43 -2.85,-0.73 -7.55,-1.11 -14.11,-1.11 -0.57,5.91 -0.87,13.3 -0.87,22.17 0,9.06 0.17,17.81 0.48,26.25 0.33,8.43 0.72,13.52 1.2,15.25 0.46,1.73 1.26,3.01 2.39,3.82 1.11,0.81 3.76,1.36 7.93,1.67 1.41,0.12 2.11,0.65 2.11,1.6 0,1.07 -0.61,1.6 -1.85,1.6l-1.52 -0.06 -11.22 -0.3c-8.76,0 -14.07,0.04 -15.96,0.1l-6.83 0.26c-0.54,0 -1.67,-0.04 -3.37,-0.12 -0.83,-0.2 -1.24,-0.67 -1.24,-1.42 0,-1.1 0.68,-1.66 2.05,-1.66 3.22,0 5.63,-0.71 7.26,-2.15 1.63,-1.42 2.63,-3.69 3,-6.78 0.39,-3.11 0.57,-9.85 0.57,-20.22 0,-16.4 -0.46,-29.74 -1.41,-40.02 -5.96,0 -10.26,0.26 -12.92,0.77 -2.65,0.53 -5.2,1.93 -7.65,4.26 -2.46,2.33 -4.46,5.32 -6.02,8.99 -0.63,1.46 -1.33,2.19 -2.13,2.19 -1.24,0 -1.87,-0.57 -1.87,-1.73 0,-0.33 0.22,-2.88 0.69,-7.59 0.45,-4.71 0.96,-8.61 1.54,-11.73zm108.42 -1.42l3.91 0c4.76,11 11.5,28.32 20.2,51.94 4.02,10.86 6.77,17.44 8.29,19.75 1.5,2.31 3.91,3.7 7.19,4.22 1.09,0.16 1.63,0.65 1.63,1.52 0,1.2 -0.7,1.79 -2.11,1.79 -0.76,0 -2.72,-0.14 -5.91,-0.41 -3.76,-0.36 -6.92,-0.53 -9.48,-0.53 -2.5,0 -5.76,0.16 -9.76,0.47 -3,0.23 -4.98,0.35 -5.91,0.35 -1.67,0 -2.5,-0.55 -2.5,-1.65 0,-0.83 0.58,-1.3 1.74,-1.42 4.44,-0.43 6.67,-2.31 6.67,-5.64 0,-1.56 -0.67,-4.4 -1.98,-8.53 -1.32,-4.12 -2.72,-7.88 -4.22,-11.25 -2.33,-0.04 -4.17,-0.06 -5.46,-0.06 -7.26,0 -12.91,0.02 -16.95,0.06 -3.13,9.08 -4.7,15.09 -4.7,18.03 0,2.11 0.78,3.72 2.33,4.89 1.56,1.16 3.24,1.83 5.06,2.03 1.39,0.16 2.07,0.75 2.07,1.77 0,1.02 -0.74,1.54 -2.22,1.54 -0.59,0 -2.11,-0.08 -4.57,-0.24 -3.19,-0.24 -5.52,-0.36 -6.96,-0.36 -2.85,0 -5.57,0.18 -8.15,0.55 -0.65,0.1 -1.2,0.16 -1.63,0.16 -1.35,0 -2.02,-0.59 -2.02,-1.75 0,-0.85 0.44,-1.4 1.31,-1.67 2.17,-0.65 3.87,-1.44 5.11,-2.4 1.22,-0.95 2.56,-2.78 3.98,-5.48 1.45,-2.72 3.15,-7.08 5.13,-13.07 4.46,-13.48 11.09,-31.67 19.91,-54.61zm-3.72 20.1l-9.24 25.78 19 -0.3c-1.02,-3 -2.57,-7.09 -4.67,-12.32 -2.28,-5.72 -3.96,-10.11 -5.09,-13.16zm136.82 -12.75c0.76,-1.01 1.56,-2.11 2.39,-3.33 0.98,-1.5 1.82,-2.25 2.46,-2.25 0.74,0 1.22,0.2 1.42,0.57 0.22,0.39 0.41,1.58 0.56,3.57l1.11 17.97 0.11 2.3c0,1.54 -0.58,2.31 -1.72,2.31 -0.76,0 -1.37,-0.63 -1.83,-1.89 -1.48,-4.08 -4.17,-8.61 -8.02,-13.58 -3.87,-4.99 -8.74,-7.47 -14.63,-7.47 -4.35,0 -8,1.34 -10.96,4.02 -2.96,2.66 -5.26,6.33 -6.91,10.98 -1.65,4.67 -2.48,10.25 -2.48,16.75 0,11.11 2.29,19.96 6.91,26.52 4.59,6.56 10.31,9.83 17.16,9.83 7.43,0 14.24,-4.75 20.43,-14.25 0.74,-1.14 1.46,-1.71 2.13,-1.71 1.13,0 1.7,0.61 1.7,1.83 0,2.54 -2.85,6.58 -8.56,12.1 -5.7,5.54 -12.83,8.3 -21.41,8.3 -11.37,0 -20.35,-3.72 -26.92,-11.19 -6.59,-7.47 -9.89,-16.65 -9.89,-27.55 0,-10.86 3.31,-20.28 9.96,-28.26 6.65,-7.98 15.05,-11.98 25.18,-11.98 7.15,0 14.41,2.13 21.8,6.4zm47.99 -7.35l3.91 0c4.76,11 11.5,28.32 20.2,51.94 4.02,10.86 6.77,17.44 8.29,19.75 1.5,2.31 3.91,3.7 7.19,4.22 1.09,0.16 1.63,0.65 1.63,1.52 0,1.2 -0.7,1.79 -2.11,1.79 -0.76,0 -2.72,-0.14 -5.91,-0.41 -3.76,-0.36 -6.92,-0.53 -9.48,-0.53 -2.5,0 -5.76,0.16 -9.76,0.47 -3,0.23 -4.98,0.35 -5.91,0.35 -1.67,0 -2.5,-0.55 -2.5,-1.65 0,-0.83 0.58,-1.3 1.74,-1.42 4.44,-0.43 6.67,-2.31 6.67,-5.64 0,-1.56 -0.67,-4.4 -1.98,-8.53 -1.32,-4.12 -2.72,-7.88 -4.22,-11.25 -2.33,-0.04 -4.16,-0.06 -5.46,-0.06 -7.26,0 -12.91,0.02 -16.94,0.06 -3.13,9.08 -4.7,15.09 -4.7,18.03 0,2.11 0.78,3.72 2.33,4.89 1.55,1.16 3.24,1.83 5.06,2.03 1.39,0.16 2.07,0.75 2.07,1.77 0,1.02 -0.74,1.54 -2.22,1.54 -0.59,0 -2.11,-0.08 -4.57,-0.24 -3.19,-0.24 -5.52,-0.36 -6.96,-0.36 -2.85,0 -5.57,0.18 -8.15,0.55 -0.65,0.1 -1.2,0.16 -1.63,0.16 -1.35,0 -2.02,-0.59 -2.02,-1.75 0,-0.85 0.44,-1.4 1.31,-1.67 2.17,-0.65 3.87,-1.44 5.11,-2.4 1.22,-0.95 2.56,-2.78 3.98,-5.48 1.45,-2.72 3.15,-7.08 5.13,-13.07 4.46,-13.48 11.09,-31.67 19.91,-54.61zm-3.72 20.1l-9.24 25.78 19 -0.3c-1.02,-3 -2.57,-7.09 -4.67,-12.32 -2.28,-5.72 -3.96,-10.11 -5.09,-13.16zm90.18 -15.37c0.46,-0.49 0.95,-1.26 1.41,-2.3 0.56,-1.22 1.17,-1.83 1.85,-1.83 0.98,0 1.59,0.85 1.82,2.54l1.89 15.86 0.22 1.91c0,1.04 -0.5,1.56 -1.48,1.56 -0.72,0 -1.26,-0.18 -1.57,-0.55 -0.33,-0.37 -0.95,-1.56 -1.85,-3.57 -1.56,-3.43 -4.13,-6.52 -7.7,-9.26 -3.57,-2.74 -7.18,-4.12 -10.79,-4.12 -3.5,0 -6.42,1.07 -8.76,3.21 -2.33,2.13 -3.5,4.83 -3.5,8.06 0,2.58 1.09,4.91 3.26,7 2.18,2.07 6.37,4.04 12.55,5.91 9.72,2.94 16.3,6.56 19.74,10.88 3.41,4.3 5.11,9.08 5.11,14.35 0,5.38 -1.24,9.91 -3.74,13.56 -2.5,3.65 -5.48,6.52 -8.96,8.61 -3.48,2.11 -7.93,3.15 -13.35,3.15 -3.07,0 -6.26,-0.47 -9.56,-1.4 -3.29,-0.92 -6.7,-2.32 -10.2,-4.18 -0.72,0.87 -1.35,1.99 -1.85,3.39 -0.57,1.54 -1.3,2.31 -2.17,2.31 -0.89,0 -1.42,-1.04 -1.61,-3.11l-1.56 -20.93c-0.07,-0.91 -0.11,-1.48 -0.11,-1.71 0,-1.12 0.54,-1.67 1.61,-1.67 0.78,0 1.54,0.97 2.26,2.9 2.2,5.79 5.2,10.62 9,14.48 3.76,3.86 8.17,5.79 13.18,5.79 4.28,0 7.72,-1.36 10.35,-4.06 2.61,-2.7 3.93,-5.77 3.93,-9.2 0,-3.43 -1.22,-6.33 -3.65,-8.69 -2.42,-2.35 -6.8,-4.61 -13.09,-6.76 -6.13,-2.11 -10.68,-4.14 -13.65,-6.07 -2.98,-1.91 -5.37,-4.57 -7.15,-7.92 -1.79,-3.37 -2.68,-6.8 -2.68,-10.25 0,-6.05 2.2,-11.19 6.59,-15.43 4.39,-4.24 10.35,-6.35 17.91,-6.35 4.07,0 9.52,1.3 16.31,3.9zm51.24 -4.73l3.91 0c4.76,11 11.5,28.32 20.2,51.94 4.02,10.86 6.78,17.44 8.3,19.75 1.5,2.31 3.91,3.7 7.19,4.22 1.09,0.16 1.63,0.65 1.63,1.52 0,1.2 -0.7,1.79 -2.11,1.79 -0.76,0 -2.72,-0.14 -5.91,-0.41 -3.76,-0.36 -6.93,-0.53 -9.48,-0.53 -2.5,0 -5.76,0.16 -9.76,0.47 -3,0.23 -4.98,0.35 -5.91,0.35 -1.67,0 -2.5,-0.55 -2.5,-1.65 0,-0.83 0.58,-1.3 1.74,-1.42 4.44,-0.43 6.67,-2.31 6.67,-5.64 0,-1.56 -0.67,-4.4 -1.98,-8.53 -1.32,-4.12 -2.72,-7.88 -4.22,-11.25 -2.33,-0.04 -4.17,-0.06 -5.46,-0.06 -7.26,0 -12.91,0.02 -16.94,0.06 -3.13,9.08 -4.7,15.09 -4.7,18.03 0,2.11 0.78,3.72 2.33,4.89 1.56,1.16 3.24,1.83 5.06,2.03 1.39,0.16 2.07,0.75 2.07,1.77 0,1.02 -0.74,1.54 -2.22,1.54 -0.59,0 -2.11,-0.08 -4.57,-0.24 -3.19,-0.24 -5.52,-0.36 -6.96,-0.36 -2.85,0 -5.57,0.18 -8.15,0.55 -0.65,0.1 -1.2,0.16 -1.63,0.16 -1.35,0 -2.02,-0.59 -2.02,-1.75 0,-0.85 0.44,-1.4 1.31,-1.67 2.17,-0.65 3.87,-1.44 5.11,-2.4 1.22,-0.95 2.56,-2.78 3.98,-5.48 1.45,-2.72 3.15,-7.08 5.13,-13.07 4.46,-13.48 11.09,-31.67 19.91,-54.61zm-3.72 20.1l-9.24 25.78 19 -0.3c-1.02,-3 -2.57,-7.09 -4.67,-12.32 -2.28,-5.72 -3.96,-10.11 -5.09,-13.16zm-624.64 151.18c-0.94,0 -4.82,-0.07 -11.63,-0.21l-7.09 0.04 -4.15 -0.07c-0.99,0 -1.61,-0.06 -1.85,-0.19 -0.25,-0.12 -0.38,-0.4 -0.38,-0.83 0,-0.65 0.46,-0.98 1.4,-0.98 1.76,0 3.06,-0.32 3.88,-0.96 0.82,-0.64 1.34,-1.82 1.55,-3.54 0.22,-1.72 0.42,-5.13 0.6,-10.26 0.19,-5.12 0.27,-9.84 0.27,-14.14 0,-6.06 -0.27,-9.78 -0.82,-11.17 -0.55,-1.38 -1.91,-2.13 -4.07,-2.24 -0.78,-0.07 -1.16,-0.41 -1.16,-1.02 0,-0.61 0.34,-0.91 1.03,-0.91 0.41,0 1.79,0.13 4.15,0.39 2.62,0.26 4.44,0.39 5.48,0.39l12.19 -0.35c4.07,0 8,0.83 11.78,2.49 3.78,1.66 6.77,4.37 9,8.13 2.22,3.76 3.32,8.02 3.32,12.78 0,3.53 -0.65,6.81 -1.95,9.87 -1.3,3.05 -3.19,5.62 -5.64,7.7 -2.47,2.08 -4.92,3.45 -7.35,4.1 -2.43,0.65 -5.28,0.98 -8.56,0.98zm-2.21 -2.45c4.52,0 8.09,-1.68 10.72,-5.06 2.62,-3.36 3.94,-8.18 3.94,-14.43 0,-6.35 -1.42,-11.59 -4.25,-15.7 -2.82,-4.11 -6.84,-6.17 -12.05,-6.17 -1.78,0 -2.85,0.11 -3.21,0.33 -0.36,0.22 -0.58,0.44 -0.66,0.67 -0.09,0.23 -0.22,2.8 -0.39,7.7l-0.39 11.66c-0.06,2.86 -0.1,6.41 -0.1,10.65 0,3.19 0.13,5.39 0.39,6.59 0.25,1.2 0.82,2.13 1.7,2.78 0.89,0.65 2.32,0.98 4.29,0.98zm70.24 -43.18c0.69,3.57 1.36,7.14 2.03,10.71 0,0.67 -0.31,0.99 -0.93,0.99 -0.34,0 -0.73,-0.32 -1.15,-0.96 -2.2,-3.44 -4.24,-5.69 -6.07,-6.79 -1.84,-1.1 -4.47,-1.65 -7.93,-1.65 -1.93,0 -3.8,0.17 -5.6,0.51 -0.38,4.04 -0.58,8.47 -0.58,13.28 0,0.83 0.02,2.21 0.07,4.15l2.45 0.03c1.52,0 2.84,-0.22 3.95,-0.67 1.11,-0.44 2.04,-1.39 2.82,-2.84 0.77,-1.45 1.21,-2.38 1.32,-2.79 0.2,-0.74 0.53,-1.1 1,-1.1 0.6,0 0.91,0.27 0.91,0.82 0,0.16 -0.02,0.35 -0.07,0.55 -0.26,1.42 -0.39,5.65 -0.39,12.71 0,0.98 0.09,1.88 0.25,2.68 0.05,0.23 0.08,0.42 0.08,0.58 0,0.64 -0.34,0.96 -1.02,0.96 -0.47,0 -0.83,-0.61 -1.09,-1.82 -0.43,-2.13 -1.42,-3.75 -2.94,-4.86 -1.53,-1.11 -3.94,-1.68 -7.23,-1.73 -0.11,3.83 -0.17,6.36 -0.17,7.56 0,5.2 0.08,8.3 0.23,9.28 0.14,0.98 0.69,1.78 1.64,2.37 0.95,0.61 2.55,0.91 4.81,0.91 8.18,0 13.56,-2.77 16.14,-8.3 0.36,-0.78 0.75,-1.17 1.17,-1.17 0.61,0 0.92,0.27 0.92,0.82 0,0.37 -0.07,0.84 -0.2,1.41l-2.09 9.83 -11.65 -0.04c-3.28,-0.02 -6.34,-0.11 -9.19,-0.25 -2.84,-0.14 -5.06,-0.21 -6.67,-0.21 -1.8,0 -4.51,0.09 -8.13,0.29 -0.45,0.04 -0.79,0.06 -1,0.06 -1.01,0 -1.51,-0.35 -1.51,-1.06 0,-0.64 0.41,-0.97 1.23,-0.97 2.08,0 3.49,-0.6 4.2,-1.8 0.73,-1.19 1.09,-3.63 1.09,-7.32l0.2 -17.58c0,-6.02 -0.08,-9.71 -0.21,-11.09 -0.14,-1.38 -0.52,-2.31 -1.12,-2.8 -0.59,-0.49 -1.72,-0.86 -3.37,-1.11 -0.69,-0.09 -1.03,-0.41 -1.03,-0.95 0,-0.68 0.39,-1.02 1.18,-1.02l7.75 0.26 25.92 0.09zm70.97 -0.07c0.56,1.41 1.58,3.64 3.08,6.71 1.49,3.06 2.97,6.17 4.45,9.32 1.46,3.16 3.12,6.47 4.95,9.95 1.47,2.76 2.3,4.37 2.5,4.85 5.37,-12.77 9.44,-23.05 12.21,-30.83 5.15,0 9.9,-0.13 14.26,-0.39 0.41,-0.02 0.7,-0.03 0.9,-0.03 0.88,0 1.32,0.36 1.32,1.09 0,0.63 -0.34,0.95 -1.02,0.95 -2.44,0 -4.03,0.88 -4.79,2.64 -0.77,1.76 -1.14,6.06 -1.14,12.89l-0.03 16.73c0,3.41 0.43,5.8 1.27,7.16 0.85,1.37 2.22,2.08 4.13,2.15 0.92,0.02 1.38,0.35 1.38,0.98 0,0.33 -0.2,0.62 -0.58,0.84l-9.01 -0.07c-2.77,0 -6.54,0.12 -11.33,0.35 -0.41,-0.3 -0.61,-0.62 -0.61,-0.97 0,-0.53 0.56,-0.88 1.67,-1.06 1.13,-0.21 1.94,-0.5 2.45,-0.89 0.51,-0.39 0.88,-1.1 1.13,-2.15 0.26,-1.05 0.38,-2.58 0.38,-4.6l0.13 -15.26c0,-7.8 0.01,-12.3 0.03,-13.48 -5.85,14.38 -9.48,23.56 -10.88,27.55l-3.26 9.25c-0.36,0.98 -0.72,1.47 -1.09,1.47 -0.39,0 -0.85,-0.61 -1.37,-1.81 -1.57,-3.5 -7.17,-15.08 -16.8,-34.72 -0.11,5.65 -0.17,13.29 -0.17,22.9 0,5.07 0.27,8.27 0.81,9.6 0.54,1.34 2.04,2.11 4.51,2.35 0.82,0.09 1.23,0.41 1.23,0.95 0,0.58 -0.33,0.88 -1,0.88 -0.23,0 -0.49,-0.01 -0.77,-0.03 -2.57,-0.21 -4.41,-0.32 -5.53,-0.32 -3.04,0 -5.35,0.09 -6.9,0.29 -0.3,0.04 -0.53,0.06 -0.68,0.06 -0.75,0 -1.12,-0.33 -1.12,-0.98 0,-0.32 0.09,-0.54 0.27,-0.65 0.18,-0.13 0.67,-0.28 1.46,-0.45 2.06,-0.42 3.4,-1.2 4.04,-2.36 0.62,-1.17 0.94,-3.06 0.94,-5.7l0.16 -19.51c0,-4.44 -0.11,-7.37 -0.33,-8.81 -0.21,-1.44 -0.74,-2.55 -1.56,-3.32 -0.83,-0.77 -2.2,-1.35 -4.07,-1.74 -0.7,-0.16 -1.05,-0.54 -1.05,-1.13 0,-0.64 0.39,-0.97 1.17,-0.97 0.16,0 0.41,0.01 0.7,0.04 2.18,0.21 6.71,0.32 13.55,0.32zm52.67 -0.35c0.76,0 2.3,0.07 4.64,0.2 1.78,0.11 3.19,0.15 4.25,0.15l9.88 -0.35c0.83,0 1.25,0.3 1.25,0.92 0,0.56 -0.37,0.88 -1.13,0.97 -1.7,0.19 -2.83,0.51 -3.4,1.01 -0.57,0.5 -1.01,1.64 -1.32,3.41 -0.32,1.79 -0.47,5.81 -0.47,12.09 0,7.21 0.11,12.79 0.33,16.73 0.21,3.94 0.65,6.37 1.31,7.29 0.66,0.92 1.76,1.39 3.29,1.39 1.07,0 1.59,0.3 1.59,0.9 0,0.81 -0.57,1.2 -1.71,1.2 -0.32,0 -0.79,-0.01 -1.42,-0.04 -4.04,-0.3 -6.81,-0.45 -8.29,-0.45 -3.24,0 -5.64,0.09 -7.19,0.29 -0.81,0.08 -1.4,0.13 -1.74,0.13 -0.8,0 -1.2,-0.33 -1.2,-0.98 0,-0.51 0.33,-0.82 0.99,-0.91 1.82,-0.26 3.04,-0.79 3.68,-1.62 0.63,-0.83 1.01,-2.84 1.13,-6 0.13,-3.18 0.2,-8.1 0.2,-14.79 0,-7.05 -0.12,-11.76 -0.35,-14.15 -0.24,-2.38 -0.63,-3.84 -1.17,-4.39 -0.54,-0.55 -1.58,-0.89 -3.12,-1.03 -0.81,-0.07 -1.22,-0.42 -1.22,-1.06 0,-0.6 0.4,-0.9 1.19,-0.9zm52.55 1.68c0.27,-0.29 0.56,-0.75 0.83,-1.37 0.33,-0.72 0.69,-1.09 1.1,-1.09 0.58,0 0.94,0.5 1.07,1.51l1.12 9.4 0.13 1.13c0,0.62 -0.3,0.92 -0.88,0.92 -0.43,0 -0.75,-0.11 -0.93,-0.33 -0.2,-0.22 -0.56,-0.92 -1.1,-2.11 -0.92,-2.03 -2.45,-3.87 -4.57,-5.49 -2.12,-1.62 -4.26,-2.44 -6.4,-2.44 -2.07,0 -3.81,0.63 -5.19,1.9 -1.38,1.26 -2.08,2.86 -2.08,4.78 0,1.53 0.65,2.91 1.93,4.15 1.3,1.23 3.78,2.4 7.44,3.5 5.76,1.74 9.66,3.89 11.7,6.45 2.02,2.55 3.03,5.39 3.03,8.51 0,3.19 -0.74,5.88 -2.22,8.04 -1.48,2.16 -3.25,3.87 -5.31,5.1 -2.06,1.25 -4.7,1.87 -7.91,1.87 -1.82,0 -3.71,-0.28 -5.67,-0.83 -1.95,-0.55 -3.97,-1.38 -6.05,-2.48 -0.43,0.51 -0.8,1.18 -1.1,2.01 -0.34,0.91 -0.77,1.37 -1.28,1.37 -0.53,0 -0.85,-0.62 -0.95,-1.85l-0.92 -12.41c-0.04,-0.54 -0.07,-0.88 -0.07,-1.02 0,-0.67 0.32,-0.99 0.96,-0.99 0.46,0 0.91,0.57 1.34,1.72 1.31,3.43 3.09,6.3 5.34,8.59 2.23,2.29 4.84,3.43 7.82,3.43 2.54,0 4.58,-0.81 6.14,-2.41 1.55,-1.6 2.33,-3.42 2.33,-5.46 0,-2.03 -0.73,-3.75 -2.16,-5.15 -1.44,-1.39 -4.03,-2.73 -7.76,-4.01 -3.63,-1.25 -6.34,-2.45 -8.09,-3.6 -1.77,-1.13 -3.18,-2.71 -4.24,-4.7 -1.07,-2 -1.59,-4.03 -1.59,-6.08 0,-3.59 1.31,-6.63 3.91,-9.15 2.6,-2.51 6.14,-3.76 10.61,-3.76 2.42,0 5.64,0.77 9.67,2.31z"/>
   <path class="fil0" d="M320.66 567.87c0.69,3.57 1.36,7.14 2.03,10.71 0,0.67 -0.31,0.99 -0.93,0.99 -0.34,0 -0.73,-0.32 -1.15,-0.96 -2.21,-3.44 -4.24,-5.69 -6.07,-6.79 -1.83,-1.1 -4.47,-1.65 -7.93,-1.65 -1.93,0 -3.8,0.17 -5.6,0.51 -0.38,4.04 -0.58,8.47 -0.58,13.28 0,0.83 0.02,2.21 0.07,4.15l2.45 0.03c1.53,0 2.84,-0.22 3.95,-0.67 1.11,-0.44 2.04,-1.39 2.82,-2.84 0.77,-1.45 1.21,-2.38 1.32,-2.79 0.2,-0.74 0.53,-1.1 1,-1.1 0.6,0 0.91,0.27 0.91,0.82 0,0.16 -0.02,0.35 -0.07,0.55 -0.26,1.42 -0.39,5.65 -0.39,12.71 0,0.98 0.09,1.88 0.25,2.68 0.05,0.23 0.08,0.42 0.08,0.58 0,0.64 -0.34,0.96 -1.02,0.96 -0.47,0 -0.83,-0.61 -1.09,-1.82 -0.43,-2.13 -1.42,-3.75 -2.94,-4.86 -1.53,-1.11 -3.94,-1.68 -7.23,-1.73 -0.11,3.83 -0.17,6.36 -0.17,7.56 0,5.2 0.08,8.3 0.23,9.28 0.14,0.98 0.69,1.78 1.64,2.37 0.94,0.61 2.55,0.91 4.81,0.91 8.18,0 13.56,-2.77 16.14,-8.3 0.36,-0.78 0.75,-1.17 1.17,-1.17 0.61,0 0.92,0.27 0.92,0.82 0,0.37 -0.07,0.84 -0.2,1.41l-2.09 9.83 -11.65 -0.04c-3.28,-0.02 -6.34,-0.11 -9.19,-0.25 -2.84,-0.14 -5.06,-0.21 -6.67,-0.21 -1.8,0 -4.51,0.09 -8.13,0.29 -0.45,0.04 -0.79,0.06 -1,0.06 -1.01,0 -1.52,-0.35 -1.52,-1.06 0,-0.64 0.41,-0.97 1.23,-0.97 2.09,0 3.49,-0.6 4.2,-1.8 0.73,-1.19 1.09,-3.63 1.09,-7.32l0.2 -17.58c0,-6.02 -0.08,-9.71 -0.21,-11.09 -0.14,-1.38 -0.52,-2.31 -1.12,-2.8 -0.59,-0.49 -1.72,-0.86 -3.37,-1.11 -0.69,-0.09 -1.03,-0.41 -1.03,-0.95 0,-0.68 0.39,-1.02 1.18,-1.02l7.75 0.26 25.92 0.09zm35.67 21.93c2.89,0.43 5.27,1.37 7.15,2.79 1.88,1.44 3.28,4.28 4.22,8.52 0.89,3.98 1.84,6.6 2.85,7.87 1.01,1.26 2.44,1.95 4.27,2.07 1.01,0.07 1.51,0.41 1.51,1.03 0,0.67 -0.81,1 -2.45,1l-12.42 -0.35c-1.28,-1.37 -2.16,-3.81 -2.63,-7.33 -0.6,-4.5 -1.23,-7.66 -1.88,-9.52 -0.64,-1.85 -1.6,-3.16 -2.9,-3.96 -1.28,-0.81 -2.78,-1.2 -4.48,-1.2 -0.49,0 -1.17,0.03 -2.03,0.11 0,8.07 0.02,13.04 0.08,14.91 0.05,1.87 0.41,3.21 1.05,4.03 0.65,0.81 1.86,1.26 3.68,1.35 0.97,0.07 1.45,0.41 1.45,1.03 0,0.62 -0.42,0.93 -1.25,0.93l-9.88 -0.35c-1.34,0 -3.04,0.06 -5.11,0.17 -1.91,0.12 -3.13,0.17 -3.65,0.17 -0.88,0 -1.32,-0.34 -1.32,-1 0,-0.64 0.38,-0.96 1.16,-0.96 1.2,0 2.32,-0.32 3.34,-0.96 1.01,-0.64 1.53,-3.35 1.53,-8.14l-0.03 -6.38 0.03 -12.32c0,-6.36 -0.26,-10.25 -0.79,-11.65 -0.51,-1.41 -1.93,-2.14 -4.22,-2.18 -0.9,-0.02 -1.35,-0.35 -1.35,-0.98 0,-0.66 0.61,-0.98 1.8,-0.98 6.05,0 11.16,-0.14 15.37,-0.42 1.87,-0.14 3.55,-0.21 5.05,-0.21 4.86,0 8.67,1.04 11.44,3.11 2.77,2.08 4.15,4.78 4.15,8.13 0,2.24 -0.66,4.25 -1.97,6.04 -1.31,1.79 -2.94,3.12 -4.9,3.98 -1.97,0.88 -4.26,1.43 -6.89,1.65zm-8.77 -1.43c0.56,0.02 0.98,0.04 1.25,0.04 1.88,0 3.76,-0.37 5.66,-1.12 1.9,-0.75 3.24,-1.94 4.03,-3.57 0.78,-1.65 1.17,-3.39 1.17,-5.25 0,-2.87 -0.79,-5.1 -2.38,-6.72 -1.59,-1.6 -3.65,-2.41 -6.16,-2.41 -1.05,0 -2.25,0.21 -3.58,0.62l0 18.41zm37.22 -20.92c0.76,0 2.3,0.07 4.64,0.2 1.78,0.11 3.19,0.15 4.25,0.15l9.88 -0.35c0.83,0 1.25,0.3 1.25,0.92 0,0.56 -0.37,0.88 -1.13,0.97 -1.7,0.19 -2.83,0.51 -3.4,1.01 -0.57,0.5 -1.01,1.64 -1.32,3.41 -0.32,1.79 -0.47,5.81 -0.47,12.09 0,7.21 0.11,12.79 0.33,16.73 0.21,3.94 0.65,6.37 1.31,7.29 0.66,0.92 1.76,1.39 3.29,1.39 1.06,0 1.59,0.3 1.59,0.9 0,0.81 -0.57,1.2 -1.71,1.2 -0.32,0 -0.79,-0.01 -1.42,-0.04 -4.04,-0.3 -6.81,-0.45 -8.29,-0.45 -3.24,0 -5.64,0.09 -7.19,0.29 -0.81,0.08 -1.39,0.13 -1.74,0.13 -0.8,0 -1.2,-0.33 -1.2,-0.98 0,-0.51 0.33,-0.82 0.99,-0.91 1.82,-0.26 3.04,-0.79 3.68,-1.62 0.62,-0.83 1.01,-2.84 1.13,-6 0.13,-3.18 0.2,-8.1 0.2,-14.79 0,-7.05 -0.12,-11.76 -0.35,-14.15 -0.24,-2.38 -0.62,-3.84 -1.17,-4.39 -0.54,-0.55 -1.58,-0.89 -3.12,-1.03 -0.81,-0.07 -1.22,-0.42 -1.22,-1.06 0,-0.6 0.39,-0.9 1.19,-0.9zm62.71 3.24c0.45,-0.6 0.92,-1.25 1.42,-1.98 0.58,-0.89 1.08,-1.33 1.46,-1.33 0.44,0 0.72,0.12 0.85,0.34 0.13,0.23 0.24,0.93 0.33,2.11l0.66 10.65 0.07 1.37c0,0.91 -0.34,1.37 -1.02,1.37 -0.45,0 -0.81,-0.37 -1.09,-1.12 -0.88,-2.42 -2.47,-5.1 -4.75,-8.05 -2.29,-2.95 -5.18,-4.43 -8.67,-4.43 -2.58,0 -4.74,0.79 -6.5,2.38 -1.76,1.58 -3.12,3.75 -4.1,6.51 -0.98,2.77 -1.47,6.07 -1.47,9.93 0,6.59 1.36,11.83 4.1,15.72 2.72,3.89 6.11,5.83 10.17,5.83 4.4,0 8.44,-2.82 12.11,-8.45 0.44,-0.68 0.87,-1.02 1.26,-1.02 0.67,0 1.01,0.36 1.01,1.09 0,1.51 -1.69,3.9 -5.07,7.17 -3.38,3.28 -7.61,4.92 -12.69,4.92 -6.74,0 -12.07,-2.21 -15.96,-6.64 -3.91,-4.43 -5.86,-9.87 -5.86,-16.33 0,-6.44 1.96,-12.02 5.91,-16.75 3.94,-4.73 8.92,-7.1 14.93,-7.1 4.24,0 8.54,1.26 12.92,3.8zm37.43 -3.73c4.34,0 8.12,0.92 11.37,2.77 3.25,1.85 5.85,4.52 7.82,8.03 1.96,3.49 2.94,7.31 2.94,11.44 0,6.38 -2.24,12.04 -6.72,16.98 -4.48,4.94 -10.03,7.41 -16.66,7.41 -6.03,0 -11.18,-2.04 -15.46,-6.12 -4.27,-4.08 -6.41,-9.6 -6.41,-16.55 0,-6.57 2.22,-12.2 6.64,-16.89 4.42,-4.69 9.92,-7.04 16.48,-7.04zm11.2 23.28c0,-6.9 -1.11,-12.1 -3.31,-15.6 -2.21,-3.49 -5.01,-5.23 -8.39,-5.23 -3.37,0 -6.16,1.75 -8.36,5.26 -2.21,3.49 -3.32,8.69 -3.32,15.57 0,6.62 1.05,11.75 3.17,15.4 2.11,3.66 4.94,5.48 8.51,5.48 3.15,0 5.88,-1.65 8.21,-4.94 2.33,-3.29 3.49,-8.61 3.49,-15.93zm-4.87 -38.14c0.74,0 1.37,0.29 1.93,0.88 0.56,0.58 0.83,1.24 0.83,1.96 0,1.4 -1.12,2.98 -3.37,4.73 -1.76,1.37 -3.41,2.75 -4.97,4.11 -1.57,1.37 -2.6,2.06 -3.12,2.06 -0.25,0 -0.53,-0.14 -0.82,-0.41 -0.29,-0.28 -0.43,-0.54 -0.43,-0.79 0,-0.24 0.95,-1.89 2.88,-4.94 1.91,-3.05 3.34,-5.08 4.27,-6.09 0.92,-1.01 1.87,-1.51 2.8,-1.51zm48.04 37.7c2.89,0.43 5.27,1.37 7.15,2.79 1.88,1.44 3.28,4.28 4.22,8.52 0.89,3.98 1.84,6.6 2.85,7.87 1.01,1.26 2.44,1.95 4.27,2.07 1.01,0.07 1.51,0.41 1.51,1.03 0,0.67 -0.81,1 -2.45,1l-12.42 -0.35c-1.28,-1.37 -2.16,-3.81 -2.63,-7.33 -0.6,-4.5 -1.23,-7.66 -1.88,-9.52 -0.64,-1.85 -1.6,-3.16 -2.9,-3.96 -1.28,-0.81 -2.78,-1.2 -4.48,-1.2 -0.49,0 -1.17,0.03 -2.03,0.11 0,8.07 0.02,13.04 0.08,14.91 0.05,1.87 0.41,3.21 1.05,4.03 0.65,0.81 1.86,1.26 3.68,1.35 0.97,0.07 1.45,0.41 1.45,1.03 0,0.62 -0.42,0.93 -1.25,0.93l-9.88 -0.35c-1.34,0 -3.04,0.06 -5.11,0.17 -1.91,0.12 -3.13,0.17 -3.65,0.17 -0.88,0 -1.32,-0.34 -1.32,-1 0,-0.64 0.38,-0.96 1.16,-0.96 1.2,0 2.32,-0.32 3.34,-0.96 1.01,-0.64 1.53,-3.35 1.53,-8.14l-0.03 -6.38 0.03 -12.32c0,-6.36 -0.26,-10.25 -0.79,-11.65 -0.51,-1.41 -1.93,-2.14 -4.22,-2.18 -0.9,-0.02 -1.35,-0.35 -1.35,-0.98 0,-0.66 0.61,-0.98 1.8,-0.98 6.05,0 11.17,-0.14 15.37,-0.42 1.87,-0.14 3.55,-0.21 5.05,-0.21 4.86,0 8.67,1.04 11.44,3.11 2.77,2.08 4.15,4.78 4.15,8.13 0,2.24 -0.66,4.25 -1.97,6.04 -1.31,1.79 -2.94,3.12 -4.9,3.98 -1.96,0.88 -4.26,1.43 -6.89,1.65zm-8.77 -1.43c0.56,0.02 0.98,0.04 1.25,0.04 1.88,0 3.76,-0.37 5.66,-1.12 1.9,-0.75 3.24,-1.94 4.03,-3.57 0.78,-1.65 1.17,-3.39 1.17,-5.25 0,-2.87 -0.79,-5.1 -2.38,-6.72 -1.59,-1.6 -3.65,-2.41 -6.16,-2.41 -1.05,0 -2.25,0.21 -3.58,0.62l0 18.41zm59.08 25.13c-0.94,0 -4.82,-0.07 -11.63,-0.21l-7.09 0.04 -4.15 -0.07c-0.99,0 -1.61,-0.06 -1.85,-0.19 -0.25,-0.12 -0.37,-0.4 -0.37,-0.83 0,-0.65 0.46,-0.98 1.39,-0.98 1.77,0 3.06,-0.32 3.88,-0.96 0.82,-0.64 1.34,-1.82 1.55,-3.54 0.22,-1.72 0.42,-5.13 0.61,-10.26 0.18,-5.12 0.27,-9.84 0.27,-14.14 0,-6.06 -0.27,-9.78 -0.82,-11.17 -0.55,-1.38 -1.91,-2.13 -4.07,-2.24 -0.78,-0.07 -1.16,-0.41 -1.16,-1.02 0,-0.61 0.34,-0.91 1.03,-0.91 0.41,0 1.79,0.13 4.15,0.39 2.62,0.26 4.44,0.39 5.48,0.39l12.2 -0.35c4.07,0 8,0.83 11.78,2.49 3.78,1.66 6.77,4.37 9,8.13 2.22,3.76 3.32,8.02 3.32,12.78 0,3.53 -0.65,6.81 -1.95,9.87 -1.3,3.05 -3.18,5.62 -5.64,7.7 -2.47,2.08 -4.92,3.45 -7.36,4.1 -2.43,0.65 -5.28,0.98 -8.56,0.98zm-2.2 -2.45c4.52,0 8.09,-1.68 10.71,-5.06 2.62,-3.36 3.94,-8.18 3.94,-14.43 0,-6.35 -1.42,-11.59 -4.25,-15.7 -2.82,-4.11 -6.84,-6.17 -12.05,-6.17 -1.78,0 -2.85,0.11 -3.21,0.33 -0.36,0.22 -0.58,0.44 -0.66,0.67 -0.09,0.23 -0.22,2.8 -0.39,7.7l-0.38 11.66c-0.07,2.86 -0.1,6.41 -0.1,10.65 0,3.19 0.13,5.39 0.39,6.59 0.25,1.2 0.82,2.13 1.7,2.78 0.89,0.65 2.32,0.98 4.29,0.98zm36.7 -43.6c0.76,0 2.3,0.07 4.64,0.2 1.78,0.11 3.19,0.15 4.25,0.15l9.88 -0.35c0.83,0 1.25,0.3 1.25,0.92 0,0.56 -0.37,0.88 -1.13,0.97 -1.7,0.19 -2.83,0.51 -3.4,1.01 -0.57,0.5 -1.01,1.64 -1.32,3.41 -0.32,1.79 -0.47,5.81 -0.47,12.09 0,7.21 0.11,12.79 0.33,16.73 0.21,3.94 0.65,6.37 1.31,7.29 0.66,0.92 1.76,1.39 3.29,1.39 1.06,0 1.59,0.3 1.59,0.9 0,0.81 -0.57,1.2 -1.71,1.2 -0.32,0 -0.79,-0.01 -1.42,-0.04 -4.04,-0.3 -6.81,-0.45 -8.29,-0.45 -3.24,0 -5.64,0.09 -7.19,0.29 -0.81,0.08 -1.39,0.13 -1.74,0.13 -0.8,0 -1.2,-0.33 -1.2,-0.98 0,-0.51 0.33,-0.82 0.99,-0.91 1.82,-0.26 3.04,-0.79 3.68,-1.62 0.62,-0.83 1.01,-2.84 1.13,-6 0.13,-3.18 0.2,-8.1 0.2,-14.79 0,-7.05 -0.12,-11.76 -0.35,-14.15 -0.24,-2.38 -0.62,-3.84 -1.17,-4.39 -0.54,-0.55 -1.58,-0.89 -3.12,-1.03 -0.81,-0.07 -1.22,-0.42 -1.22,-1.06 0,-0.6 0.39,-0.9 1.19,-0.9zm47.26 -1.12l2.32 0c2.82,6.52 6.82,16.79 11.98,30.79 2.38,6.44 4.02,10.34 4.92,11.71 0.89,1.37 2.32,2.2 4.26,2.5 0.65,0.09 0.97,0.39 0.97,0.9 0,0.71 -0.42,1.06 -1.25,1.06 -0.45,0 -1.61,-0.08 -3.5,-0.24 -2.23,-0.21 -4.1,-0.32 -5.62,-0.32 -1.48,0 -3.41,0.09 -5.78,0.28 -1.78,0.14 -2.95,0.21 -3.5,0.21 -0.99,0 -1.48,-0.33 -1.48,-0.98 0,-0.49 0.34,-0.77 1.03,-0.84 2.63,-0.26 3.95,-1.37 3.95,-3.34 0,-0.92 -0.39,-2.61 -1.17,-5.06 -0.78,-2.44 -1.61,-4.67 -2.5,-6.67 -1.38,-0.02 -2.47,-0.04 -3.24,-0.04 -4.3,0 -7.65,0.01 -10.05,0.04 -1.85,5.38 -2.79,8.95 -2.79,10.69 0,1.25 0.46,2.21 1.38,2.9 0.92,0.69 1.92,1.09 3,1.2 0.82,0.09 1.23,0.44 1.23,1.05 0,0.61 -0.44,0.91 -1.32,0.91 -0.35,0 -1.25,-0.05 -2.71,-0.14 -1.89,-0.14 -3.27,-0.21 -4.13,-0.21 -1.69,0 -3.31,0.11 -4.83,0.33 -0.38,0.06 -0.71,0.09 -0.97,0.09 -0.8,0 -1.2,-0.35 -1.2,-1.04 0,-0.5 0.26,-0.83 0.78,-0.99 1.28,-0.39 2.29,-0.85 3.03,-1.42 0.73,-0.56 1.51,-1.65 2.36,-3.25 0.86,-1.61 1.87,-4.19 3.04,-7.75 2.64,-7.99 6.57,-18.77 11.8,-32.37zm-2.21 11.92l-5.48 15.28 11.26 -0.18c-0.6,-1.77 -1.52,-4.2 -2.77,-7.3 -1.35,-3.39 -2.35,-5.99 -3.02,-7.8zm-625.78 156.81c-1.59,0 -8.13,-0.12 -19.61,-0.36l-11.96 0.06 -7 -0.12c-1.67,0 -2.72,-0.1 -3.13,-0.32 -0.43,-0.2 -0.63,-0.67 -0.63,-1.4 0,-1.11 0.78,-1.66 2.35,-1.66 2.98,0 5.17,-0.53 6.56,-1.62 1.39,-1.08 2.26,-3.07 2.61,-5.97 0.37,-2.9 0.7,-8.65 1.02,-17.3 0.32,-8.63 0.46,-16.59 0.46,-23.84 0,-10.23 -0.46,-16.49 -1.39,-18.84 -0.93,-2.32 -3.22,-3.59 -6.87,-3.78 -1.31,-0.12 -1.96,-0.69 -1.96,-1.71 0,-1.02 0.58,-1.54 1.74,-1.54 0.68,0 3.02,0.22 7,0.65 4.43,0.43 7.5,0.65 9.24,0.65l20.57 -0.59c6.87,0 13.5,1.4 19.87,4.2 6.37,2.8 11.42,7.37 15.18,13.72 3.74,6.34 5.61,13.54 5.61,21.56 0,5.95 -1.09,11.49 -3.29,16.65 -2.19,5.14 -5.37,9.48 -9.52,12.99 -4.17,3.51 -8.3,5.81 -12.41,6.92 -4.09,1.1 -8.91,1.66 -14.44,1.66zm-3.72 -4.14c7.63,0 13.65,-2.84 18.07,-8.53 4.43,-5.68 6.65,-13.79 6.65,-24.34 0,-10.72 -2.39,-19.55 -7.17,-26.49 -4.76,-6.94 -11.54,-10.4 -20.33,-10.4 -3,0 -4.81,0.18 -5.4,0.55 -0.61,0.38 -0.98,0.75 -1.11,1.12 -0.15,0.39 -0.37,4.73 -0.67,12.99l-0.65 19.67c-0.11,4.83 -0.17,10.82 -0.17,17.97 0,5.38 0.22,9.08 0.67,11.11 0.42,2.03 1.39,3.59 2.87,4.69 1.5,1.1 3.91,1.66 7.24,1.66zm114.2 -72.83c1.17,6.03 2.3,12.04 3.43,18.07 0,1.12 -0.52,1.68 -1.57,1.68 -0.57,0 -1.22,-0.53 -1.94,-1.62 -3.72,-5.79 -7.15,-9.6 -10.24,-11.45 -3.09,-1.85 -7.54,-2.78 -13.37,-2.78 -3.26,0 -6.41,0.3 -9.44,0.87 -0.65,6.82 -0.98,14.29 -0.98,22.41 0,1.4 0.04,3.72 0.11,6.99l4.13 0.06c2.57,0 4.8,-0.38 6.67,-1.12 1.87,-0.75 3.44,-2.35 4.76,-4.79 1.3,-2.44 2.04,-4.02 2.22,-4.71 0.33,-1.24 0.89,-1.85 1.69,-1.85 1.02,0 1.54,0.45 1.54,1.38 0,0.28 -0.04,0.59 -0.11,0.93 -0.45,2.4 -0.67,9.54 -0.67,21.44 0,1.66 0.15,3.17 0.43,4.51 0.09,0.39 0.13,0.71 0.13,0.98 0,1.08 -0.58,1.62 -1.72,1.62 -0.79,0 -1.41,-1.02 -1.83,-3.07 -0.72,-3.59 -2.39,-6.33 -4.96,-8.2 -2.57,-1.87 -6.65,-2.84 -12.2,-2.92 -0.18,6.46 -0.28,10.72 -0.28,12.75 0,8.77 0.13,13.99 0.39,15.65 0.24,1.66 1.17,3 2.76,4 1.59,1.02 4.3,1.54 8.11,1.54 13.8,0 22.87,-4.67 27.22,-13.99 0.61,-1.32 1.26,-1.97 1.96,-1.97 1.04,0 1.55,0.45 1.55,1.38 0,0.63 -0.11,1.42 -0.33,2.38l-3.52 16.57 -19.65 -0.06c-5.54,-0.04 -10.7,-0.18 -15.5,-0.41 -4.8,-0.24 -8.54,-0.36 -11.26,-0.36 -3.04,0 -7.61,0.16 -13.72,0.49 -0.76,0.06 -1.33,0.1 -1.69,0.1 -1.7,0 -2.55,-0.59 -2.55,-1.79 0,-1.08 0.68,-1.64 2.07,-1.64 3.52,0 5.89,-1.01 7.09,-3.04 1.22,-2.01 1.83,-6.13 1.83,-12.35l0.33 -29.66c0,-10.15 -0.13,-16.38 -0.35,-18.7 -0.24,-2.33 -0.87,-3.9 -1.89,-4.73 -1,-0.83 -2.91,-1.46 -5.68,-1.87 -1.17,-0.16 -1.74,-0.69 -1.74,-1.6 0,-1.14 0.67,-1.72 2,-1.72l13.07 0.43 43.72 0.16zm131.7 2.13c0.46,-0.49 0.95,-1.26 1.41,-2.3 0.56,-1.22 1.17,-1.83 1.85,-1.83 0.98,0 1.59,0.85 1.82,2.54l1.89 15.86 0.22 1.91c0,1.04 -0.5,1.56 -1.48,1.56 -0.72,0 -1.26,-0.18 -1.57,-0.55 -0.33,-0.37 -0.95,-1.56 -1.85,-3.57 -1.56,-3.43 -4.13,-6.52 -7.7,-9.26 -3.57,-2.74 -7.18,-4.12 -10.79,-4.12 -3.5,0 -6.43,1.07 -8.76,3.21 -2.33,2.13 -3.5,4.83 -3.5,8.06 0,2.58 1.09,4.91 3.26,7 2.19,2.07 6.37,4.04 12.55,5.91 9.72,2.94 16.3,6.56 19.74,10.88 3.41,4.3 5.11,9.08 5.11,14.35 0,5.38 -1.24,9.91 -3.74,13.56 -2.5,3.65 -5.48,6.52 -8.96,8.61 -3.48,2.11 -7.93,3.15 -13.35,3.15 -3.07,0 -6.26,-0.47 -9.55,-1.4 -3.3,-0.92 -6.7,-2.32 -10.2,-4.18 -0.72,0.87 -1.35,1.99 -1.85,3.39 -0.58,1.54 -1.3,2.31 -2.17,2.31 -0.89,0 -1.43,-1.04 -1.61,-3.11l-1.56 -20.93c-0.08,-0.91 -0.11,-1.48 -0.11,-1.71 0,-1.12 0.54,-1.67 1.61,-1.67 0.78,0 1.54,0.97 2.26,2.9 2.2,5.79 5.2,10.62 9,14.48 3.76,3.86 8.17,5.79 13.18,5.79 4.28,0 7.72,-1.36 10.35,-4.06 2.61,-2.7 3.93,-5.77 3.93,-9.2 0,-3.43 -1.22,-6.33 -3.65,-8.69 -2.43,-2.35 -6.8,-4.61 -13.09,-6.76 -6.13,-2.11 -10.68,-4.14 -13.65,-6.07 -2.98,-1.91 -5.37,-4.57 -7.15,-7.92 -1.8,-3.37 -2.68,-6.8 -2.68,-10.25 0,-6.05 2.2,-11.19 6.59,-15.43 4.39,-4.24 10.35,-6.35 17.91,-6.35 4.07,0 9.52,1.3 16.31,3.9zm62.1 -3.66c7.31,0 13.7,1.56 19.18,4.67 5.48,3.11 9.87,7.63 13.19,13.54 3.32,5.89 4.96,12.34 4.96,19.29 0,10.76 -3.78,20.32 -11.33,28.63 -7.55,8.33 -16.93,12.49 -28.11,12.49 -10.17,0 -18.85,-3.45 -26.07,-10.33 -7.2,-6.88 -10.81,-16.2 -10.81,-27.92 0,-11.07 3.74,-20.57 11.2,-28.49 7.46,-7.92 16.74,-11.88 27.8,-11.88zm18.89 39.27c0,-11.65 -1.87,-20.42 -5.59,-26.31 -3.72,-5.89 -8.45,-8.83 -14.15,-8.83 -5.68,0 -10.39,2.96 -14.11,8.87 -3.72,5.89 -5.59,14.66 -5.59,26.27 0,11.17 1.78,19.83 5.35,25.97 3.56,6.17 8.33,9.24 14.35,9.24 5.31,0 9.92,-2.78 13.85,-8.33 3.93,-5.56 5.89,-14.52 5.89,-26.88zm69.12 -3.29c7.48,1.7 13.09,4.28 16.81,7.76 3.72,3.49 5.59,7.86 5.59,13.18 0,4.41 -1.37,8.39 -4.09,11.92 -2.74,3.55 -6.09,5.91 -10.05,7.13 -3.96,1.2 -9.74,1.81 -17.3,1.81 -1.85,0 -4.74,-0.1 -8.7,-0.32 -3.26,-0.18 -5.8,-0.28 -7.65,-0.28 -2.46,0 -5.78,0.16 -9.94,0.49 -1.7,0.14 -2.89,0.22 -3.59,0.22 -1.41,0 -2.11,-0.55 -2.11,-1.67 0,-0.87 0.56,-1.36 1.69,-1.52 2.28,-0.32 3.94,-0.73 4.98,-1.24 1.02,-0.51 1.85,-1.38 2.5,-2.62 0.63,-1.22 0.95,-3.21 0.95,-5.99l0.42 -26.88c0,-8.38 -0.07,-15.06 -0.26,-20.06 -0.18,-5.03 -0.5,-8.26 -0.96,-9.71 -0.45,-1.46 -1.07,-2.46 -1.89,-3.06 -0.81,-0.57 -2.04,-0.91 -3.67,-1.02 -1.45,-0.08 -2.39,-0.26 -2.8,-0.53 -0.43,-0.26 -0.63,-0.71 -0.63,-1.34 0,-0.81 0.42,-1.3 1.28,-1.5 0.85,-0.2 3.24,-0.3 7.18,-0.3 7.24,0 14.02,-0.28 20.31,-0.83 3.72,-0.31 6.7,-0.47 8.96,-0.47 6.65,0 11.98,1.56 15.96,4.69 3.98,3.13 5.96,7.33 5.96,12.59 0,9.06 -6.31,15.59 -18.96,19.53zm-14.93 -0.87c12.44,0 18.67,-5.7 18.67,-17.09 0,-5.03 -1.11,-8.77 -3.32,-11.25 -2.2,-2.46 -4.78,-3.7 -7.7,-3.7 -2.09,0 -4.65,0.53 -7.65,1.62 -0.3,3.86 -0.43,7.92 -0.43,12.14 0,3.57 0.13,9.66 0.43,18.29zm-0.02 4.49c-0.28,8.1 -0.43,14.84 -0.43,20.24 0,7.13 0.28,11.23 0.82,12.26 0.54,1.04 2.26,1.56 5.16,1.56 5.21,0 9.11,-1.48 11.69,-4.44 2.59,-2.96 3.89,-7.02 3.89,-12.2 0,-5.16 -1.33,-9.42 -4.02,-12.73 -2.69,-3.31 -6.76,-4.99 -12.22,-4.99 -1.18,0 -2.82,0.1 -4.89,0.3zm87.82 -1.08c4.87,0.73 8.89,2.3 12.05,4.71 3.17,2.42 5.54,7.21 7.13,14.37 1.5,6.72 3.11,11.13 4.81,13.28 1.7,2.13 4.11,3.29 7.2,3.49 1.7,0.12 2.55,0.69 2.55,1.73 0,1.12 -1.37,1.7 -4.13,1.7l-20.95 -0.59c-2.16,-2.31 -3.65,-6.42 -4.44,-12.36 -1.02,-7.58 -2.07,-12.93 -3.17,-16.06 -1.07,-3.11 -2.7,-5.34 -4.89,-6.68 -2.17,-1.36 -4.69,-2.03 -7.56,-2.03 -0.83,0 -1.98,0.06 -3.43,0.18 0,13.62 0.04,21.99 0.13,25.15 0.09,3.15 0.68,5.42 1.78,6.8 1.09,1.36 3.15,2.13 6.2,2.29 1.63,0.12 2.44,0.69 2.44,1.73 0,1.04 -0.7,1.58 -2.11,1.58l-16.67 -0.59c-2.26,0 -5.13,0.1 -8.63,0.3 -3.22,0.2 -5.28,0.3 -6.15,0.3 -1.48,0 -2.22,-0.57 -2.22,-1.7 0,-1.08 0.65,-1.62 1.96,-1.62 2.02,0 3.91,-0.53 5.63,-1.62 1.7,-1.08 2.57,-5.65 2.57,-13.73l-0.06 -10.76 0.06 -20.79c0,-10.72 -0.45,-17.28 -1.33,-19.65 -0.87,-2.38 -3.26,-3.61 -7.11,-3.69 -1.52,-0.04 -2.28,-0.59 -2.28,-1.66 0,-1.1 1.02,-1.66 3.04,-1.66 10.2,0 18.83,-0.23 25.92,-0.71 3.15,-0.24 5.98,-0.36 8.52,-0.36 8.21,0 14.63,1.75 19.3,5.24 4.67,3.51 7,8.06 7,13.72 0,3.78 -1.11,7.17 -3.32,10.19 -2.2,3.01 -4.96,5.26 -8.26,6.72 -3.31,1.48 -7.18,2.4 -11.63,2.78zm-14.8 -2.41c0.95,0.04 1.65,0.06 2.11,0.06 3.17,0 6.35,-0.63 9.55,-1.89 3.2,-1.26 5.47,-3.27 6.8,-6.03 1.31,-2.78 1.98,-5.72 1.98,-8.85 0,-4.85 -1.33,-8.61 -4.02,-11.33 -2.68,-2.7 -6.15,-4.06 -10.39,-4.06 -1.78,0 -3.8,0.36 -6.04,1.04l0 31.06z"/>
   <path class="fil0" d="M582 655.48l3.91 0c4.76,11 11.5,28.32 20.2,51.94 4.02,10.86 6.78,17.44 8.3,19.75 1.5,2.31 3.91,3.7 7.18,4.22 1.09,0.16 1.63,0.65 1.63,1.52 0,1.2 -0.7,1.79 -2.11,1.79 -0.76,0 -2.72,-0.14 -5.91,-0.41 -3.76,-0.36 -6.92,-0.53 -9.48,-0.53 -2.5,0 -5.76,0.16 -9.76,0.47 -3,0.23 -4.98,0.35 -5.91,0.35 -1.67,0 -2.5,-0.55 -2.5,-1.65 0,-0.83 0.57,-1.3 1.74,-1.42 4.44,-0.43 6.67,-2.31 6.67,-5.64 0,-1.56 -0.67,-4.4 -1.98,-8.53 -1.32,-4.12 -2.72,-7.88 -4.22,-11.25 -2.33,-0.04 -4.17,-0.06 -5.46,-0.06 -7.26,0 -12.91,0.02 -16.94,0.06 -3.13,9.08 -4.7,15.09 -4.7,18.03 0,2.11 0.78,3.72 2.33,4.89 1.56,1.16 3.24,1.83 5.06,2.03 1.39,0.16 2.07,0.75 2.07,1.77 0,1.02 -0.74,1.54 -2.22,1.54 -0.59,0 -2.11,-0.08 -4.57,-0.24 -3.19,-0.24 -5.52,-0.36 -6.96,-0.36 -2.85,0 -5.57,0.18 -8.15,0.55 -0.65,0.1 -1.2,0.16 -1.63,0.16 -1.35,0 -2.02,-0.59 -2.02,-1.75 0,-0.85 0.44,-1.4 1.31,-1.67 2.17,-0.65 3.87,-1.44 5.11,-2.4 1.22,-0.95 2.55,-2.78 3.98,-5.48 1.44,-2.72 3.15,-7.08 5.13,-13.07 4.46,-13.48 11.09,-31.67 19.91,-54.61zm-3.72 20.1l-9.24 25.78 19 -0.3c-1.02,-3 -2.57,-7.09 -4.67,-12.32 -2.28,-5.72 -3.96,-10.11 -5.09,-13.16zm112.7 58.88c-9.04,-0.47 -23.11,-0.71 -42.2,-0.71 -6.65,0 -12.06,0.2 -16.22,0.59 -1,0.08 -1.74,0.12 -2.22,0.12 -1.37,0 -2.05,-0.57 -2.05,-1.73 0,-0.55 0.18,-0.93 0.54,-1.14 0.37,-0.22 1.24,-0.43 2.65,-0.67 2.24,-0.33 3.94,-1.04 5.13,-2.11 1.18,-1.06 2.04,-2.64 2.52,-4.75 0.48,-2.09 0.76,-7.45 0.83,-16.08 0.08,-8.61 0.11,-18.88 0.11,-30.74 0,-4.75 -0.33,-8.2 -0.98,-10.33 -0.65,-2.15 -1.57,-3.71 -2.78,-4.69 -1.22,-0.98 -2.93,-1.54 -5.13,-1.66 -1.56,-0.08 -2.33,-0.69 -2.33,-1.83 0,-1.14 0.89,-1.71 2.65,-1.71l17.98 0.59c2.78,0 6.65,-0.16 11.63,-0.45 1.82,-0.1 3.04,-0.14 3.69,-0.14 1.52,0 2.28,0.55 2.28,1.66 0,0.61 -0.24,1.04 -0.72,1.28 -0.5,0.26 -1.7,0.53 -3.65,0.85 -2.42,0.33 -4.13,0.98 -5.11,1.95 -1,0.97 -1.67,2.66 -2,5.04 -0.35,2.38 -0.52,7.77 -0.52,16.1l0 35.14c0.04,5.4 0.48,8.61 1.37,9.64 0.87,1.02 2.52,1.54 4.94,1.54 5.96,0 10.39,-0.49 13.28,-1.48 2.91,-0.97 5.68,-2.76 8.31,-5.34 2.63,-2.56 5.44,-6.9 8.46,-12.97 0.59,-1.24 1.22,-1.85 1.85,-1.85 0.96,0 1.44,0.55 1.44,1.68 0,2.5 -1.24,10.56 -3.74,24.22z"/>
   <path class="fil1" d="M1.01 374.6l694.67 0 0 -177.25c-79.8,-98.26 -205.68,-161.67 -347.34,-161.67 -141.65,0 -267.54,63.41 -347.34,161.67l0 177.25z"/>
   <polygon class="fil1" points="-0,387.11 695.02,387.11 695.02,400.47 -0,400.47 "/>
   <path class="fil2" d="M347.77 0c105.89,0 191.73,85.84 191.73,191.73 0,105.89 -85.84,191.73 -191.73,191.73 -105.89,0 -191.73,-85.84 -191.73,-191.73 0,-105.89 85.84,-191.73 191.73,-191.73z"/>
   <path class="fil2" d="M347.77 10.42c100.13,0 181.31,81.17 181.31,181.31 0,100.13 -81.17,181.31 -181.31,181.31 -100.13,0 -181.31,-81.17 -181.31,-181.31 0,-100.13 81.17,-181.31 181.31,-181.31z"/>
   <path class="fil3" d="M347.77 17.51c96.22,0 174.22,78 174.22,174.22 0,96.22 -78,174.22 -174.22,174.22 -96.22,0 -174.22,-78 -174.22,-174.22 0,-96.22 78,-174.22 174.22,-174.22z"/>
   <path class="fil2" d="M347.77 25.16c91.99,0 166.57,74.57 166.57,166.57 0,91.99 -74.57,166.57 -166.57,166.57 -91.99,0 -166.57,-74.57 -166.57,-166.57 0,-91.99 74.57,-166.57 166.57,-166.57z"/>
   <path class="fil3" d="M219.8 218.38c0.99,19.04 21.14,37.96 39.01,41.2 77.56,14.05 93.82,-111.68 -1.79,-104.5 5.03,-13.54 15.24,-24.12 26.34,-31.38 9.62,-6.3 17.14,-11.65 39.27,-14.91l-0.01 -13.87c-48.18,2.47 -92.73,43.17 -87.95,95.76 13.48,-36.03 82.53,-24.39 72.7,24.35 -3.22,15.63 -14.02,26.66 -29.83,29.38 -12.7,2.18 -26.75,-1.74 -35.88,-10.98 -3.49,-3.54 -8.04,-10.36 -9.99,-15.05l-11.88 0z"/>
   <path class="fil3" d="M475.75 218.38c-0.99,19.04 -21.14,37.96 -39.01,41.2 -77.56,14.05 -93.82,-111.68 1.79,-104.5 -5.03,-13.54 -15.24,-24.12 -26.34,-31.38 -9.63,-6.3 -17.14,-11.65 -39.27,-14.91l0.01 -13.87c48.18,2.47 92.73,43.17 87.94,95.76 -13.48,-36.03 -82.53,-24.39 -72.7,24.35 3.22,15.63 14.02,26.66 29.83,29.38 12.7,2.18 26.76,-1.74 35.88,-10.98 3.49,-3.54 8.04,-10.36 9.99,-15.05l11.88 0z"/>
   <polygon class="fil3" points="341.2,247.52 354.34,247.52 354.34,260.65 341.2,260.65 "/>
   <polygon class="fil3" points="341.2,274.23 354.34,274.23 354.34,287.36 341.2,287.36 "/>
   <polygon class="fil3" points="341.2,300.94 354.34,300.94 354.34,314.08 341.2,314.08 "/>
   <polygon class="fil3" points="341.52,73.19 354.65,73.19 354.65,234.08 341.52,234.08 "/>
   <polygon class="fil3" points="298.44,151.62 298.44,138.49 397.1,138.49 397.1,151.62 "/>
  </g>
 </g>
</svg>
