<?xml version="1.0" encoding="UTF-8"?>
<!DOCTYPE svg PUBLIC "-//W3C//DTD SVG 1.1//EN" "http://www.w3.org/Graphics/SVG/1.1/DTD/svg11.dtd">
<!-- Creator: CorelDRAW 2019 (64 Bit) -->
<svg xmlns="http://www.w3.org/2000/svg" xml:space="preserve" width="76.0753mm" height="21.3091mm" version="1.1" style="shape-rendering:geometricPrecision; text-rendering:geometricPrecision; image-rendering:optimizeQuality; fill-rule:evenodd; clip-rule:evenodd"
viewBox="0 0 7078654 1982769"
 xmlns:xlink="http://www.w3.org/1999/xlink">
 <defs>
  <style type="text/css">
   <![CDATA[
    .fil1 {fill:#969799}
    .fil2 {fill:#BE2D31}
    .fil3 {fill:white}
    .fil0 {fill:#333333;fill-rule:nonzero}
   ]]>
  </style>
 </defs>
 <g id="Camada_x0020_1">
  <metadata id="CorelCorpID_0Corel-Layer"/>
  <g id="_2231194982416">
   <g>
    <path class="fil0" d="M3857416 429966c2298,-2438 4680,-6244 6969,-11408 2754,-6048 5778,-9072 9175,-9072 4857,0 7881,4187 8988,12580l9342 78542 1107 9463c0,5173 -2475,7714 -7341,7714 -3573,0 -6234,-884 -7788,-2736 -1647,-1852 -4680,-7704 -9175,-17661 -7695,-16972 -20443,-32297 -38131,-45854 -17698,-13566 -35572,-20396 -53456,-20396 -17326,0 -31804,5276 -43370,15902 -11547,10542 -17316,23904 -17316,39908 0,12785 5406,24295 16135,34642 10812,10245 31534,19996 62156,29264 48134,14543 80682,32492 97738,53856 16860,21271 25300,44979 25300,71033 0,26630 -6141,49074 -18517,67125 -12385,18051 -27142,32297 -44375,42635 -17232,10440 -39238,15613 -66101,15613 -15223,0 -30985,-2345 -47315,-6932 -16311,-4578 -33190,-11510 -50506,-20675 -3573,4290 -6699,9854 -9175,16777 -2838,7611 -6420,11417 -10728,11417 -4401,0 -7053,-5173 -7974,-15418l-7704 -103618c-363,-4485 -549,-7314 -549,-8486 0,-5564 2661,-8291 7974,-8291 3852,0 7621,4783 11194,14339 10905,28687 25756,52591 44551,71712 18610,19121 40439,28687 65273,28687 21187,0 38233,-6737 51260,-20098 12915,-13371 19428,-28584 19428,-45566 0,-16972 -6048,-31320 -18061,-43025 -12003,-11612 -33646,-22834 -64817,-33469 -30343,-10440 -52898,-20489 -67571,-30045 -14757,-9463 -26584,-22639 -35386,-39220 -8895,-16693 -13297,-33665 -13297,-50739 0,-29952 10915,-55419 32641,-76392 21727,-20982 51251,-31422 88656,-31422 20164,0 47120,6439 80766,19317zm253686 -23411l19354 0c23560,54442 56927,140205 100027,257185 19884,53763 33544,86349 41062,97766 7435,11417 19354,18340 35582,20880 5397,782 8058,3219 8058,7509 0,5955 -3480,8877 -10449,8877 -3759,0 -13473,-679 -29245,-2047 -18610,-1759 -34288,-2633 -46933,-2633 -12385,0 -28519,782 -48320,2345 -14850,1163 -24667,1749 -29245,1749 -8253,0 -12385,-2726 -12385,-8188 0,-4103 2847,-6439 8626,-7025 21997,-2149 33004,-11417 33004,-27905 0,-7714 -3303,-21764 -9807,-42253 -6513,-20387 -13483,-39024 -20908,-55708 -11547,-195 -20629,-288 -27040,-288 -35944,0 -63915,93 -83901,288 -15492,44979 -23281,74736 -23281,89280 0,10431 3843,18433 11547,24192 7704,5760 16051,9072 25039,10049 6867,782 10263,3703 10263,8784 0,5071 -3666,7611 -10998,7611 -2940,0 -10459,-391 -22648,-1172 -15772,-1172 -27328,-1759 -34474,-1759 -14125,0 -27598,875 -40336,2736 -3210,484 -5964,772 -8067,772 -6699,0 -9993,-2922 -9993,-8681 0,-4196 2196,-6923 6504,-8291 10728,-3219 19168,-7118 25300,-11901 6048,-4690 12655,-13762 19717,-27123 7155,-13464 15586,-35033 25393,-64687 22099,-66734 54917,-156795 98556,-270360zm-18424 99515l-45752 127625 94072 -1470c-5043,-14832 -12748,-35126 -23113,-60974 -11268,-28296 -19615,-50051 -25207,-65180zm337392 -89270c85986,103618 157688,186840 215080,249573 177,-12878 270,-21271 270,-25076l279 -113267c0,-26640 -1470,-45761 -4308,-57271 -2847,-11612 -8895,-20685 -18247,-27319 -9268,-6644 -20080,-10635 -32464,-11715 -6597,-782 -9891,-3703 -9891,-8774 0,-5471 3024,-8198 9072,-8198 3396,0 7788,391 13120,1070 10161,1265 25114,1852 44644,1852 24658,0 43360,-679 56201,-2140 5406,-493 9900,-782 13659,-782 6783,0 10170,2726 10170,8291 0,5369 -4578,8588 -13650,9565 -11194,1070 -21727,6141 -31450,15120 -9714,8877 -14581,26537 -14581,52786l1377 161569 -1842 121567c0,10440 -3024,15707 -9072,15707 -1554,0 -3480,-586 -5583,-1759 -2112,-1070 -14488,-14339 -36959,-39508 -22546,-25272 -56015,-64399 -100473,-117473 -44477,-52982 -75639,-91029 -93606,-114151 -372,5173 -558,53075 -558,143620 0,27998 1107,49948 3396,65859 2205,15902 9258,27412 20992,34530 11733,7127 22378,10738 31906,10738 6150,0 9175,2438 9175,7314 0,5657 -3210,8495 -9630,8495 -4122,0 -9351,-298 -15586,-977 -10728,-1275 -24388,-1954 -41071,-1954 -26593,0 -45938,875 -57857,2633 -7518,977 -12924,1461 -16135,1461 -6969,0 -10449,-3117 -10449,-9361 0,-4494 5676,-7221 16963,-8198 20257,-1759 33004,-9175 38047,-22248 5136,-13166 7695,-31125 7695,-53754 0,-98352 -456,-158451 -1461,-180308 -1014,-21950 -7518,-41760 -19438,-59420 -12012,-17754 -26500,-28287 -43370,-31701 -7053,-1368 -10542,-4392 -10542,-8979 0,-6346 3675,-9463 10998,-9463 1833,0 4410,195 7797,586 4131,391 11557,586 22369,586 23290,0 44924,288 65013,875zm328031 -3219c92964,2726 161727,4094 206278,4094 33925,0 71145,-977 111760,-3024 14590,-679 26407,-1070 35768,-1070 3573,0 9621,93 17968,288 1284,7807 2931,23904 4857,48301l4029 45072c0,7416 -2838,11129 -8616,11129 -4401,0 -8709,-4587 -12841,-13659 -6774,-15418 -15492,-28687 -26212,-39713 -10635,-11026 -23011,-18340 -37135,-21950 -14115,-3610 -37405,-5471 -69860,-5471 -2838,29273 -4308,65859 -4308,109769 0,44877 819,88200 2391,129960 1638,41760 3573,66929 5946,75518 2298,8579 6234,14925 11836,18926 5499,4001 18610,6727 39238,8291 6969,586 10449,3219 10449,7900 0,5276 -3024,7909 -9175,7909l-7509 -298 -55568 -1461c-43351,0 -69674,195 -79016,484l-33832 1275c-2670,0 -8253,-195 -16693,-586 -4122,-977 -6132,-3322 -6132,-7025 0,-5462 3387,-8198 10161,-8198 15958,0 27877,-3508 35944,-10635 8077,-7025 13027,-18247 14860,-33562 1926,-15418 2838,-48785 2838,-100101 0,-81175 -2298,-147230 -6969,-198164 -29524,0 -50786,1275 -63989,3806 -13120,2633 -25765,9565 -37871,21075 -12189,11519 -22090,26342 -29794,44496 -3117,7221 -6606,10831 -10552,10831 -6132,0 -9258,-2829 -9258,-8588 0,-1656 1107,-14246 3396,-37563 2205,-23318 4773,-42635 7611,-58053zm536785 -7025l19354 0c23560,54442 56927,140205 100027,257185 19884,53763 33544,86349 41062,97766 7435,11417 19354,18340 35582,20880 5406,782 8058,3219 8058,7509 0,5955 -3480,8877 -10449,8877 -3759,0 -13473,-679 -29245,-2047 -18610,-1759 -34279,-2633 -46933,-2633 -12385,0 -28519,782 -48320,2345 -14850,1163 -24667,1749 -29245,1749 -8253,0 -12385,-2726 -12385,-8188 0,-4103 2847,-6439 8626,-7025 21997,-2149 33004,-11417 33004,-27905 0,-7714 -3303,-21764 -9807,-42253 -6513,-20387 -13483,-39024 -20908,-55708 -11547,-195 -20629,-288 -27040,-288 -35944,0 -63905,93 -83901,288 -15492,44979 -23281,74736 -23281,89280 0,10431 3852,18433 11547,24192 7704,5760 16051,9072 25039,10049 6867,782 10263,3703 10263,8784 0,5071 -3666,7611 -10998,7611 -2940,0 -10459,-391 -22648,-1172 -15772,-1172 -27319,-1759 -34474,-1759 -14125,0 -27598,875 -40336,2736 -3210,484 -5964,772 -8067,772 -6699,0 -9993,-2922 -9993,-8681 0,-4196 2196,-6923 6504,-8291 10728,-3219 19168,-7118 25300,-11901 6057,-4690 12655,-13762 19717,-27123 7155,-13464 15586,-35033 25393,-64687 22099,-66734 54917,-156795 98556,-270360zm-18424 99515l-45752 127625 94072 -1470c-5043,-14832 -12748,-35126 -23113,-60974 -11268,-28296 -19615,-50051 -25207,-65180zm677436 -63124c3759,-4978 7704,-10440 11817,-16488 4866,-7416 8988,-11119 12199,-11119 3666,0 6048,968 7053,2829 1107,1945 2019,7807 2754,17661l5499 88982 558 11408c0,7611 -2847,11417 -8533,11417 -3759,0 -6783,-3117 -9072,-9361 -7332,-20201 -20638,-42644 -39704,-67227 -19159,-24686 -43277,-36977 -72419,-36977 -21550,0 -39611,6634 -54284,19903 -14664,13176 -26035,31320 -34195,54340 -8160,23132 -12282,50739 -12282,82934 0,55029 11361,98836 34195,131328 22741,32492 51065,48683 84981,48683 36773,0 70512,-23513 101134,-70540 3666,-5657 7239,-8486 10542,-8486 5592,0 8439,3024 8439,9072 0,12589 -14125,32585 -42365,59904 -28231,27421 -63533,41081 -105982,41081 -56285,0 -100762,-18442 -133301,-55419 -32641,-36977 -48962,-82441 -48962,-136399 0,-53763 16404,-100399 49325,-139907 32911,-39517 74531,-59327 124684,-59327 35395,0 71331,10542 107917,31711zm237626 -36391l19354 0c23560,54442 56927,140205 100027,257185 19884,53763 33544,86349 41062,97766 7435,11417 19354,18340 35582,20880 5406,782 8058,3219 8058,7509 0,5955 -3480,8877 -10449,8877 -3759,0 -13473,-679 -29245,-2047 -18600,-1759 -34279,-2633 -46933,-2633 -12385,0 -28519,782 -48320,2345 -14850,1163 -24667,1749 -29245,1749 -8253,0 -12385,-2726 -12385,-8188 0,-4103 2847,-6439 8626,-7025 21997,-2149 33004,-11417 33004,-27905 0,-7714 -3303,-21764 -9807,-42253 -6513,-20387 -13483,-39024 -20908,-55708 -11547,-195 -20619,-288 -27040,-288 -35944,0 -63905,93 -83892,288 -15502,44979 -23290,74736 -23290,89280 0,10431 3852,18433 11557,24192 7695,5760 16041,9072 25030,10049 6867,782 10263,3703 10263,8784 0,5071 -3666,7611 -10998,7611 -2940,0 -10459,-391 -22648,-1172 -15772,-1172 -27319,-1759 -34474,-1759 -14125,0 -27598,875 -40336,2736 -3210,484 -5964,772 -8067,772 -6699,0 -9993,-2922 -9993,-8681 0,-4196 2196,-6923 6504,-8291 10728,-3219 19168,-7118 25300,-11901 6057,-4690 12655,-13762 19717,-27123 7155,-13464 15586,-35033 25393,-64687 22099,-66734 54917,-156795 98556,-270360zm-18424 99515l-45752 127625 94072 -1470c-5043,-14832 -12748,-35126 -23113,-60974 -11268,-28296 -19615,-50051 -25207,-65180zm446482 -76104c2298,-2438 4680,-6244 6969,-11408 2754,-6048 5778,-9072 9175,-9072 4857,0 7881,4187 8988,12580l9342 78542 1107 9463c0,5173 -2475,7714 -7341,7714 -3573,0 -6234,-884 -7788,-2736 -1656,-1852 -4680,-7704 -9175,-17661 -7704,-16972 -20443,-32297 -38140,-45854 -17688,-13566 -35563,-20396 -53447,-20396 -17326,0 -31804,5276 -43370,15902 -11547,10542 -17316,23904 -17316,39908 0,12785 5406,24295 16135,34642 10812,10245 31534,19996 62156,29264 48134,14543 80682,32492 97728,53856 16870,21271 25309,44979 25309,71033 0,26630 -6141,49074 -18517,67125 -12385,18051 -27142,32297 -44375,42635 -17232,10440 -39238,15613 -66101,15613 -15223,0 -30985,-2345 -47315,-6932 -16311,-4578 -33190,-11510 -50506,-20675 -3582,4290 -6699,9854 -9175,16777 -2838,7611 -6420,11417 -10728,11417 -4401,0 -7053,-5173 -7974,-15418l-7704 -103618c-363,-4485 -549,-7314 -549,-8486 0,-5564 2661,-8291 7974,-8291 3852,0 7611,4783 11194,14339 10896,28687 25756,52591 44551,71712 18610,19121 40429,28687 65273,28687 21187,0 38233,-6737 51251,-20098 12924,-13371 19438,-28584 19438,-45566 0,-16972 -6048,-31320 -18061,-43025 -12003,-11612 -33646,-22834 -64817,-33469 -30352,-10440 -52898,-20489 -67571,-30045 -14757,-9463 -26584,-22639 -35395,-39220 -8886,-16693 -13287,-33665 -13287,-50739 0,-29952 10915,-55419 32641,-76392 21727,-20982 51242,-31422 88656,-31422 20164,0 47120,6439 80766,19317zm253686 -23411l19345 0c23569,54442 56936,140205 100027,257185 19894,53763 33553,86349 41071,97766 7435,11417 19354,18340 35582,20880 5397,782 8058,3219 8058,7509 0,5955 -3480,8877 -10449,8877 -3759,0 -13473,-679 -29245,-2047 -18610,-1759 -34288,-2633 -46933,-2633 -12385,0 -28529,782 -48320,2345 -14860,1163 -24667,1749 -29245,1749 -8253,0 -12385,-2726 -12385,-8188 0,-4103 2847,-6439 8626,-7025 21997,-2149 33004,-11417 33004,-27905 0,-7714 -3303,-21764 -9807,-42253 -6513,-20387 -13483,-39024 -20908,-55708 -11547,-195 -20629,-288 -27049,-288 -35944,0 -63905,93 -83892,288 -15492,44979 -23281,74736 -23281,89280 0,10431 3843,18433 11547,24192 7704,5760 16051,9072 25030,10049 6876,782 10272,3703 10272,8784 0,5071 -3666,7611 -10998,7611 -2940,0 -10459,-391 -22648,-1172 -15772,-1172 -27328,-1759 -34474,-1759 -14125,0 -27598,875 -40336,2736 -3210,484 -5964,772 -8067,772 -6699,0 -9993,-2922 -9993,-8681 0,-4196 2187,-6923 6504,-8291 10728,-3219 19159,-7118 25300,-11901 6048,-4690 12655,-13762 19717,-27123 7155,-13464 15586,-35033 25393,-64687 22090,-66734 54917,-156795 98556,-270360zm-18424 99515l-45752 127625 94072 -1470c-5043,-14832 -12748,-35126 -23113,-60974 -11268,-28296 -19624,-50051 -25207,-65180zm-3092646 748487c-4671,0 -23858,-344 -57559,-1042l-35107 177 -20545 -344c-4885,0 -7993,-288 -9175,-930 -1256,-577 -1861,-1963 -1861,-4103 0,-3238 2289,-4857 6913,-4857 8737,0 15158,-1563 19233,-4745 4076,-3182 6634,-9026 7667,-17521 1089,-8505 2066,-25393 2987,-50786 921,-25337 1359,-48701 1359,-69991 0,-30017 -1359,-48413 -4076,-55289 -2717,-6830 -9463,-10533 -20164,-11110 -3861,-344 -5760,-2028 -5760,-5034 0,-3005 1675,-4513 5108,-4513 2010,0 8858,642 20545,1907 12980,1275 22006,1917 27123,1917l60379 -1740c20164,0 39620,4103 58322,12320 18693,8216 33534,21634 44570,40262 10980,18619 16460,39731 16460,63273 0,17465 -3201,33721 -9668,48878 -6420,15092 -15772,27821 -27942,38112 -12227,10300 -24351,17065 -36410,20303 -12012,3238 -26146,4857 -42402,4857zm-10924 -12143c22397,0 40057,-8328 53056,-25049 12990,-16656 19503,-40485 19503,-71433 0,-31460 -7007,-57373 -21029,-77732 -13976,-20359 -33860,-30538 -59681,-30538 -8802,0 -14134,521 -15874,1619 -1787,1098 -2875,2196 -3257,3294 -428,1154 -1089,13883 -1954,38112l-1907 57727c-316,14171 -484,31757 -484,52749 0,15790 651,26668 1954,32623 1256,5964 4076,10533 8421,13771 4410,3238 11473,4857 21252,4857zm347758 -213778c3433,17698 6746,35340 10058,53037 0,3294 -1526,4922 -4615,4922 -1693,0 -3592,-1563 -5713,-4745 -10915,-17009 -20973,-28166 -30045,-33609 -9091,-5434 -22127,-8151 -39257,-8151 -9565,0 -18796,865 -27710,2540 -1898,20015 -2884,41937 -2884,65766 0,4103 112,10933 326,20536l12124 167c7546,0 14069,-1098 19568,-3294 5490,-2196 10105,-6886 13967,-14050 3806,-7174 5974,-11808 6523,-13827 968,-3647 2605,-5434 4941,-5434 2987,0 4513,1331 4513,4048 0,810 -102,1731 -326,2717 -1303,7053 -1954,27989 -1954,62928 0,4857 437,9314 1247,13250 270,1154 381,2075 381,2884 0,3182 -1684,4745 -5062,4745 -2336,0 -4122,-3005 -5378,-9026 -2112,-10524 -7007,-18563 -14562,-24062 -7555,-5490 -19512,-8328 -35814,-8560 -540,18972 -819,31469 -819,37424 0,25737 381,41071 1144,45928 707,4857 3424,8793 8095,11743 4680,3005 12608,4513 23811,4513 40485,0 67125,-13715 79891,-41071 1796,-3871 3694,-5778 5769,-5778 3043,0 4559,1331 4559,4048 0,1852 -335,4159 -977,6997l-10328 48645 -57671 -177c-16246,-112 -31413,-521 -45491,-1219 -14078,-689 -25049,-1033 -33041,-1033 -8914,0 -22341,456 -40271,1442 -2233,177 -3917,288 -4950,288 -5006,0 -7500,-1731 -7500,-5267 0,-3173 2010,-4801 6095,-4801 10319,0 17270,-2950 20806,-8905 3592,-5899 5387,-17986 5387,-36261l977 -87056c0,-29785 -381,-48059 -1033,-54889 -707,-6820 -2559,-11454 -5546,-13883 -2931,-2429 -8533,-4280 -16684,-5490 -3424,-465 -5108,-2028 -5108,-4690 0,-3350 1954,-5034 5862,-5034l38382 1275 128313 465zm351405 -344c2773,6997 7825,18042 15269,33200 7397,15148 14729,30538 22015,46152 7230,15623 15427,32046 24518,49278 7267,13650 11408,21634 12385,24006 26584,-63217 46747,-114114 60435,-152636 25495,0 49027,-642 70605,-1917 2010,-112 3480,-167 4457,-167 4345,0 6523,1796 6523,5378 0,3126 -1684,4680 -5053,4680 -12068,0 -19949,4345 -23699,13073 -3806,8737 -5648,30017 -5648,63803l-167 82822c0,16888 2121,28696 6299,35461 4196,6765 10989,10291 20443,10645 4569,112 6848,1731 6848,4857 0,1619 -977,3061 -2884,4159l-44617 -344c-13706,0 -32399,577 -56089,1731 -2010,-1498 -3043,-3061 -3043,-4792 0,-2605 2773,-4345 8253,-5267 5601,-1042 9621,-2484 12124,-4401 2503,-1907 4345,-5434 5601,-10635 1303,-5211 1898,-12785 1898,-22797l651 -75536c0,-38634 56,-60900 167,-66743 -28966,71200 -46961,116664 -53865,136380l-16144 45817c-1796,4857 -3582,7286 -5378,7286 -1907,0 -4187,-3005 -6793,-8970 -7779,-17344 -35489,-74671 -83157,-171897 -549,27998 -819,65822 -819,113370 0,25095 1359,40950 4020,47538 2670,6653 10114,10468 22341,11631 4076,456 6085,2019 6085,4680 0,2894 -1628,4336 -4950,4336 -1135,0 -2438,-56 -3796,-167 -12720,-1042 -21857,-1563 -27393,-1563 -15055,0 -26472,465 -34186,1442 -1470,177 -2615,288 -3368,288 -3703,0 -5546,-1619 -5546,-4857 0,-1563 437,-2661 1359,-3238 875,-633 3313,-1386 7230,-2252 10217,-2084 16842,-5955 20005,-11687 3089,-5778 4671,-15158 4671,-28221l810 -96593c0,-21987 -540,-36503 -1628,-43612 -1033,-7118 -3647,-12608 -7723,-16432 -4122,-3815 -10868,-6709 -20164,-8616 -3480,-810 -5220,-2661 -5220,-5611 0,-3182 1907,-4801 5769,-4801 810,0 2010,56 3480,177 10812,1042 33209,1563 67069,1563zm260795 -1740c3750,0 11408,344 22983,986 8802,521 15818,754 21038,754l48915 -1740c4131,0 6197,1507 6197,4569 0,2782 -1842,4336 -5601,4801 -8421,930 -14022,2550 -16842,4978 -2829,2484 -5006,8095 -6523,16888 -1573,8849 -2336,28743 -2336,59867 0,35684 540,63328 1628,82822 1024,19494 3201,31525 6467,36093 3257,4569 8691,6886 16302,6886 5276,0 7881,1498 7881,4448 0,3992 -2819,5964 -8477,5964 -1582,0 -3908,-65 -7016,-177 -19996,-1507 -33702,-2252 -41034,-2252 -16032,0 -27933,456 -35591,1442 -4029,409 -6913,633 -8598,633 -3964,0 -5918,-1619 -5918,-4857 0,-2540 1628,-4048 4885,-4513 9026,-1265 15055,-3927 18209,-8039 3098,-4103 5006,-14050 5601,-29729 651,-15734 977,-40085 977,-73219 0,-34884 -605,-58248 -1740,-70047 -1200,-11798 -3098,-19028 -5815,-21755 -2661,-2717 -7825,-4392 -15437,-5090 -4029,-344 -6039,-2075 -6039,-5257 0,-2950 1963,-4457 5881,-4457zm260199 8328c1349,-1442 2773,-3703 4122,-6765 1628,-3582 3433,-5378 5443,-5378 2875,0 4662,2484 5322,7462l5546 46561 642 5611c0,3061 -1461,4569 -4345,4569 -2112,0 -3694,-521 -4615,-1619 -977,-1098 -2773,-4569 -5434,-10468 -4569,-10068 -12124,-19149 -22611,-27189 -10496,-8039 -21094,-12087 -31692,-12087 -10272,0 -18861,3126 -25700,9426 -6848,6244 -10282,14171 -10282,23662 0,7574 3210,14395 9565,20526 6420,6076 18693,11864 36856,17353 28529,8616 47827,19261 57932,31925 10003,12617 15009,26668 15009,42114 0,15790 -3647,29096 -10980,39797 -7341,10701 -16088,19140 -26314,25272 -10207,6188 -23253,9258 -39173,9258 -9026,0 -18377,-1396 -28054,-4113 -9668,-2717 -19670,-6820 -29943,-12264 -2121,2550 -3973,5843 -5443,9956 -1675,4504 -3806,6765 -6355,6765 -2605,0 -4187,-3071 -4727,-9137l-4569 -61430c-214,-2661 -326,-4336 -326,-5034 0,-3294 1582,-4913 4736,-4913 2280,0 4513,2838 6625,8505 6467,17000 15278,31171 26416,42514 11035,11333 23960,17000 38699,17000 12552,0 22657,-3992 30380,-11910 7658,-7928 11529,-16953 11529,-27012 0,-10068 -3601,-18572 -10710,-25514 -7118,-6876 -19949,-13529 -38429,-19838 -17986,-6188 -31366,-12143 -40057,-17809 -8756,-5611 -15762,-13427 -20982,-23253 -5276,-9891 -7881,-19959 -7881,-30082 0,-17754 6476,-32846 19354,-45286 12878,-12431 30380,-18628 52554,-18628 11966,0 27933,3824 47892,11454z"/>
    <path class="fil0" d="M5221398 1028636c3433,17698 6746,35340 10058,53037 0,3294 -1526,4922 -4615,4922 -1693,0 -3601,-1563 -5713,-4745 -10924,-17009 -20973,-28166 -30055,-33609 -9081,-5434 -22118,-8151 -39248,-8151 -9565,0 -18796,865 -27719,2540 -1898,20015 -2875,41937 -2875,65766 0,4103 102,10933 326,20536l12115 167c7555,0 14078,-1098 19568,-3294 5490,-2196 10114,-6886 13976,-14050 3806,-7174 5974,-11808 6523,-13827 968,-3647 2605,-5434 4941,-5434 2987,0 4513,1331 4513,4048 0,810 -112,1731 -326,2717 -1303,7053 -1954,27989 -1954,62928 0,4857 428,9314 1247,13250 270,1154 381,2075 381,2884 0,3182 -1684,4745 -5062,4745 -2336,0 -4122,-3005 -5378,-9026 -2112,-10524 -7007,-18563 -14562,-24062 -7555,-5490 -19512,-8328 -35814,-8560 -540,18972 -819,31469 -819,37424 0,25737 381,41071 1144,45928 707,4857 3424,8793 8095,11743 4671,3005 12608,4513 23802,4513 40494,0 67125,-13715 79900,-41071 1796,-3871 3694,-5778 5769,-5778 3043,0 4559,1331 4559,4048 0,1852 -335,4159 -977,6997l-10328 48645 -57671 -177c-16246,-112 -31413,-521 -45491,-1219 -14078,-689 -25049,-1033 -33041,-1033 -8914,0 -22341,456 -40271,1442 -2233,177 -3917,288 -4950,288 -5006,0 -7509,-1731 -7509,-5267 0,-3173 2019,-4801 6095,-4801 10328,0 17279,-2950 20815,-8905 3592,-5899 5387,-17986 5387,-36261l977 -87056c0,-29785 -381,-48059 -1033,-54889 -707,-6820 -2559,-11454 -5555,-13883 -2922,-2429 -8523,-4280 -16684,-5490 -3415,-465 -5099,-2028 -5099,-4690 0,-3350 1954,-5034 5862,-5034l38373 1275 128322 465zm176605 108568c14292,2140 26091,6765 35386,13818 9295,7118 16246,21168 20917,42169 4401,19726 9128,32678 14134,38987 4997,6244 12068,9658 21141,10235 4997,344 7500,2019 7500,5090 0,3294 -4020,4969 -12115,4969l-61477 -1731c-6355,-6765 -10701,-18852 -13045,-36270 -2978,-22266 -6085,-37936 -9286,-47138 -3154,-9137 -7937,-15669 -14357,-19605 -6355,-3992 -13743,-5955 -22173,-5955 -2438,0 -5815,167 -10058,521 0,39964 121,64547 391,73806 270,9249 2010,15902 5220,19949 3201,3992 9230,6244 18200,6709 4783,344 7174,2028 7174,5090 0,3071 -2066,4624 -6197,4624l-48915 -1731c-6625,0 -15055,288 -25318,865 -9463,577 -15502,865 -18051,865 -4355,0 -6523,-1675 -6523,-4969 0,-3182 1898,-4745 5760,-4745 5927,0 11464,-1563 16516,-4745 5006,-3173 7565,-16600 7565,-40308l-167 -31580 167 -61021c0,-31469 -1312,-50730 -3917,-57671 -2550,-6997 -9565,-10580 -20871,-10812 -4457,-121 -6690,-1740 -6690,-4857 0,-3247 2996,-4866 8923,-4866 29943,0 55271,-689 76085,-2075 9240,-698 17558,-1042 25002,-1042 24081,0 42942,5146 56638,15381 13697,10300 20545,23662 20545,40262 0,11101 -3266,21047 -9733,29896 -6467,8858 -14562,15446 -24239,19726 -9733,4336 -21085,7062 -34130,8160zm-43435 -7062c2773,121 4838,177 6206,177 9295,0 18638,-1852 28035,-5555 9407,-3703 16041,-9603 19959,-17698 3852,-8151 5806,-16777 5806,-25970 0,-14227 -3917,-25272 -11789,-33255 -7881,-7928 -18051,-11919 -30492,-11919 -5220,0 -11147,1042 -17726,3071l0 91150zm184272 -103590c3750,0 11408,344 22992,986 8802,521 15809,754 21029,754l48915 -1740c4131,0 6197,1507 6197,4569 0,2782 -1842,4336 -5592,4801 -8430,930 -14022,2550 -16851,4978 -2819,2484 -4997,8095 -6523,16888 -1573,8849 -2336,28743 -2336,59867 0,35684 540,63328 1628,82822 1033,19494 3210,31525 6467,36093 3266,4569 8691,6886 16311,6886 5267,0 7872,1498 7872,4448 0,3992 -2819,5964 -8477,5964 -1573,0 -3908,-65 -7016,-177 -19996,-1507 -33693,-2252 -41034,-2252 -16032,0 -27933,456 -35591,1442 -4020,409 -6904,633 -8598,633 -3955,0 -5918,-1619 -5918,-4857 0,-2540 1628,-4048 4885,-4513 9026,-1265 15064,-3927 18219,-8039 3089,-4103 4997,-14050 5592,-29729 661,-15734 977,-40085 977,-73219 0,-34884 -596,-58248 -1740,-70047 -1191,-11798 -3089,-19028 -5806,-21755 -2670,-2717 -7825,-4392 -15446,-5090 -4020,-344 -6030,-2075 -6030,-5257 0,-2950 1954,-4457 5871,-4457zm310464 16023c2233,-2950 4578,-6188 7016,-9779 2884,-4392 5332,-6588 7230,-6588 2177,0 3582,577 4187,1675 651,1154 1200,4624 1628,10468l3257 52749 335 6774c0,4513 -1684,6765 -5062,6765 -2224,0 -4020,-1852 -5378,-5555 -4345,-11975 -12236,-25272 -23541,-39852 -11352,-14627 -25653,-21922 -42923,-21922 -12775,0 -23485,3936 -32176,11798 -8700,7816 -15446,18572 -20275,32223 -4838,13706 -7286,30073 -7286,49167 0,32623 6737,58592 20275,77853 13473,19261 30269,28854 50376,28854 21801,0 41797,-13939 59960,-41816 2168,-3350 4290,-5034 6244,-5034 3322,0 4997,1796 4997,5378 0,7462 -8365,19326 -25114,35516 -16730,16255 -37657,24351 -62817,24351 -33376,0 -59737,-10933 -79035,-32855 -19345,-21922 -29022,-48869 -29022,-80859 0,-31869 9724,-59514 29245,-82943 19512,-23420 44188,-35163 73917,-35163 20973,0 42281,6244 63961,18796zm185305 -18451c21466,0 40215,4569 56303,13706 16088,9137 28975,22387 38699,39741 9724,17288 14571,36205 14571,56620 0,31580 -11101,59634 -33274,84050 -22173,24462 -49669,36670 -82496,36670 -29850,0 -55336,-10124 -76523,-30315 -21150,-20182 -31748,-47538 -31748,-81957 0,-32511 10980,-60388 32883,-83641 21903,-23243 49139,-34874 81584,-34874zm55429 115277c0,-34186 -5490,-59923 -16404,-77221 -10933,-17288 -24788,-25914 -41527,-25914 -16693,0 -30492,8681 -41416,26035 -10924,17288 -16414,43035 -16414,77100 0,32790 5220,58183 15707,76234 10440,18098 24462,27123 42123,27123 15595,0 29133,-8151 40653,-24462 11519,-16311 17279,-42635 17279,-78895zm-24127 -188850c3647,0 6793,1442 9565,4336 2773,2894 4131,6132 4131,9724 0,6941 -5536,14748 -16684,23420 -8700,6765 -16907,13594 -24630,20359 -7760,6774 -12878,10179 -15427,10179 -1256,0 -2605,-689 -4076,-2019 -1414,-1386 -2121,-2661 -2121,-3936 0,-1210 4727,-9370 14236,-24462 9463,-15102 16525,-25160 21150,-30138 4559,-4978 9240,-7462 13855,-7462zm237859 186654c14292,2140 26091,6765 35386,13818 9295,7118 16246,21168 20917,42169 4401,19726 9128,32678 14134,38987 4997,6244 12068,9658 21141,10235 5006,344 7500,2019 7500,5090 0,3294 -4020,4969 -12115,4969l-61477 -1731c-6355,-6765 -10701,-18852 -13045,-36270 -2978,-22266 -6085,-37936 -9286,-47138 -3154,-9137 -7937,-15669 -14357,-19605 -6355,-3992 -13743,-5955 -22173,-5955 -2438,0 -5815,167 -10049,521 0,39964 112,64547 381,73806 270,9249 2010,15902 5220,19949 3201,3992 9230,6244 18200,6709 4783,344 7174,2028 7174,5090 0,3071 -2066,4624 -6188,4624l-48925 -1731c-6625,0 -15055,288 -25318,865 -9463,577 -15492,865 -18051,865 -4355,0 -6523,-1675 -6523,-4969 0,-3182 1898,-4745 5760,-4745 5927,0 11464,-1563 16525,-4745 4997,-3173 7555,-16600 7555,-40308l-167 -31580 167 -61021c0,-31469 -1312,-50730 -3917,-57671 -2550,-6997 -9565,-10580 -20871,-10812 -4457,-121 -6690,-1740 -6690,-4857 0,-3247 2996,-4866 8923,-4866 29943,0 55280,-689 76085,-2075 9240,-698 17558,-1042 25011,-1042 24072,0 42932,5146 56629,15381 13697,10300 20545,23662 20545,40262 0,11101 -3257,21047 -9733,29896 -6467,8858 -14562,15446 -24239,19726 -9724,4336 -21085,7062 -34130,8160zm-43426 -7062c2764,121 4829,177 6197,177 9295,0 18638,-1852 28035,-5555 9407,-3703 16041,-9603 19959,-17698 3852,-8151 5815,-16777 5815,-25970 0,-14227 -3917,-25272 -11798,-33255 -7881,-7928 -18051,-11919 -30492,-11919 -5220,0 -11147,1042 -17716,3071l0 91150zm292524 124414c-4662,0 -23858,-344 -57559,-1042l-35098 177 -20554 -344c-4885,0 -7984,-288 -9175,-930 -1256,-577 -1852,-1963 -1852,-4103 0,-3238 2280,-4857 6904,-4857 8747,0 15158,-1563 19233,-4745 4076,-3182 6634,-9026 7667,-17521 1089,-8505 2066,-25393 2996,-50786 912,-25337 1349,-48701 1349,-69991 0,-30017 -1349,-48413 -4076,-55289 -2717,-6830 -9454,-10533 -20164,-11110 -3861,-344 -5760,-2028 -5760,-5034 0,-3005 1684,-4513 5108,-4513 2010,0 8858,642 20545,1907 12990,1275 22006,1917 27123,1917l60388 -1740c20154,0 39611,4103 58313,12320 18693,8216 33534,21634 44570,40262 10980,18619 16460,39731 16460,63273 0,17465 -3201,33721 -9668,48878 -6420,15092 -15762,27821 -27933,38112 -12236,10300 -24351,17065 -36419,20303 -12012,3238 -26146,4857 -42402,4857zm-10915 -12143c22387,0 40048,-8328 53047,-25049 12990,-16656 19503,-40485 19503,-71433 0,-31460 -7007,-57373 -21029,-77732 -13967,-20359 -33860,-30538 -59681,-30538 -8802,0 -14134,521 -15874,1619 -1787,1098 -2875,2196 -3257,3294 -428,1154 -1089,13883 -1954,38112l-1898 57727c-326,14171 -493,31757 -493,52749 0,15790 651,26668 1954,32623 1256,5964 4076,10533 8421,13771 4410,3238 11473,4857 21261,4857zm181713 -215862c3750,0 11408,344 22983,986 8812,521 15818,754 21038,754l48915 -1740c4131,0 6197,1507 6197,4569 0,2782 -1842,4336 -5592,4801 -8430,930 -14032,2550 -16851,4978 -2829,2484 -5006,8095 -6523,16888 -1573,8849 -2336,28743 -2336,59867 0,35684 540,63328 1628,82822 1033,19494 3210,31525 6467,36093 3266,4569 8691,6886 16311,6886 5267,0 7872,1498 7872,4448 0,3992 -2819,5964 -8477,5964 -1573,0 -3908,-65 -7016,-177 -19996,-1507 -33693,-2252 -41034,-2252 -16032,0 -27933,456 -35591,1442 -4020,409 -6904,633 -8598,633 -3955,0 -5918,-1619 -5918,-4857 0,-2540 1628,-4048 4885,-4513 9026,-1265 15055,-3927 18219,-8039 3089,-4103 4997,-14050 5592,-29729 661,-15734 977,-40085 977,-73219 0,-34884 -605,-58248 -1740,-70047 -1191,-11798 -3089,-19028 -5815,-21755 -2661,-2717 -7825,-4392 -15437,-5090 -4020,-344 -6030,-2075 -6030,-5257 0,-2950 1954,-4457 5871,-4457zm233997 -5555l11473 0c13967,32278 33749,83120 59290,152468 11798,31869 19894,51195 24351,57960 4401,6765 11464,10868 21094,12375 3201,465 4783,1907 4783,4457 0,3527 -2075,5257 -6197,5257 -2233,0 -7993,-400 -17344,-1210 -11026,-1042 -20322,-1563 -27831,-1563 -7332,0 -16898,465 -28640,1386 -8802,698 -14618,1042 -17335,1042 -4894,0 -7341,-1619 -7341,-4857 0,-2429 1693,-3815 5118,-4169 13036,-1265 19559,-6765 19559,-16535 0,-4578 -1954,-12906 -5815,-25049 -3852,-12087 -7993,-23141 -12385,-33023 -6848,-121 -12236,-177 -16041,-177 -21308,0 -37880,56 -49734,177 -9175,26658 -13799,44300 -13799,52916 0,6188 2289,10933 6848,14348 4569,3415 9519,5378 14841,5955 4076,465 6085,2196 6085,5211 0,3005 -2177,4504 -6523,4504 -1740,0 -6197,-223 -13418,-689 -9361,-698 -16209,-1042 -20443,-1042 -8374,0 -16367,521 -23913,1619 -1898,288 -3536,465 -4783,465 -3973,0 -5927,-1740 -5927,-5146 0,-2494 1303,-4113 3861,-4922 6355,-1907 11352,-4224 14999,-7053 3592,-2782 7500,-8160 11687,-16079 4234,-7984 9240,-20768 15055,-38354 13092,-39555 32548,-92946 58425,-160275zm-10924 59002l-27123 75657 55764 -875c-2987,-8784 -7546,-20815 -13697,-36149 -6681,-16767 -11631,-29673 -14944,-38634zm-3098303 776374c-7881,0 -40243,-586 -97086,-1759l-59225 298 -34660 -586c-8244,0 -13473,-493 -15492,-1563 -2112,-977 -3117,-3313 -3117,-6923 0,-5471 3852,-8198 11640,-8198 14767,0 25579,-2633 32455,-8002 6876,-5369 11194,-15223 12934,-29561 1824,-14348 3480,-42830 5034,-85669 1563,-42728 2298,-82152 2298,-118050 0,-50637 -2298,-81668 -6876,-93281 -4587,-11510 -15948,-17754 -34018,-18731 -6504,-586 -9714,-3415 -9714,-8486 0,-5071 2847,-7611 8616,-7611 3387,0 14944,1070 34660,3219 21913,2149 37126,3219 45742,3219l101860 -2922c34018,0 66836,6923 98380,20778 31534,13855 56555,36493 75173,67906 18517,31413 27775,67032 27775,106735 0,29468 -5397,56880 -16311,82450 -10821,25458 -26593,46924 -47129,64296 -20629,17363 -41071,28780 -61421,34242 -20266,5462 -44105,8198 -71517,8198zm-18433 -20489c37777,0 67571,-14050 89484,-42244 21913,-28100 32920,-68297 32920,-120497 0,-53075 -11826,-96789 -35479,-131133 -23569,-34344 -57122,-51511 -100678,-51511 -14841,0 -23830,875 -26761,2726 -3024,1861 -4866,3713 -5508,5564 -726,1954 -1833,23420 -3294,64296l-3210 97375c-549,23904 -828,53558 -828,88982 0,26630 1098,44979 3303,55029 2103,10049 6876,17754 14208,23215 7425,5462 19345,8198 35842,8198zm565434 -360608c5788,29859 11370,59616 16963,89466 0,5564 -2568,8300 -7788,8300 -2838,0 -6048,-2633 -9621,-8002 -18433,-28687 -35395,-47520 -50711,-56685 -15306,-9175 -37312,-13762 -66185,-13762 -16144,0 -31729,1461 -46757,4299 -3210,33758 -4866,70735 -4866,110932 0,6923 186,18442 549,34632l20443 298c12748,0 23746,-1861 33013,-5564 9258,-3703 17046,-11612 23560,-23709 6420,-12096 10077,-19903 10998,-23318 1656,-6150 4410,-9175 8346,-9175 5043,0 7611,2242 7611,6830 0,1368 -186,2931 -549,4587 -2205,11901 -3303,47222 -3303,106149 0,8198 735,15716 2112,22350 456,1945 642,3508 642,4876 0,5369 -2847,8002 -8533,8002 -3936,0 -6960,-5071 -9072,-15223 -3573,-17754 -11826,-31320 -24574,-40588 -12738,-9268 -32911,-14050 -60425,-14441 -903,31999 -1368,53075 -1368,63124 0,43416 642,69274 1926,77472 1191,8198 5778,14832 13659,19810 7881,5071 21271,7602 40150,7602 68307,0 113230,-23122 134780,-69265 3024,-6541 6234,-9761 9724,-9761 5127,0 7695,2242 7695,6830 0,3126 -549,7025 -1647,11808l-17419 82050 -97282 -288c-27412,-195 -52982,-884 -76737,-2047 -23746,-1172 -42262,-1759 -55736,-1759 -15037,0 -37684,782 -67934,2438 -3759,288 -6606,484 -8356,484 -8430,0 -12645,-2922 -12645,-8877 0,-5369 3387,-8095 10272,-8095 17419,0 29152,-4978 35107,-15027 6057,-9947 9081,-30343 9081,-61170l1647 -146839c0,-50246 -642,-81082 -1740,-92592 -1191,-11519 -4308,-19317 -9351,-23420 -4950,-4094 -14395,-7221 -28147,-9268 -5778,-782 -8616,-3415 -8616,-7900 0,-5657 3303,-8495 9900,-8495l64724 2149 216458 782zm652080 10533c2298,-2438 4680,-6244 6969,-11408 2754,-6048 5778,-9072 9165,-9072 4866,0 7890,4187 8988,12580l9351 78542 1098 9463c0,5173 -2475,7714 -7332,7714 -3573,0 -6234,-884 -7788,-2736 -1656,-1852 -4680,-7704 -9175,-17661 -7704,-16972 -20443,-32297 -38140,-45854 -17698,-13566 -35572,-20396 -53447,-20396 -17335,0 -31813,5276 -43370,15902 -11547,10542 -17316,23904 -17316,39908 0,12785 5397,24295 16125,34642 10821,10245 31543,19996 62156,29264 48134,14543 80691,32492 97738,53856 16870,21271 25309,44979 25309,71033 0,26630 -6141,49074 -18526,67125 -12375,18051 -27133,32297 -44375,42635 -17232,10440 -39238,15613 -66101,15613 -15213,0 -30985,-2345 -47306,-6932 -16321,-4578 -33190,-11510 -50516,-20675 -3573,4290 -6690,9854 -9165,16777 -2847,7611 -6420,11417 -10728,11417 -4401,0 -7062,-5173 -7974,-15418l-7704 -103618c-372,-4485 -549,-7314 -549,-8486 0,-5564 2652,-8291 7974,-8291 3852,0 7611,4783 11184,14339 10905,28687 25765,52591 44561,71712 18610,19121 40429,28687 65273,28687 21187,0 38233,-6737 51251,-20098 12924,-13371 19438,-28584 19438,-45566 0,-16972 -6048,-31320 -18061,-43025 -12012,-11612 -33646,-22834 -64817,-33469 -30352,-10440 -52898,-20489 -67571,-30045 -14757,-9463 -26593,-22639 -35395,-39220 -8895,-16693 -13287,-33665 -13287,-50739 0,-29952 10915,-55419 32641,-76392 21727,-20982 51242,-31422 88656,-31422 20164,0 47120,6439 80766,19317zm307449 -18144c36214,0 67851,7714 94974,23122 27142,15418 48869,37759 65282,67032 16414,29171 24574,61077 24574,95514 0,53279 -18703,100594 -56108,141768 -37405,41267 -83799,61858 -139172,61858 -50339,0 -93336,-17074 -129095,-51130 -35665,-34046 -53540,-80198 -53540,-138251 0,-54833 18517,-101860 55466,-141079 36949,-39220 82878,-58834 137618,-58834zm93513 194452c0,-57662 -9258,-101078 -27682,-130249 -18433,-29171 -41816,-43714 -70047,-43714 -28147,0 -51437,14636 -69860,43909 -18433,29171 -27691,72587 -27691,130053 0,55317 8802,98156 26491,128592 17614,30538 41257,45761 71061,45761 26305,0 49139,-13762 68576,-41267 19438,-27514 29152,-71907 29152,-133087zm342203 -16293c37033,8393 64817,21168 83241,38438 18424,17270 27682,38931 27682,65273 0,21857 -6783,41565 -20257,59030 -13566,17558 -30166,29273 -49781,35321 -19624,5955 -48227,8979 -85632,8979 -9165,0 -23476,-493 -43091,-1563 -16135,-884 -28696,-1368 -37861,-1368 -12199,0 -28612,782 -49232,2438 -8439,689 -14311,1070 -17791,1070 -6969,0 -10459,-2726 -10459,-8291 0,-4290 2754,-6727 8356,-7509 11268,-1563 19521,-3610 24658,-6150 5043,-2531 9165,-6830 12375,-12971 3117,-6048 4680,-15911 4680,-29664l2103 -133077c0,-41471 -363,-74550 -1284,-99329 -912,-24881 -2475,-40876 -4764,-48097 -2205,-7221 -5322,-12199 -9351,-15130 -4029,-2829 -10086,-4485 -18154,-5071 -7155,-391 -11826,-1265 -13846,-2633 -2112,-1265 -3117,-3508 -3117,-6634 0,-4001 2103,-6439 6327,-7416 4215,-977 16051,-1461 35572,-1461 35851,0 69405,-1368 100576,-4103 18424,-1554 33190,-2336 44375,-2336 32911,0 59318,7704 79035,23215 19708,15520 29515,36298 29515,62351 0,44877 -31264,77174 -93876,96686zm-73899 -4290c61607,0 92415,-28203 92415,-84590 0,-24881 -5499,-43426 -16414,-55717 -10915,-12189 -23662,-18340 -38140,-18340 -10356,0 -23011,2633 -37861,8002 -1470,19121 -2112,39220 -2112,60100 0,17661 642,47808 2112,90545zm-93 22238c-1377,40104 -2112,73471 -2112,100203 0,35321 1377,55615 4038,60686 2661,5173 11184,7714 25570,7714 25774,0 45110,-7323 57857,-21959 12841,-14636 19252,-34735 19252,-60388 0,-25570 -6597,-46636 -19894,-63031 -13297,-16395 -33460,-24686 -60509,-24686 -5862,0 -13939,484 -24202,1461zm434795 -5360c24099,3610 44002,11408 59681,23318 15679,11994 27412,35703 35293,71126 7425,33265 15399,55122 23839,65757 8439,10542 20350,16293 35665,17270 8439,586 12645,3415 12645,8588 0,5555 -6783,8393 -20433,8393l-103702 -2931c-10719,-11417 -18061,-31804 -21997,-61179 -5043,-37554 -10272,-63998 -15679,-79510 -5313,-15418 -13390,-26444 -24202,-33079 -10728,-6727 -23197,-10049 -37415,-10049 -4131,0 -9807,288 -16963,875 0,67423 186,108885 651,124498 447,15613 3387,26835 8802,33665 5397,6727 15576,10533 30706,11315 8067,586 12096,3415 12096,8588 0,5164 -3480,7807 -10440,7807l-82515 -2931c-11184,0 -25402,484 -42728,1461 -15948,977 -26128,1470 -30436,1470 -7341,0 -11008,-2838 -11008,-8393 0,-5369 3210,-8002 9724,-8002 9984,0 19345,-2633 27868,-8002 8439,-5369 12748,-27998 12748,-67999l-279 -53279 279 -102930c0,-53075 -2205,-85567 -6597,-97272 -4317,-11808 -16144,-17856 -35209,-18247 -7528,-195 -11287,-2931 -11287,-8198 0,-5462 5053,-8198 15046,-8198 50516,0 93234,-1163 128350,-3508 15595,-1172 29617,-1759 42169,-1759 40625,0 72438,8681 95542,25951 23104,17372 34651,39908 34651,67906 0,18740 -5499,35516 -16414,50451 -10905,14925 -24565,26044 -40885,33265 -16404,7323 -35572,11901 -57569,13762zm-73266 -11910c4680,195 8170,298 10459,298 15679,0 31441,-3126 47296,-9370 15865,-6244 27058,-16190 33655,-29850 6504,-13762 9817,-28296 9817,-43807 0,-24006 -6606,-42644 -19903,-56108 -13287,-13362 -30436,-20098 -51428,-20098 -8812,0 -18805,1759 -29896,5173l0 153762z"/>
    <path class="fil0" d="M6515305 1462398l19345 0c23569,54442 56927,140205 100027,257185 19894,53763 33553,86349 41071,97766 7425,11417 19345,18340 35572,20880 5406,782 8067,3219 8067,7509 0,5955 -3480,8877 -10449,8877 -3759,0 -13473,-679 -29254,-2047 -18600,-1759 -34279,-2633 -46933,-2633 -12375,0 -28519,782 -48311,2345 -14860,1163 -24667,1749 -29254,1749 -8253,0 -12375,-2726 -12375,-8188 0,-4103 2838,-6439 8616,-7025 22006,-2149 33013,-11417 33013,-27905 0,-7714 -3313,-21764 -9817,-42253 -6513,-20387 -13483,-39024 -20899,-55708 -11557,-195 -20629,-288 -27049,-288 -35944,0 -63905,93 -83892,288 -15492,44979 -23281,74736 -23281,89280 0,10431 3843,18433 11547,24192 7704,5760 16041,9072 25030,10049 6876,782 10263,3703 10263,8784 0,5071 -3657,7611 -10998,7611 -2940,0 -10459,-391 -22648,-1172 -15772,-1172 -27319,-1759 -34474,-1759 -14115,0 -27589,875 -40327,2736 -3210,484 -5964,772 -8077,772 -6699,0 -9993,-2922 -9993,-8681 0,-4196 2196,-6923 6504,-8291 10728,-3219 19168,-7118 25309,-11901 6048,-4690 12645,-13762 19717,-27123 7146,-13464 15576,-35033 25393,-64687 22090,-66734 54917,-156795 98556,-270360zm-18424 99515l-45761 127625 94072 -1470c-5043,-14832 -12748,-35126 -23104,-60974 -11268,-28296 -19624,-50051 -25207,-65180zm558000 291529c-44737,-2336 -114421,-3508 -208939,-3508 -32911,0 -59690,977 -80310,2931 -4950,391 -8626,577 -11008,577 -6783,0 -10170,-2829 -10170,-8579 0,-2736 912,-4587 2652,-5657 1842,-1079 6141,-2149 13110,-3322 11091,-1656 19531,-5173 25402,-10440 5862,-5267 10077,-13073 12468,-23513 2382,-10338 3759,-36884 4122,-79612 372,-42635 549,-93476 549,-152208 0,-23513 -1647,-40588 -4857,-51121 -3210,-10635 -7788,-18349 -13752,-23225 -6048,-4876 -14488,-7611 -25393,-8198 -7704,-391 -11557,-3415 -11557,-9072 0,-5657 4401,-8486 13110,-8486l89019 2922c13752,0 32920,-782 57578,-2242 8988,-484 15037,-679 18247,-679 7518,0 11277,2726 11277,8198 0,3024 -1200,5164 -3573,6337 -2475,1265 -8439,2633 -18070,4196 -12003,1656 -20433,4876 -25300,9658 -4950,4783 -8253,13176 -9900,24974 -1749,11808 -2568,38447 -2568,79714l0 173963c186,26733 2391,42635 6783,47715 4317,5071 12468,7611 24481,7611 29524,0 51437,-2447 65738,-7323 14395,-4783 28147,-13659 41164,-26435 13017,-12692 26956,-34149 41900,-64203 2931,-6150 6048,-9175 9165,-9175 4773,0 7146,2736 7146,8300 0,12385 -6132,52293 -18517,119902z"/>
   </g>
   <path class="fil1" d="M4987 1854707l3439417 0 0 -877592c-395110,-486483 -1018364,-800455 -1719713,-800455 -701340,0 -1324603,313972 -1719704,800455l0 877592z"/>
   <polygon class="fil2" points="0,1916640 3441110,1916640 3441110,1982769 0,1982769 "/>
   <path class="fil3" d="M1721853 0c524260,0 949266,425006 949266,949266 0,524270 -425006,949276 -949266,949276 -524270,0 -949276,-425006 -949276,-949276 0,-524260 425006,-949266 949276,-949266z"/>
   <path class="fil2" d="M1721853 51595c495769,0 897671,401902 897671,897671 0,495769 -401902,897671 -897671,897671 -495769,0 -897671,-401902 -897671,-897671 0,-495769 401902,-897671 897671,-897671z"/>
   <path class="fil3" d="M1721853 86702c476378,0 862564,386186 862564,862564 0,476378 -386186,862564 -862564,862564 -476378,0 -862564,-386186 -862564,-862564 0,-476378 386186,-862564 862564,-862564z"/>
   <path class="fil2" d="M1721844 124582c455470,0 824694,369224 824694,824694 0,455470 -369224,824694 -824694,824694 -455470,0 -824694,-369224 -824694,-824694 0,-455470 369224,-824694 824694,-824694z"/>
   <path class="fil3" d="M1088234 1081236c4913,94248 104679,187948 193158,203971 384009,69563 464524,-552956 -8840,-517375 24918,-67041 75443,-119408 130425,-155390 47650,-31190 84860,-57699 194424,-73815l-37 -68688c-238566,12227 -459117,213759 -435427,474126 66743,-178401 408602,-120739 359947,120581 -15967,77397 -69405,132017 -147704,145471 -62863,10803 -132463,-8616 -177629,-54377 -17288,-17540 -39806,-51316 -49483,-74504l-58834 0z"/>
   <path class="fil3" d="M2355491 1081236c-4913,94248 -104679,187948 -193158,203971 -384018,69563 -464524,-552956 8840,-517375 -24918,-67041 -75443,-119408 -130425,-155390 -47659,-31190 -84860,-57699 -194424,-73815l37 -68688c238556,12227 459117,213759 435418,474126 -66734,-178401 -408592,-120739 -359938,120581 15967,77397 69395,132017 147695,145471 62863,10803 132472,-8616 177629,-54377 17288,-17540 39815,-51316 49483,-74504l58844 0z"/>
   <polygon class="fil3" points="1689342,1225479 1754383,1225479 1754383,1290511 1689342,1290511 "/>
   <polygon class="fil3" points="1689342,1357738 1754383,1357738 1754383,1422778 1689342,1422778 "/>
   <polygon class="fil3" points="1689342,1490006 1754383,1490006 1754383,1555037 1689342,1555037 "/>
   <polygon class="fil3" points="1690924,362394 1755918,362394 1755918,1158969 1690924,1158969 "/>
   <polygon class="fil3" points="1477593,750665 1477593,685671 1966114,685671 1966114,750665 "/>
  </g>
 </g>
</svg>
