<?xml version="1.0" encoding="UTF-8"?>
<!DOCTYPE svg PUBLIC "-//W3C//DTD SVG 1.1//EN" "http://www.w3.org/Graphics/SVG/1.1/DTD/svg11.dtd">
<!-- Creator: CorelDRAW 2019 (64 Bit) -->
<svg xmlns="http://www.w3.org/2000/svg" xml:space="preserve" width="20.4039mm" height="20.4039mm" version="1.1" style="shape-rendering:geometricPrecision; text-rendering:geometricPrecision; image-rendering:optimizeQuality; fill-rule:evenodd; clip-rule:evenodd"
viewBox="0 0 2744901 2744901"
 xmlns:xlink="http://www.w3.org/1999/xlink">
 <defs>
  <style type="text/css">
   <![CDATA[
    .fil1 {fill:#BE2D31}
    .fil0 {fill:white}
   ]]>
  </style>
 </defs>
 <g id="Camada_x0020_1">
  <metadata id="CorelCorpID_0Corel-Layer"/>
  <g id="_2231194981520">
   <circle class="fil0" cx="1372453" cy="1372448" r="1372448"/>
   <circle class="fil1" cx="1372455" cy="1372446" r="1297847"/>
   <circle class="fil0" cx="1372455" cy="1372446" r="1247090"/>
   <circle class="fil1" cx="1372442" cy="1372458" r="1192342"/>
   <path class="fil0" d="M456374 1563245c7103,136264 151344,271734 279267,294899 555198,100573 671605,-799461 -12780,-748017 36027,-96928 109076,-172640 188568,-224662 68892,-45094 122690,-83421 281097,-106721l-54 -99309c-344917,17677 -663789,309052 -629538,685489 96497,-257931 590754,-174564 520409,174335 -23085,111901 -100345,190869 -213550,210321 -90887,15619 -191514,-12457 -256814,-78618 -24995,-25359 -57551,-74192 -71542,-107717l-85062 0z"/>
   <path class="fil0" d="M2288568 1563245c-7103,136264 -151344,271734 -279267,294899 -555212,100573 -671605,-799461 12780,-748017 -36027,-96928 -109076,-172640 -188568,-224662 -68905,-45094 -122690,-83421 -281097,-106721l54 -99309c344904,17677 663789,309052 629525,685489 -96484,-257931 -590740,-174564 -520396,174335 23085,111901 100331,190869 213537,210321 90887,15619 191528,-12457 256814,-78618 24995,-25359 57565,-74192 71542,-107717l85076 0z"/>
   <rect class="fil0" x="1325455" y="1771789" width="94027" height="94027"/>
   <rect class="fil0" x="1325455" y="1963012" width="94027" height="94027"/>
   <rect class="fil0" x="1325455" y="2154235" width="94027" height="94027"/>
   <rect class="fil0" x="1327737" y="523933" width="93973" height="1151684"/>
   <rect class="fil0" transform="matrix(3.98915E-14 -2.31917 1.24491 5.07665E-14 1.0193E+06 1.08531E+06)" width="40520" height="567346"/>
  </g>
 </g>
</svg>
