<?xml version="1.0" encoding="UTF-8"?>
<!DOCTYPE svg PUBLIC "-//W3C//DTD SVG 1.1//EN" "http://www.w3.org/Graphics/SVG/1.1/DTD/svg11.dtd">
<!-- Creator: CorelDRAW 2019 (64 Bit) -->
<svg xmlns="http://www.w3.org/2000/svg" xml:space="preserve" width="728.31px" height="255.99px" version="1.1" style="shape-rendering:geometricPrecision; text-rendering:geometricPrecision; image-rendering:optimizeQuality; fill-rule:evenodd; clip-rule:evenodd"
viewBox="0 0 19569128 15226301"
 xmlns:xlink="http://www.w3.org/1999/xlink">
 <defs>
  <style type="text/css">
   <![CDATA[
    .fil9 {fill:none}
    .fil15 {fill:#004E8C}
    .fil20 {fill:#0063B4}
    .fil4 {fill:#017BDE}
    .fil25 {fill:#254380}
    .fil16 {fill:#282C47}
    .fil14 {fill:#3C4145}
    .fil19 {fill:#4C5485}
    .fil3 {fill:#51565C}
    .fil30 {fill:#6B7075}
    .fil28 {fill:#6B76B8}
    .fil2 {fill:#74A3D4}
    .fil22 {fill:#85BBF4}
    .fil26 {fill:#898FBF}
    .fil0 {fill:#90A7AF}
    .fil13 {fill:#96CAFB}
    .fil31 {fill:#A07764}
    .fil17 {fill:#A9DAFB}
    .fil27 {fill:#BBCBEC}
    .fil11 {fill:#CCE2F9}
    .fil24 {fill:#CED1D6}
    .fil8 {fill:#D9C9C2}
    .fil29 {fill:#DA9F71}
    .fil21 {fill:#DEDDE4}
    .fil18 {fill:#E1F0FD}
    .fil7 {fill:#EEA886}
    .fil1 {fill:#F7E4D8}
    .fil5 {fill:#F8D0B3}
    .fil6 {fill:#FCBAB5}
    .fil12 {fill:#FEC05C}
    .fil10 {fill:#FEFEFE}
    .fil23 {fill:#FF8556}
   ]]>
  </style>
 </defs>
 <g id="Camada_x0020_1">
  <metadata id="CorelCorpID_0Corel-Layer"/>
  <g id="_2352562207792">
   <g>
    <path class="fil0" d="M4850577 9966425c26548,15703 44020,33674 73222,54385 28077,19914 51124,33227 81931,51432 45502,26888 127079,69701 183122,85169l-10219 -57117c-44850,-45567 -74944,-154757 -88764,-236196 -71691,43434 -79892,44431 -168701,16815 -11304,12736 -62917,70611 -70591,85512z"/>
    <path class="fil0" d="M4813960 9922902c25806,-17154 65171,-59900 67080,-79716 1912,-19850 -21194,-52998 -10327,-124993 -37778,-22284 -68825,-68176 -96184,-112479 -5368,58499 -1824,125261 -2209,184865 -467,72383 -5330,105468 41639,132323z"/>
   </g>
   <g>
    <path class="fil1" d="M6815686 9035241l11317 52499 31362 74251c10270,29370 18531,52887 26517,80143 22436,-12098 3573,319 18781,-13284 7468,-6681 7684,-7500 14035,-14655l87680 -99764 165363 -206104c32288,-36549 2071,-20381 46737,-26353 -11791,-9653 -74298,-36299 -122965,-72653l-10824 -8582c-8293,54318 -74469,100273 -119734,131176 -22211,15163 -48395,32149 -75021,49579 -50039,32758 -53553,22132 -73247,53748z"/>
    <path class="fil1" d="M6658487 8900924c-11955,48966 -5271,255401 2922,305179 43447,7497 -26756,34385 39964,-29591 19640,-18833 1636,-5983 23288,-17490 29343,-49271 40964,-79451 84052,-122761 -7507,-41316 -23243,-57542 -39546,-96154 -14657,-34716 -19328,-59293 -29320,-93524 -30861,12914 -57068,35632 -81360,54340z"/>
   </g>
   <g>
    <path class="fil2" d="M4772651 6905117l506855 994c66283,27 47911,9871 57172,-120822l-565241 87 1215 119740z"/>
    <polygon class="fil2" points="4771408,7131290 5314353,7132552 5317551,7008683 4774384,7008659 "/>
   </g>
   <g>
    <path class="fil3" d="M7005377 9114430c-19130,57109 -75740,147123 -105754,215735 -31069,71021 -58597,161217 -66522,246490 -8379,90172 28846,498919 53466,575833 20794,-32744 106465,-550248 127713,-662841 31273,-165713 34266,-115969 -25306,-188433 74893,-82499 91512,8760 161884,-164598 31243,-76968 69011,-160021 94069,-238661l-27451 -15981c-44666,5972 -14449,-10196 -46737,26353l-165363 206104z"/>
    <path class="fil3" d="M6550911 8953833l-113991 301918c21047,31057 35202,39980 50819,72151 -54066,65163 -60171,42866 -54302,160125l24456 637862c19917,-28128 70676,-537367 82285,-622567 28736,-210903 67710,-391638 108789,-594990l-98056 45501z"/>
    <path class="fil3" d="M6774537 10676745l1683 142925 303933 -42968c-5813,-21162 -8271,-42125 -11923,-65752 -6974,-45125 -12351,-39616 6927,-75601l-300621 41396z"/>
    <path class="fil3" d="M6406028 10738768l30089 1451 -9898 123762c39743,-1872 202698,-13014 223013,-24240l-40734 -27 -8336 -135580c-33320,6265 -65560,10439 -98633,14962 -23514,3216 -92827,1267 -95500,19671z"/>
   </g>
   <g>
    <path class="fil4" d="M6178992 7931147l932 679389 153165 1103c11415,-40338 5842,-965811 5842,-966374l-159968 30 29 285851z"/>
    <polygon class="fil4" points="4556536,7898737 4400405,7897336 4397787,8611216 4557674,8610798 "/>
    <polygon class="fil4" points="4852219,7977315 4693631,7976289 4692580,8609228 4852250,8611400 "/>
    <polygon class="fil4" points="5740973,8138632 5584897,8137432 5582465,8608389 5742850,8611609 "/>
    <polygon class="fil4" points="4994745,8609914 5029347,8611531 5056043,8611212 5091623,8611219 5155043,8611727 5153800,8171452 4994749,8170406 "/>
    <path class="fil4" d="M5876833 8610659l154152 1218c14979,-50083 7975,-343460 5167,-413835l-158899 -3447 -421 416063z"/>
    <polygon class="fil4" points="5302023,8545008 5301589,8611870 5358472,8611840 5394052,8611819 5462203,8611373 5462137,8482732 5462176,8299179 5302330,8297875 "/>
    <path class="fil4" d="M4230840 8323152c10254,18483 11793,13716 23298,35029 -26353,68857 -103894,127785 -134930,190486l-1656 62636c51148,-54 112409,8433 160221,-6482 0,-62125 10510,-275533 -4942,-316104 -21761,10700 -22285,10587 -41991,34436z"/>
   </g>
   <g>
    <path class="fil5" d="M8260435 9105921c9419,12942 156676,128773 178475,141730 48254,-10573 241296,-111915 309837,-140700 341926,-143594 712203,-239028 1092793,-278991 16452,13766 4982,-4215 9389,22616 12793,-21017 14937,-48947 21700,-80129l-10543 -161063c-290127,19910 -623820,95926 -879031,179942 -158636,52224 -628854,233234 -722621,316594z"/>
    <path class="fil5" d="M7939335 9282240l-165175 104808c10161,41842 82558,157412 110485,186906l342748 -208467c-10884,-23201 -62431,-57178 -84340,-73630 -19840,-14898 -28343,-23045 -44435,-35775 -17463,-13816 -30899,-18722 -41142,-31422 -42004,4269 -80866,36558 -118140,57580z"/>
   </g>
   <g>
    <path class="fil6" d="M10793148 8739540l17216 90961c16462,-13438 4254,-16172 78831,-6759l243777 33768 42398 8105c183276,8797 549205,114987 721781,168227 114586,35350 220423,71297 332642,111828 83055,29998 253098,87901 315843,124970l3437 2186c33932,-22052 65260,-47180 100150,-72559 34338,-24978 78811,-43642 99232,-79704 -182953,-97669 -695946,-268094 -910782,-329736 -465766,-133640 -616218,-139422 -1052719,-193565l8192 142277z"/>
    <path class="fil6" d="M12790828 9372811c121322,63183 257489,114102 378610,176525 124656,64246 250106,121852 376836,183742 249370,121781 496373,256404 753636,368396 37752,-10253 53777,-48438 79876,-78237 23150,-26434 57418,-59967 70868,-92530 -27851,-10393 -62150,-22133 -82782,-42207l-41410 -18114c-50422,-12690 -117198,-52385 -166248,-75636 -209535,-99326 -1048807,-526983 -1169408,-565293 -33261,13319 -186010,119107 -199977,143355z"/>
    <path class="fil6" d="M16433527 10451385c-24307,19061 -53197,74671 -71851,104953 -24443,39678 -54928,68933 -66813,115562 182894,1775 355037,1735 536452,-16247l-45873 -211478c-1466,-2239 -3538,-5201 -5776,-7381l-346139 14590z"/>
   </g>
   <g>
    <path class="fil7" d="M18070463 9000630l16720 -34535c122748,-7037 245661,-56491 290372,-124016 -23368,88001 -186447,196086 -312015,191941 -19582,42729 -30165,26048 -73305,53704 11902,37963 -93679,139064 -31535,233553 73693,112050 292646,69353 413299,-71227 63021,-73430 107443,-165587 139593,-173931l-109034 -23346c-4744,-145210 13554,-279590 63452,-393852 -62653,-114783 35856,-235126 -108477,-204237 -49806,109672 -14232,121697 -58871,134532 -41615,-58575 87486,-164566 -125066,-174138 -93309,-4201 -217896,2187 -292826,-31311 -796,120020 4482,243661 25269,358640 20398,112834 50242,210386 163706,223476l-1282 34747z"/>
    <path class="fil7" d="M6569090 8087870c-49725,211565 -65345,361223 38590,577674 24776,51597 40196,68737 85095,83374l48094 18502 -1022 79162c9992,34231 14663,58807 29320,93524 16303,38612 32039,54838 39546,96154l6972 -1020c19695,-31616 23208,-20991 73247,-53748 26626,-17430 52811,-34417 75021,-49579 45264,-30902 111441,-76857 119734,-131176 -29230,-99096 -87069,-244311 -27734,-336902 -14993,-24392 -23434,-113670 -13755,-146114 11075,-37122 60725,-89254 20255,-125367 -27062,-28432 -72786,-9065 -94427,14361 -26724,28926 -22463,65437 -22600,109076l-72287 9922c19619,-72721 83559,-217796 -6424,-247440 -66474,-21898 -211939,15983 -297625,9596z"/>
    <path class="fil7" d="M12768032 1553015c31345,34474 23029,107653 40992,153865 16490,42425 61549,75223 93989,101814 184596,151319 223686,203820 433383,349387 40058,27807 75951,40346 105380,90432 35332,60131 63626,52522 91312,103450 55482,20973 59892,68962 122720,63590 14972,-1280 -3726,-5110 13942,-283 28025,7657 43400,46605 84103,43638 23232,-1693 31300,-11315 41693,-16920 -18319,-73361 -84296,-117720 -110611,-170189 58464,30548 85645,89293 134175,101421 -23313,-108321 -179004,-173799 -189792,-224121 -128856,-9851 -74339,2141 -192626,-100200 -90025,-77887 -345552,-360010 -394817,-461221 -51206,-68259 -45726,-313744 -49350,-416604 -91862,15498 -153201,17061 -247247,21175 -16533,104478 39436,278644 22754,360765z"/>
    <path class="fil7" d="M9415360 7017482c35464,-35975 55758,-78282 92931,-113615 38539,-36632 56388,-65011 118037,-92194 -66128,-146970 -94223,-101352 -32753,-285065 59204,-176947 120567,-411343 230799,-534439 37476,-41850 78243,-38859 128402,-67168 28895,-16308 93346,-56593 107929,-75642 -51946,-23777 -101723,38677 -170500,22347 -20606,-102242 123603,-180465 145323,-263047 -44893,-3680 -69105,26119 -93942,42644 10721,-36035 29885,-67430 29185,-109258 -33878,-3277 -45091,10457 -62137,27221 -12760,-24446 -12496,-54908 -76214,23429 -34373,42260 -14665,15123 -32476,13866l-20225 2393c-40062,24211 -71736,182084 -86811,234279 -46097,159616 -123102,248541 -193891,384165 -64913,124367 -130950,259194 -184075,394343 -34703,88284 -60145,128370 -10827,218837l111244 176905z"/>
    <path class="fil7" d="M11574060 6356462c27299,-25738 42062,-14605 63408,-1133 5209,33789 6236,59141 -33360,54398 -30420,-3645 -33651,-23496 -30048,-53265zm-201803 426399c-30030,37047 -132697,107278 -186184,127083 -20271,16915 -47366,33325 -79954,33116 34919,75328 113945,204577 96718,310970 33082,-60255 -31533,-30193 61769,-79005 28656,-14992 57565,-37466 87198,-42146l178349 -128712c13330,-27582 25500,-60355 37032,-93753l33258 -131264c24952,-108715 45123,-384505 82084,-458712 73503,-147569 150350,-179438 137047,-408803 -26619,-43834 24531,33278 -14665,-15632 -22521,-28102 -11025,-25318 -20962,-56517 -2021,-941 -5298,-745 -6618,-952 -42159,-6593 -16183,2383 -50054,-35776 -28167,14888 -24947,21659 -38669,43216 -12194,-35150 773,-25736 -33707,-32701 -27528,76126 -22350,235635 -69163,295568 -66661,20705 -86456,-93002 -176820,-53539 10299,34477 37700,41951 61096,69077 91363,105928 95933,127757 53422,286592 -11041,41254 -111055,351612 -151177,371889z"/>
    <path class="fil7" d="M12984835 711610l13302 233411c56518,-27169 99621,-66716 154301,-95423 53983,-28343 54627,4460 86359,17699 29437,12280 55727,-19020 91614,-23287 1762,-1433 4067,-6372 4799,-4839l48223 -41992c41894,-20454 25136,7473 78362,7633 21767,-36565 21307,-79237 39137,-111921 6835,-12530 57607,-71992 67604,-83486 -30765,-12634 -50707,-71989 -61769,-105802 -129726,10424 -242494,-50100 -331956,14516 -46883,33862 -134816,137321 -189977,193492z"/>
    <path class="fil7" d="M2055727 8517826l47738 191060 363049 32746 2473 -26938c97506,-27765 108125,-101412 131521,-210038l-4038 -226113 -15381 -80492c-52426,38106 -34288,99817 -25143,168221 -130118,-3502 -21803,-147098 -152235,-141719 -30988,67509 -22729,92587 6379,157794 -33397,34212 -96701,84715 -144131,112251 -71644,41596 -127178,52102 -210232,23227z"/>
    <path class="fil7" d="M10096872 6774837c26273,51221 31768,91299 37222,153805l341082 -12422c-1083,-102338 14676,-80224 68829,-124052 36283,-29365 48481,-68297 50777,-133434 2438,-69151 -30674,-266390 -58295,-310397l1927 27382c-110411,41251 -48508,89591 -36207,159937l-38018 23524c-28798,-38548 -29082,-104298 -97885,-89871 -46941,29855 -43645,69014 -20370,113113 16863,31950 22475,13975 5253,60086 -38039,101847 -159213,135160 -254315,132331z"/>
    <path class="fil7" d="M19140266 11225918l-251466 -56939c-18920,77713 -67868,176947 -59536,258264 50202,91093 22714,124476 138522,112652l16424 22487c8332,-32645 -19965,-12713 31852,-23546 15723,-3286 29567,-588 48344,-3522 26938,-4209 64703,-12915 92982,-18124 14321,-36171 16142,-37267 12578,-86868l392845 -3564c13436,-260086 1262,-553958 1262,-817756l0 -613861c0,-41217 7348,-161880 -10191,-188403l1465 1616220 -387885 588c-927,-101933 3263,-106880 -27194,-197627z"/>
    <path class="fil7" d="M16771316 8125231l150729 -32306c-3509,-125881 11102,-288418 -43336,-385388 -11074,-19725 -182817,-278701 -201523,-191945 -12839,59540 46,-43017 -2278,13736 -931,22741 62811,265880 66586,327728 -42828,-47018 -43210,-49956 -75288,-49161 1351,58126 39420,103253 56168,153480 14592,43762 40828,125883 48942,163856z"/>
    <path class="fil7" d="M4120316 8013093c-35872,39041 -66230,131774 -74197,209570l184721 100489c19706,-23849 20230,-23736 41991,-34436 22804,-27468 40894,-42723 62918,-81650 22258,-39339 44265,-46383 49966,-97989 -24199,-30502 -74098,-74984 -108252,-100273 -42303,-16256 -42641,-44467 -79037,-36495 -21091,4619 -48129,29508 -78110,40784z"/>
    <path class="fil7" d="M10017937 419259l-33072 317220c17988,25056 152119,52481 188284,57378l-1083 -36015c-577,-111290 -33471,-228723 -28213,-344305 -3826,-70209 -47612,-68854 -116438,-61001l-9478 66723z"/>
    <path class="fil7" d="M5102001 9841878l-12131 22220c13820,81439 43914,190629 88764,236196 93550,-61179 140268,-52593 147220,-111507 6639,-56276 -2254,-4338 27516,-55921 -6561,-21685 -9627,-23457 -23674,-35586 25488,-18498 38055,-19237 31107,-56630 -54711,-22336 -84042,-2362 -142609,347 29545,-14945 115569,-43659 98776,-89540 -61640,-26427 -171916,66764 -214967,90421z"/>
    <path class="fil7" d="M1212000 11114645c-22709,79269 -42696,116407 -51298,213415 20345,-26121 10216,-47046 37299,-53923 25919,-6580 13640,25542 50953,-31619 51475,-3755 33837,13834 66399,-6111 13767,-8432 -14852,-36220 45730,-516 23282,13721 -129,3169 25053,10611 24580,7262 21624,-5625 35769,33503 15158,41931 19176,106699 -337,143398 39709,9069 25954,14995 54645,17685 11162,-42101 -4824,-63324 7810,-116717 10673,-45107 14253,-43182 2049,-89166 -13639,-51395 -53474,-136130 -58113,-173006l-215958 52446z"/>
    <path class="fil7" d="M9654316 553363l61527 210366c4500,4607 18268,11661 18958,12127 40517,-29511 90566,-52485 131446,-86200 -19885,-55208 -89957,-137679 -93471,-195520 -1547,-1753 -3064,-4527 -3940,-5802l-7722 -11404c-4024,-5434 -6831,-10897 -12236,-15530 -35920,-30787 -80326,-1447 -112865,18479l18304 73484z"/>
    <path class="fil7" d="M7295758 11109261c5442,-14853 9296,-29237 16308,-40414 13261,-21139 -208,-563 12103,-14737l9653 -9177c-23799,-20539 -163258,-109007 -178254,-112040 -58,79444 -48574,28686 -102971,112040 16449,18192 187791,107225 221497,117858l21665 -53530z"/>
   </g>
   <g>
    <path class="fil8" d="M9866246 689655c-40880,33715 -90929,56689 -131446,86200 -690,-466 -14458,-7519 -18958,-12127 7805,50221 13794,66585 28374,112166 11937,37323 29718,69734 17400,98137 31841,18171 41791,97164 52923,133590 25855,84610 31273,63870 6146,148179 -33292,111706 -4071,246867 66142,295664 83695,58166 213984,52568 328305,53267 119471,730 241526,17674 364736,21566 422885,4065 844377,-11533 1264775,-36061 -17007,-120327 36867,-378803 69749,-492888 -161439,-130888 -470869,-134235 -649905,-16760 -38133,25021 -82845,73192 -133931,79537 -157505,19562 -251155,-29898 -577417,46131 -1617,-1567 -4470,-3479 -5304,-4184l-13003 -11891c-2859,29953 4601,20835 -36204,31890 -97054,26294 -295985,61589 -386173,41078 -13170,-52480 40267,-167363 59136,-217096 63975,-168612 33141,-140653 98445,-179771l-32012 4724 9650 -53989 -62607 -16049 -12999 -43125 1083 36015c-36164,-4897 -170295,-32322 -188284,-57378 -23765,21164 -20406,25038 -26959,63235l-18068 -31230c-3850,-9113 -7676,-23273 -10914,-33607 -7283,-23240 -12183,-43985 -24818,-59492l-37860 14269z"/>
    <path class="fil8" d="M5059355 9649687c23673,32492 52563,154036 42646,192191 43050,-23657 153327,-116849 214967,-90421 16793,45881 -69230,74595 -98776,89540 58567,-2709 87898,-22682 142609,-347 6947,37393 -5620,38132 -31107,56630 14048,12130 17113,13901 23674,35586 -29770,51583 -20876,-355 -27516,55921 -6951,58914 -53669,50327 -147220,111507l10219 57117c76932,267829 -44932,210284 614414,214511 103263,662 157355,-22089 134969,-127668l-79433 -311765 -14528 -74098c-15556,-29720 -51689,-164244 -41342,-188953l-52403 -182046c-52692,-232185 -41290,-271634 -169232,-272660l-454244 -13c-72116,-328 -136705,2700 -141655,77943 -4812,73140 87517,310327 73959,357024z"/>
    <path class="fil8" d="M6457893 10125889c13662,92021 -73326,472055 -89256,598768 17933,14987 -3290,9038 37392,14111 2674,-18404 71986,-16455 95500,-19671 33073,-4524 65313,-8697 98633,-14962 39190,-18541 122588,-31679 174375,-27390l300621 -41396 13594 -7100c-26699,-67287 -82104,-142344 -119407,-215621 -35943,-70603 -73475,-169787 -82777,-260141 -24621,-76913 -61845,-485661 -53466,-575833 7925,-85272 35453,-175468 66522,-246490 30014,-68612 86624,-158626 105754,-215735l-87680 99764c-6351,7155 -6567,7975 -14035,14655 -15208,13604 3655,1186 -18781,13284 -7986,-27256 -16247,-50773 -26517,-80143l-31362 -74251c9881,115889 5886,70793 -10532,97047 -20849,33340 -39649,238484 -44556,276212 -34768,267340 -24044,559665 11257,826630 8274,62571 19340,120486 29911,183070 9977,59072 -16458,121689 -33049,171872 -102717,-112055 -100717,-128677 -123173,-317942 -34429,-290179 -54671,-531870 -1387,-821491 11640,-63271 25409,-121518 41116,-180894 36288,-137188 43208,-87961 28072,-163222 -21653,11507 -3648,-1342 -23288,17490 -66719,63977 3483,37089 -39964,29591 -8193,-49778 -14877,-256213 -2922,-305179l-9521 7408c-41079,203352 -80052,384087 -108789,594990 -11609,85201 -62368,594439 -82285,622567z"/>
    <path class="fil8" d="M17722533 14287861c-78216,11080 -179203,13629 -252902,-9169 -6944,36040 -29212,47890 -85136,85815 -130103,88228 -304444,55737 -297765,176762 100397,66842 307624,82643 429908,23523 32640,-15780 56119,-28185 91065,-43196 186535,-80124 129034,-34397 114830,-233735z"/>
    <path class="fil8" d="M19323895 14314079c-99139,17702 -182095,-2488 -276010,-11377 25865,56103 -19804,94289 11332,147520 20268,34651 44373,36765 71925,97256 53724,117951 72686,110373 228195,110093 121200,-218 192980,-47116 123413,-160023 -48397,-78548 -122310,-86238 -158855,-183470z"/>
    <path class="fil8" d="M12549074 9272826l227544 99446 14209 539c13967,-24248 166716,-130036 199977,-143355l0 -6826 -230287 -99437 -12062 -2630c-20420,36061 -64893,54726 -99232,79704 -34890,25379 -66218,50506 -100150,72559z"/>
    <path class="fil8" d="M8057476 9224661c10244,12700 23680,17606 41142,31422 16092,12730 24595,20876 44435,35775 21909,16452 73456,50429 84340,73630l13239 -1650c27171,-28271 153922,-93181 198278,-109222l0 -6964c-21799,-12957 -169056,-128788 -178475,-141730l-11853 -2019c-49685,43205 -155599,77200 -191107,120759z"/>
    <path class="fil8" d="M2096655 8800295l401018 16513c-4984,-48611 -3127,-47141 -31160,-75177l-363049 -32746c-14838,30627 -14065,50128 -6810,91410z"/>
   </g>
   <g>
    <polyline class="fil9" points="9622096,12874069 11582849,12874944 11802657,12203874 9406326,12203008 "/>
    <polyline class="fil9" points="9891877,13704411 11315934,13704563 11558111,12954299 9651171,12952837 "/>
    <path class="fil10" d="M9804704 11836339c37491,51313 77849,91396 155399,121727 79465,31082 150526,32621 148180,131541l-28334 26098c22409,17235 536539,6201 642261,7597 36020,475 68325,6236 89658,-13553 -17936,-71534 18243,-212415 34691,-283415 -8804,-19890 -19836,-8168 -35604,-61143 -96726,-324959 -228410,-837697 -238280,-1149420 -96943,2896 -185650,3613 -278277,-5534 -92203,-9105 -168504,-32444 -252569,-40073 -51697,188199 -85043,436195 -119017,635585l-92466 566992c-15781,71712 -22018,7103 -25643,63598z"/>
    <path class="fil10" d="M8438910 9247651l0 6964c134447,98336 442771,373077 605937,505574 132435,107542 512127,400150 664148,449590 24793,-222165 59876,-445924 80454,-667352 11708,-125995 1360,-242782 8928,-365844 7526,-122370 36886,-215698 52551,-326007 -4407,-26831 7063,-8850 -9389,-22616 -380589,39963 -750867,135397 -1092793,278991 -68542,28785 -261584,130127 -309837,140700z"/>
    <path class="fil10" d="M12545637 9270641c-62745,-37069 -232789,-94973 -315843,-124970 -112219,-40531 -218056,-76479 -332642,-111828 -172576,-53240 -538504,-159430 -721781,-168227l0 1363054c79398,-16414 308438,-163436 373869,-206795 60334,-39981 965263,-711866 996397,-751234z"/>
    <path class="fil10" d="M12990805 9222630l0 6826c120601,38310 959873,465967 1169408,565293 49050,23251 115826,62946 166248,75636l-1882 -1417234c-112833,16361 -592061,291323 -697555,354826 -113117,68092 -214567,131901 -322484,202484 -106582,69710 -208787,144988 -313736,212169z"/>
    <path class="fil10" d="M14367871 9888499c20632,20074 54932,31814 82782,42207 51976,-47380 153049,-194105 201503,-266108 162263,-241124 299262,-489916 411024,-762341 21153,-51563 37184,-126849 70194,-170534 47969,-167314 114702,-334775 145245,-523238 -8848,-25801 10624,-8941 -28386,-12469 -2776,-251 -30773,1787 -35093,2266l-184760 28827c-199570,37452 -486360,118829 -657127,199772 -14878,67849 -6630,1367858 -5382,1461619z"/>
    <path class="fil10" d="M16942916 9367937c-50601,192935 -267112,636859 -365190,825264 -43408,83386 -111425,181186 -144199,258184l346139 -14590c394,-101288 -79176,-299690 -63360,-379149l122527 -10327 -8412 -124266 149377 -1717c12147,-43721 -1906,-82747 13093,-113477l668086 1441c4738,-129694 -28325,-188692 -84257,-273291 -69124,-104552 -230825,-312047 -322204,-389280 -18162,-15351 -32068,-24056 -49124,-40237 -44657,-42364 -91072,-103009 -139091,-136422l-123384 397867z"/>
    <polyline class="fil9" points="11398096,13704270 12354571,13704436 12110119,12951829 11647220,12952853 "/>
    <path class="fil9" d="M9808566 13704634l-243948 -752403 -443571 525c-7783,-11116 -5103,7838 -14506,-29935l-255540 781306"/>
    <path class="fil10" d="M10970483 10315023l160928 -59733 1562 -1397780 -243777 -33768c-74577,-9413 -62369,-6679 -78831,6759 10949,110721 40198,237236 59523,350375 20074,117527 39961,233273 57965,351121 37220,243630 34019,531017 42631,783026z"/>
    <path class="fil10" d="M4870713 9718193c-10867,71995 12238,105143 10327,124993 -1909,19816 -41274,62562 -67080,79716 -34501,56027 -101917,116291 -146872,172600l-149908 170426c-54096,56111 -95850,109905 -150517,169483 -22459,24477 -51620,57459 -74643,85520 -23379,28494 -55886,58453 -72490,87572 -106243,-18061 -131102,-29041 -195923,64306l-632099 -135201c-13941,-82286 -76992,-144399 -170808,-119031 -128376,34714 -86857,174034 -84198,200659 -75978,47241 -147477,150691 -202016,176474l5922 60056c47882,-6400 77006,-62523 113288,-96358 39167,-36527 80782,-66249 116611,-105739 17716,4601 168439,79413 210073,-65902l622741 133634 14314 28487c25014,60123 65922,135599 170154,102995 104976,-32839 99669,-129958 67800,-208292 32046,-49955 265972,-299758 329852,-381979 16074,-20689 21553,-22095 38804,-40872l211465 -242676c10311,-10283 4339,-5523 15065,-12637 7674,-14901 59287,-72776 70591,-85512 88809,27616 97010,26619 168701,-16815l12131 -22220c9917,-38154 -18973,-159699 -42646,-192191 -98780,-35171 -148990,1405 -188642,68506z"/>
    <path class="fil10" d="M10106362 10368425c64451,4794 137888,24435 210095,32517 73334,8207 169866,8420 243558,2033 -21066,-150309 -52708,-297935 -94607,-435618 -24841,-81633 -104669,-341847 -142709,-391068l-216338 792135z"/>
    <polyline class="fil9" points="9122003,12873647 9536544,12874965 9331688,12237156 "/>
    <polyline class="fil9" points="11877915,12238710 11668051,12872806 12081686,12875025 "/>
    <path class="fil10" d="M7413212 10356742c47583,-57033 130767,-260868 123742,-352411 -10247,-133547 -71804,-252307 -127105,-341725 -34375,132411 -71973,602214 3363,694137z"/>
    <polygon class="fil10" points="4618364,10817428 5158519,10817399 5158519,10769140 5158337,10712836 4629084,10712697 4618462,10712903 "/>
    <polygon class="fil10" points="3500520,10075691 4041027,10074019 4038702,9971432 4006992,9970383 3534995,9970177 3501406,9971537 "/>
    <polygon class="fil10" points="3125932,11071622 3127782,11140348 3664365,11139226 3665780,11038283 3126007,11035067 "/>
    <path class="fil10" d="M5802931 9669438c-10347,24709 25786,159233 41342,188953 46829,-96148 -22966,-119181 -1648,-161357 13010,-25740 69896,-98200 89248,-124797l169827 -231148c8686,-8512 6562,-6388 15983,-13648l69596 -183576c-37954,37084 -68141,86679 -99702,130424 -34257,47479 -64091,85411 -94076,128145 -61586,87770 -137463,178260 -190571,267004z"/>
    <polygon class="fil10" points="6113014,10224599 6294261,10227053 6296546,10123691 6161866,10128545 "/>
    <path class="fil10" d="M6211074 9113422l94975 -50038c14082,-28103 21042,-30291 30553,-56268l-35262 -21402 -90266 127708z"/>
   </g>
   <g>
    <path class="fil11" d="M5389323 6362493l7735 -5648 78618 -419186 -3397201 -2831c-84296,10727 -126863,50678 -153742,110572 -27258,60737 -24458,158757 6202,216030 70129,131000 225123,100530 403245,100530 338009,0 676018,0 1014028,0 677255,0 1365203,-11930 2041115,533z"/>
    <path class="fil11" d="M12760518 9123193l230287 99437c104949,-67181 207154,-142459 313736,-212169 107917,-70583 209367,-134392 322484,-202484 105493,-63503 584721,-338465 697555,-354826l1882 1417234 41410 18114c-1249,-93761 -9496,-1393769 5382,-1461619 170767,-80943 457557,-162320 657127,-199772l184760 -28827c4321,-479 32317,-2517 35093,-2266 39010,3528 19538,-13332 28386,12469l47901 -259173c-180856,14682 -345128,39630 -511603,81297 -207956,52049 -282132,95911 -442164,143966 -16153,-81252 -1594,-663276 -5860,-811128l-42145 -153 -4152 832026c-68732,36179 -142097,62279 -213383,96826 -232631,112737 -383737,197462 -603830,330044 -78122,47059 -679809,435774 -742865,501004z"/>
    <path class="fil11" d="M10970483 10315023l11143 222496 149707 -52183c8490,135267 -16637,893806 8874,941516l35123 425 1431 -960959c366478,-168774 523259,-277650 833665,-517219l766194 -576828 -227544 -99446 -3437 -2186c-31134,39368 -936063,711253 -996397,751234 -65431,43358 -294471,190380 -373869,206795l0 -1363054 -42398 -8105 -1562 1397780 -160928 59733z"/>
    <path class="fil11" d="M8240632 9363837c43499,47004 122013,102216 173835,145918 340710,287325 877086,764013 1265005,923004l29522 -222980c-152022,-49440 -531714,-342048 -664148,-449590 -163166,-132497 -471490,-407238 -605937,-505574 -44356,16041 -171106,80951 -198278,109222z"/>
    <path class="fil11" d="M7939335 9282240c37274,-21022 76136,-53311 118140,-57580 35508,-43559 141421,-77554 191107,-120759 -29736,-33892 -210454,-168366 -261735,-191983l-282 -1547088 -45458 239 49 1503856c-40243,-14157 -95586,-56417 -132132,-79136 -44868,-27892 -83254,-50763 -128592,-75992 -63349,-35251 -196901,-111212 -266182,-130367 12742,57744 47490,145770 69207,202107 43826,113691 28370,78394 129463,137769 75092,44105 279905,166024 327681,217760l-1265 141172z"/>
    <path class="fil11" d="M10041830 10570165c84065,7629 160366,30968 252569,40073 92626,9147 181334,8431 278277,5534l-12660 -212797c-73692,6387 -170224,6174 -243558,-2033 -72208,-8082 -145644,-27723 -210095,-32517l-64533 201739z"/>
    <path class="fil11" d="M17147368 8644931c-862,51630 32488,91353 64898,116697l217190 165408c30216,22321 81164,64397 114265,81227 -5372,-115587 22475,-92740 -47372,-157063 -35339,-32543 -67656,-67626 -104922,-99601 -71187,-61080 -141099,-128044 -221409,-186142l-22649 79475z"/>
   </g>
   <g>
    <path class="fil12" d="M9872629 8770448c-6764,31182 -8907,59112 -21700,80129 -15665,110309 -45025,203637 -52551,326007 -7568,123062 2780,239849 -8928,365844 -20579,221428 -55661,445187 -80454,667352l-29522 222980c-97117,620733 -105674,643649 -83216,1225900 5639,146225 -2896,56132 20956,168125l187490 9555c3625,-56495 9862,8114 25643,-63598l92466 -566992c33973,-199390 67320,-447386 119017,-635585l64533 -201739 216338 -792135c38039,49221 117867,309435 142709,391068 41899,137683 73541,285309 94607,435618l12660 212797c9870,311723 141554,824461 238280,1149420 15768,52975 26800,41253 35604,61143l187763 8356c917,-34601 -12907,-23110 36358,-24456 -55564,-409394 -68737,-853569 -89054,-1272715l-11143 -222496c-8612,-252009 -5411,-539396 -42631,-783026 -18004,-117848 -37891,-233594 -57965,-351121 -19324,-113139 -48574,-239654 -59523,-350375l-17216 -90961c-172178,52573 -772132,124346 -920519,30908z"/>
    <path class="fil12" d="M16771316 8125231l-56107 9227c20265,124617 100760,329774 142121,457362 42341,130609 65752,201577 144879,299763l64091 78487c48018,33413 94434,94058 139091,136422 17056,16181 30962,24886 49124,40237 91379,77233 253081,284729 322204,389280 55932,84599 88995,143597 84257,273291l1083627 -1244c25036,72311 93519,180400 129500,262723 62206,142322 45035,176898 45035,342500 1,130953 -5920,245147 -12952,374758 -4772,87940 -29366,307802 -17388,380943l251466 56939c18978,-238639 44314,-480530 73642,-717621 35707,-288668 2932,-439898 -65084,-701474 -33816,-79632 -53169,-177139 -86525,-261861 -124250,-315588 -192352,-417077 -548707,-468844 -32150,8344 -76572,100500 -139593,173931 -120652,140580 -339605,183277 -413299,71227 -62144,-94489 43437,-195590 31535,-233553 -41795,3999 -94883,19050 -132782,29838 -70061,19940 -52739,27852 -111025,-2225 -73008,-37673 -146022,-61053 -204707,-107073 -33101,-16830 -84049,-58906 -114265,-81227l-217190 -165408c-32410,-25344 -65760,-65067 -64898,-116697 -9482,-11271 456,4912 -12416,-18189 -5350,-9601 -4451,-8273 -8825,-19278 -3285,-8268 -7508,-22577 -10886,-33241l-74688 -218894c-17805,-47955 -37075,-94930 -55083,-140618 -9151,-23216 -19133,-45252 -28854,-69073 -13234,-32433 -9672,-41770 -34570,-52715l-150729 32306z"/>
    <path class="fil12" d="M12563178 786004l-27495 27133c-111843,104674 -61033,56087 -174425,181180 -130197,143632 -187239,103683 -260041,132561 -43752,17357 -46790,387070 -47659,451940 122629,5644 252424,12652 374880,5486 109401,-6401 242613,-25244 339592,-31289 16682,-82120 -39287,-256287 -22754,-360765 94047,-4115 155385,-5678 247247,-21175 23985,-18386 9099,4150 20203,-28109l-14592 -197944 -13302 -233411c-74306,5319 -196078,-7456 -247636,347 -76495,11578 -119347,53436 -174020,74047z"/>
    <path class="fil12" d="M11844642 1590236l94420 -14902 48874 2446c-18615,-441356 93279,-461801 -73545,-480432 -32882,114085 -86756,372561 -69749,492888z"/>
   </g>
   <g>
    <path class="fil13" d="M3126007 11035067l539772 3215 -1414 100944 -536583 1122 -1850 -68726 75 -36554zm1492455 -322165l10622 -206 529253 140 183 56304 0 48259 -540156 29 98 -104525zm-1678053 142861l50568 502534c1855,-1944 3171,-8571 3819,-7099 4227,9607 3876,-33721 24298,-37591l3075168 -15362c7367,-10167 -14808,-5913 12246,-8956 -51409,-94997 -33778,-81893 14340,-247288 76944,-264478 138498,-538438 173412,-814948l-181246 -2453c-33557,72192 -101407,30882 -174781,19655 22386,105579 -31706,128330 -134969,127668 -659345,-4227 -537482,53318 -614414,-214511 -56043,-15468 -137620,-58281 -183122,-85169 -30807,-18205 -53854,-31518 -81931,-51432 -29201,-20711 -46674,-38682 -73222,-54385 -10727,7114 -4755,2354 -15065,12637l-211465 242676c-17251,18777 -22730,20183 -38804,40872 -63880,82221 -297806,332024 -329852,381979 31870,78334 37177,175454 -67800,208292 -104232,32604 -145140,-42872 -170154,-102995l-14314 -28487 -622741 -133634c-41634,145315 -192357,70503 -210073,65902 -35830,39489 -77444,69212 -116611,105739 -36281,33835 -65405,89958 -113288,96358z"/>
    <polygon class="fil13" points="16841259,609458 17527057,610250 17527487,344845 16843230,344904 "/>
    <path class="fil13" d="M16841697 226753l-1595 45238 687743 888 -264 -46140c-27875,-12300 -655758,-12455 -685884,14z"/>
   </g>
   <g>
    <path class="fil14" d="M17473750 13865462c-3453,71478 -6286,142045 -9922,213141 -1830,35787 -3144,72515 -5904,107708 -3149,40136 -16364,74650 11708,92381 73699,22798 174686,20249 252902,9169l25656 -1661c3112,-32836 -2141,-25546 13160,-46115 -9044,-78277 82690,-563983 101632,-679285 56042,-341125 105409,-658960 178460,-996366 37713,-174189 158180,-896362 223640,-948332 103943,94559 608862,2083254 725403,2537147 15670,61030 25311,135661 57400,149452 93915,8888 176871,29079 276010,11377l25298 -11786c-27303,-212855 -81637,-448546 -118501,-663342 -38372,-223579 -76731,-441351 -107400,-668232 -40950,-302948 -56186,-718564 -96334,-1069721 -12251,-107145 -36713,-233722 -42749,-338616l-16424 -22487c-115809,11823 -88320,-21560 -138522,-112652l-1121010 2044c-46356,396621 -126249,776872 -164111,1172750 -39009,407871 -63272,851129 -70393,1263426z"/>
    <path class="fil14" d="M7413212 10356742c-75337,-91923 -37739,-561726 -3363,-694137 55301,89418 116858,208178 127105,341725 7025,91543 -76159,295379 -123742,352411zm-526644 -204256c9302,90354 46834,189538 82777,260141 37304,73277 92709,148334 119407,215621l-13594 7100c-19278,35985 -13901,30477 -6927,75601 3652,23627 6110,44590 11923,65752 14909,8388 1234,4879 21412,6810l61299 -11847c9926,26256 26367,42061 18034,68628 -13104,41781 -30162,35912 -25331,92600 14997,3032 154455,91501 178254,112040l-9653 9177c-12311,14175 1159,-6402 -12103,14737 -7012,11177 -10865,25561 -16308,40414 25467,9399 20610,16101 32029,46694 67482,180798 12196,117065 35232,192041 6752,21974 2729,12522 12810,26063l-3571 -101992c30255,-8744 290745,-150007 304435,-168092 63710,-84170 -40542,-297757 -73071,-364873 -54132,-111689 -26231,-77199 96233,-306102 41012,-76656 136258,-228914 158780,-303643 29624,-98297 -90351,-679339 -123216,-794044 -17645,-61586 -35611,-115933 -50891,-181057 -23579,-100499 -2937,-106196 -92961,-138363 -112956,-40363 -233455,-83160 -346639,-117939 -25058,78639 -62825,161693 -94069,238661 -70372,173358 -86991,82099 -161884,164598 59571,72464 56578,22720 25306,188433 -21248,112593 -106919,630097 -127713,662841z"/>
    <path class="fil14" d="M6306049 9063383l-94975 50038 -23794 30444 -69596 183576 -228550 603183 -30332 1865 79433 311765c73373,11228 141224,52537 174781,-19655l48851 -96054 95489 -243651c12416,77788 37982,154290 39190,238797l-2285 103362c-34914,276510 -96469,550470 -173412,814948 -48118,165395 -65749,152290 -14340,247288 17590,4744 -2892,-7042 21026,9990 11328,8067 12896,11672 22148,21467 25071,26546 24790,18018 37259,53313 25012,-20366 19592,-17781 30193,-50166 6404,-19562 11526,-39205 18490,-61538 11642,-37339 24641,-81562 37305,-122478 22583,-72964 55698,-177991 67550,-254789 58177,-5764 34509,617 49764,-26984 2840,-32658 14670,-86954 15784,-119337 -40682,-5073 -19459,876 -37392,-14111 15931,-126713 102919,-506747 89256,-598768l-24456 -637862c-5869,-117259 236,-94963 54302,-160125 -15617,-32171 -29772,-41095 -50819,-72151l113991 -301918 -244861 109551z"/>
    <path class="fil14" d="M1909452 8098068l-2632 99478c19950,39074 37484,116815 63063,168805 27157,55198 57093,106234 85844,151475 83054,28875 138588,18369 210232,-23227 47430,-27536 110734,-78039 144131,-112251 -29108,-65208 -37367,-90285 -6379,-157794 130432,-5379 22117,138217 152235,141719 -9145,-68404 -27283,-130115 25143,-168221 28184,-54462 2518,-123934 -26673,-166804 -47028,-69065 -51635,-60759 -113853,-108061 -68924,-22310 -87155,-31583 -168373,-24013 -87742,15820 -130811,38282 -203688,68742 -40722,17020 -66944,17119 -99465,42836 -35842,28343 -37795,47376 -59584,87316z"/>
    <path class="fil14" d="M10096872 6774837c95102,2829 216276,-30484 254315,-132331 17222,-46111 11610,-28137 -5253,-60086 -23275,-44099 -26571,-83258 20370,-113113 68803,-14426 69087,51324 97885,89871l38018 -23524c-12302,-70346 -74205,-118686 36207,-159937l-1927 -27382c-60563,-244678 -304475,-288771 -501072,-127313 -141805,116460 -117054,285366 -20590,442432 30213,49191 52046,70639 82047,111381z"/>
    <path class="fil14" d="M6334102 13994050c26268,64777 -91983,146579 -163322,167208 -92202,26661 -204606,41119 -198305,140926 238534,154935 592744,-68719 600964,-85671 28978,-59762 -23076,-170226 -23324,-230285 -2946,304 -11674,1227 -14285,1427l-201727 6396z"/>
    <path class="fil14" d="M7085957 14002793c-9105,71423 -89758,138873 -152303,165331 -355487,150378 -6081,294994 233766,145182 235328,-146990 152615,-118777 127693,-319351 -52233,9528 -144128,-4036 -209156,8838z"/>
    <path class="fil14" d="M11574060 6356462c-3602,29769 -371,49620 30048,53265 39596,4744 38569,-20609 33360,-54398 -21346,-13472 -36109,-24605 -63408,1133z"/>
   </g>
   <g>
    <path class="fil15" d="M9105543 1788969c68182,142610 278667,703458 353107,893528l306672 778764c20343,51992 23231,84987 55142,101910 214405,-105811 705131,-219012 975432,-248063 -4825,-132158 -34354,-298647 -50948,-432813 -17500,-141498 -34261,-278437 -51789,-419593 -14787,-119072 -83204,-781928 -113291,-836405 -123210,-3892 -245265,-20836 -364736,-21566 -114321,-699 -244609,4900 -328305,-53267 -70213,-48797 -99434,-183958 -66142,-295664 25127,-84309 19710,-63568 -6146,-148179 -11132,-36427 -21082,-115420 -52923,-133590 -146406,26092 -769046,213584 -865912,277137l209838 537802z"/>
    <path class="fil15" d="M10270034 866282c-65303,39118 -34470,11159 -98445,179771 -18869,49733 -72306,164616 -59136,217096 90189,20511 289119,-14784 386173,-41078 40805,-11055 33345,-1936 36204,-31890l-41593 -351021 -223203 27122z"/>
   </g>
   <g>
    <path class="fil16" d="M1621851 11347708c-5600,212740 -68774,454478 -93576,671289 -26146,228562 -58394,449033 -91663,673288 -101527,684349 -94689,606486 -69017,1244371 9188,228289 26334,87602 32273,150889 -17642,74952 -61604,239631 -40636,317097 61632,41756 217473,26391 307824,25706 76531,-578 248780,12724 295951,-38290 38256,-41373 -1413,-90595 -29040,-108973 -74687,-49683 -188263,-27764 -318784,-186839 17802,-46417 24648,13806 40744,-91104 5879,-38317 12874,-76951 19272,-114377 13205,-77251 25536,-150509 39293,-228052 26672,-150348 52528,-300999 80561,-452901 78821,-427114 76650,-439471 206961,-848365 41961,-145385 87097,-287118 129893,-433134 39905,-136152 78619,-312785 124454,-436505 113158,175633 270651,782246 295275,1029994 24985,397442 14917,413656 94807,816993 29679,149841 133071,613242 178242,737651l72642 205c-53917,339171 -133915,356666 148452,353016 133782,-1730 575852,35087 551159,-93018 -30696,-66614 -192039,-79674 -272996,-100026 -90140,-22661 -199361,-90886 -209832,-158889l52909 -7980c-44259,-514109 -70074,-1034104 -114486,-1549569 -15853,-188163 -16020,-387342 -22741,-576701 -3501,-98628 -7189,-195504 -13319,-293935 -5859,-94090 -23353,-175001 -32822,-264629l-17926 -22083c-370600,71285 -968787,56039 -1325351,-31634 -7829,6931 -5126,-4572 -18521,16507z"/>
    <path class="fil16" d="M6186941 11374059c-49643,167082 -90291,408432 -124515,588543 -41450,218131 -71429,433845 -65493,662881 14226,194881 102602,491033 149612,682232 50108,203802 134341,476274 154171,684020l33386 2315 201727 -6396c2610,-200 11339,-1123 14285,-1427l44157 67c7073,-42170 -98421,-627180 -113201,-726665 -29687,-199813 -93886,-564644 -35816,-749529 32725,-169697 251028,-996807 319193,-1076496 8068,-39842 4638,-17390 17221,-26060 46269,73845 70097,520114 80064,642472 18007,221081 43485,427193 68278,645024l118231 1306581 37716 1173c65027,-12874 156923,690 209156,-8838l29767 -4220c21757,-183804 11330,-464726 14123,-660305 3123,-218657 6954,-447865 -2672,-665050 -8954,-202007 20411,-436574 30354,-641565 10443,-215320 15502,-432346 9144,-648756 -10081,-13541 -6058,-4089 -12810,-26063 -23036,-74976 32249,-11243 -35232,-192041 -11419,-30593 -6561,-37295 -32029,-46694l-21665 53530c-33706,-10634 -205048,-99667 -221497,-117858 54398,-83354 102913,-32596 102971,-112040 -4831,-56688 12227,-50818 25331,-92600 8332,-26567 -8109,-42372 -18034,-68628l-61299 11847c-20178,-1932 -6502,1578 -21412,-6810l-303933 42968c-13814,15479 5703,5372 -29403,13301 -5292,1195 -24717,3023 -30871,3624 -24951,2435 -42121,4447 -66714,3147 -20315,11226 -183270,22368 -223013,24240l9898 -123762 -30089 -1451c-1113,32383 -12943,86679 -15784,119337 -15256,27601 8412,21219 -49764,26984 -11853,76798 -44967,181825 -67550,254789 -12664,40915 -25662,85139 -37305,122478 -6964,22333 -12086,41976 -18490,61538 -10601,32385 -5181,29800 -30193,50166z"/>
    <path class="fil16" d="M17882771 8383767c74930,33498 199517,27110 292826,31311 212552,9572 83451,115563 125066,174138 44639,-12835 9065,-24860 58871,-134532 144332,-30889 45823,89453 108477,204237 45835,-86215 84625,-252126 93479,-362622 5740,-71646 -7097,-134458 -57558,-168175 -26369,-17621 -56141,-18298 -81645,-34175 -25820,-16074 -34916,-26570 -66528,-40058 -98822,-42170 -273408,-39989 -374364,2571 -70462,29705 -137558,220012 -98625,327306z"/>
    <path class="fil16" d="M12563178 786004c54673,-20612 97525,-62470 174020,-74047 51558,-7803 173331,4972 247636,-347 55161,-56171 143094,-159630 189977,-193492 89462,-64616 202230,-4092 331956,-14516 11062,33813 31004,93168 61769,105802 66671,-107173 47013,-306312 -61739,-401076 -142340,-124031 -417808,-37072 -542326,161686 -70303,112219 -128571,229553 -236647,305797 -53365,37647 -131019,58534 -164646,110192z"/>
    <path class="fil16" d="M12998137 945022l14592 197944c-11104,32259 3782,9723 -20203,28109 3624,102860 -1856,348345 49350,416604 78652,42007 79860,64973 206908,56881 93340,-5945 137047,-29282 179938,-92134 -604,-129706 -69874,-242284 -110690,-354268 -20090,-55121 -42248,-123108 -44684,-188329 -3479,-93136 24111,-108893 57065,-165819 -35887,4267 -62177,35568 -91614,23287 -31732,-13238 -32376,-46041 -86359,-17699 -54680,28708 -97783,68254 -154301,95423z"/>
    <path class="fil16" d="M6786213 7802989c-10595,9123 -227141,80652 -262760,98707 -15738,80523 -12508,148779 45637,186175 85686,6388 231151,-31494 297625,-9596 89984,29644 26043,174719 6424,247440l72287 -9922c138,-43640 -4124,-80150 22600,-109076 21641,-23426 67366,-42793 94427,-14361 40470,36112 -9180,88245 -20255,125367 -9679,32444 -1238,121723 13755,146114 73717,-128640 159642,-274631 139015,-468128 -4436,-41622 -15652,-87297 -37431,-119865 -25762,-38523 -52117,-34246 -99861,-52448 -113004,-43083 -159964,-12987 -271464,-20405z"/>
    <path class="fil16" d="M6724661 9159022c15135,75261 8215,26034 -28072,163222 -15706,59376 -29475,117623 -41116,180894 -53283,289621 -33041,531312 1387,821491 22456,189265 20455,205886 123173,317942 16591,-50184 43026,-112800 33049,-171872 -10571,-62584 -21637,-120499 -29911,-183070 -35301,-266965 -46025,-559291 -11257,-826630 4907,-37728 23708,-242872 44556,-276212 16417,-26254 20412,18842 10532,-97047l-11317 -52499 -6972 1020c-43088,43310 -54709,73489 -84052,122761z"/>
    <path class="fil16" d="M10811868 12109749c65140,42041 191099,24093 283864,24944 106298,976 195620,9782 294890,-21385l51966 -32643c546,-69529 -28008,-68273 -88014,-84730 -167112,-45831 -215992,-27826 -320251,-161245l-187763 -8356c-16448,70999 -52628,211881 -34691,283415z"/>
    <path class="fil16" d="M9581433 12114194c76444,41074 401984,27741 498516,1512l28334 -26098c2346,-98920 -68715,-100459 -148180,-131541 -77551,-30331 -117908,-70415 -155399,-121727l-187490 -9555c-19160,69974 -49673,217134 -35780,287410z"/>
   </g>
   <g>
    <path class="fil17" d="M2990977 11358298c-10249,8900 -10761,-23105 -7328,26620 9470,89628 26963,170539 32822,264629 6130,98431 9818,195307 13319,293935 6721,189359 6888,388537 22741,576701l2932391 -427c-55,44111 -3404,70882 12011,105727 -5936,-229036 24043,-444751 65493,-662881 34224,-180111 74872,-421461 124515,-588543 -12469,-35296 -12188,-26768 -37259,-53313 -9252,-9795 -10820,-13399 -22148,-21467 -23918,-17032 -3436,-5246 -21026,-9990 -27054,3043 -4880,-1212 -12246,8956l-3075168 15362c-20422,3871 -20071,47198 -24298,37591 -647,-1472 -1964,5155 -3819,7099z"/>
    <path class="fil17" d="M2002014 12361446l28439 19329c209257,183344 245693,120004 521182,141026 -24624,-247749 -182117,-854361 -295275,-1029994 -45835,123720 -84549,300353 -124454,436505 -42797,146016 -87932,287749 -129893,433134z"/>
    <polygon class="fil17" points="475911,7681872 1095506,7680194 911989,7289420 287720,7291812 "/>
    <path class="fil17" d="M14889341 5437074l-19744 -35056c-42071,22439 -244478,201514 -302033,247925 -210420,-159475 -72691,-147373 -420873,-145560 -107030,557 -80537,8240 -143960,-44828l-206897 -175872c-66986,-61165 -133342,-111182 -198142,-172891 -33224,10621 -68252,50696 -96413,74916l-275675 231682c-63322,54400 -122334,101420 -182398,155616l-138781 118873c-110535,104200 -213809,19058 -368205,47522 -30184,5564 -32214,16328 -56391,35150 -21385,16649 -20084,17152 -42477,37294l-364927 311091c-26318,21094 -74956,54556 -85541,82756l18278 33044c54261,-12918 24969,-8098 62937,-39499l442591 -375805c30172,-25259 10012,-24135 52072,-29675 76958,-10134 264414,19134 317060,-10487 19852,-11169 31673,-23693 48744,-39932 19709,-18749 24652,-20217 44120,-36231l177294 -151807c17780,-14796 24576,-24467 41919,-37898l222411 -186936c32679,-30213 147439,-133428 180909,-147560l407967 347519c59692,56350 245169,7912 356540,25979 59219,9606 149810,135690 216691,160112l274717 -238597c8203,-6780 13245,-9760 19970,-16689 17679,-18217 5583,-1855 18236,-24157z"/>
    <path class="fil17" d="M14493290 4836301c-11198,-28430 -970,-14141 -28244,-37343 -45313,17827 -126558,134946 -162332,145231 -12442,3577 -282080,4537 -305846,1785 -40194,-4655 -131176,-111490 -163705,-144166 -35209,-35367 -119566,-133191 -160296,-146292l-489765 483303c-21945,-28183 -117064,-128730 -147551,-142062l-483486 477109 -202142 -195113c-58450,64942 -120589,121785 -182446,183503 -19241,19197 -72440,78809 -90729,85585 -47141,17463 -116563,-6514 -168684,10209l1994 46186c27547,4946 144956,7532 171697,2408 32168,-6164 72128,-58074 95386,-81329 57183,-57172 119820,-114698 171281,-172891 65939,28456 149387,168250 217290,195653l477005 -477363c44088,32441 108512,120300 152431,140367l478995 -483159c31061,14493 197438,187404 240755,232294 42900,44460 34072,38052 116081,37012 411777,-5222 231069,45467 462310,-160926z"/>
    <path class="fil17" d="M6445255 12510100l19446 -11746c68705,-38068 118774,-44822 190261,-130024 146659,-174797 109813,-347743 109987,-584986 84,-113301 5475,-238258 -500,-349740 -68165,79689 -286468,906799 -319193,1076496z"/>
    <path class="fil17" d="M0 7288648c26639,73249 62725,135441 95562,203663 21337,44331 66520,169289 103823,190165l134621 -1143 -184292 -392626 -149715 -59z"/>
   </g>
   <g>
    <path class="fil18" d="M14450653 9930707c-13450,32563 -47718,66096 -70868,92530 -26099,29799 -42124,67984 -79876,78237 -44362,97230 -313838,287504 -334571,350743 25711,5044 48327,8787 71524,18586l585668 205977c23579,9157 -2929,-142 18466,8283l196667 70214c2099,805 4360,1770 6524,2518l1100202 386390 180821 -237598c31999,-43406 142025,-211111 169653,-234686 11885,-46629 42370,-75885 66813,-115562 18654,-30283 47544,-85893 71851,-104953 32774,-76998 100791,-174799 144199,-258184 98079,-188405 314589,-632328 365190,-825264 -58623,-6152 -17431,-5657 -38373,-12017 -62237,-18899 -13267,4572 -74316,-23746 -1794,-831 -3941,-2121 -5764,-2895l-289003 -101419c-17869,-5603 -9739,-1653 -27459,-9074l-196550 -69328c-29196,-7666 -32184,-1225 -59794,-12217l-102496 -47514c-40080,-9493 -22897,-13174 -57763,-22632 -35092,-9519 -21801,-714 -55915,-16592l-153801 -50810c-59455,-27071 -66906,-17550 -112822,-37943 -2565,-1139 -9638,-4885 -12099,-6083l-64222 -24572c-32739,-13775 -25481,-8941 -60020,-18898 -36939,-10647 -6443,-1912 -26311,-10564l-58865 -20917c-74882,-31363 -125996,-37689 -169363,-52514l-57386 -21686c-58562,-12603 -37743,-16870 -85046,-41310 -44567,-23025 -71458,-4895 -102175,-33482 -33010,43685 -49041,118971 -70194,170534 -111762,272425 -248761,521217 -411024,762341 -48454,72003 -149527,218728 -201503,266108z"/>
    <path class="fil18" d="M2272189 7899174c81217,-7570 99449,1703 168373,24013 13108,-20442 12086,-77392 17565,-109063 5789,-33472 12115,-59155 23986,-90753 22389,-59598 50421,-109843 82577,-148864 62701,-76090 148057,-147177 279729,-182501 577022,-154801 915595,618856 439581,946373 -93099,64056 -227975,109651 -371614,91041 -194202,-25160 -244345,-115543 -315917,-150875l4038 226113c158572,70210 254513,130706 479014,100374 195549,-26421 364238,-139436 461182,-267870 177080,-234601 197701,-549030 46967,-796698 -364650,-599149 -1300575,-372431 -1315480,358712z"/>
    <polygon class="fil18" points="5584897,8137432 5740973,8138632 5743950,7577863 5586387,7580022 "/>
    <polygon class="fil18" points="5879306,7806595 5879266,8184915 6038796,8189595 6038752,7765001 5879363,7769088 "/>
    <polygon class="fil18" points="4400405,7897336 4556536,7898737 4559860,7486303 4399535,7487955 "/>
    <polygon class="fil18" points="4693631,7976289 4852219,7977315 4854415,7608703 4693260,7611849 "/>
    <polygon class="fil18" points="6181601,7468528 6181740,7530803 6181442,7631720 6340067,7637481 6340109,7557492 6340115,7306111 6181603,7310086 "/>
    <polygon class="fil18" points="5303615,8288562 5462725,8291971 5462637,8018782 5303537,8017048 "/>
    <path class="fil18" d="M4120316 8013093c29980,-11275 57019,-36164 78110,-40784 36396,-7972 36735,20239 79037,36495l2592 -287044 -160821 3696 1082 287636z"/>
    <polygon class="fil18" points="4995646,8158951 5155823,8163747 5155366,7897181 4997375,7898925 "/>
   </g>
   <g>
    <path class="fil19" d="M2497673 8816808l-401018 -16513 -196828 43794c-335240,119927 -319712,14288 -428496,323798 -65751,187074 -119086,378379 -175603,571704 -28877,98775 -56507,199625 -80668,302173 -29520,125295 -45475,925642 -48879,1080318l45819 -7437 215958 -52446c29689,-27485 39783,-303877 43256,-346468 9806,-120224 19599,-240093 31514,-360711 11123,-112592 100554,-552867 155434,-624909 23588,74909 41259,308743 51166,399392 17956,164300 24248,242637 1530,407851 -28107,204399 -109747,629462 -123102,774475 34666,25632 25183,-3906 34095,35879 13395,-21079 10692,-9576 18521,-16507 356564,87673 954751,102920 1325351,31634l17926 22083c-3433,-49726 -2921,-17720 7328,-26620l-50568 -502534 -5922 -60056c-23597,-111823 -33488,-283483 -46828,-403228 -52445,-470770 -38711,-374870 -7999,-841680 5992,-91089 36455,-82969 101177,-118831 145987,-80887 291661,-144005 441680,-234424 51454,-31013 94958,-55019 144555,-86670 121195,-77341 254088,-225048 349972,-326210 74089,-78168 131305,-158501 202164,-235999 31036,-62701 108577,-121629 134930,-190486 -11505,-21313 -13044,-16546 -23298,-35029l-184721 -100489c-99130,60243 -337443,480849 -601205,579235 -460419,171742 -474103,118748 -947240,14911z"/>
    <path class="fil19" d="M9654316 553363l-18304 -73484c32539,-19927 76946,-49266 112865,-18479 5406,4633 8213,10096 12236,15530l7722 11404c876,1275 2392,4049 3940,5802 17475,-62638 28608,-184654 -4277,-237428 -55882,-4798 -103614,4661 -158054,5339 -114616,1429 -155890,-64785 -310247,-7400 -48959,18202 -90008,33133 -81076,96657 61231,66178 164949,29140 247371,72580 73092,38524 127696,95128 187823,129478z"/>
   </g>
   <g>
    <path class="fil20" d="M12053559 1578819l-114497 -3485 -94420 14902c-420398,24528 -841890,40126 -1264775,36061 30087,54477 98504,717333 113291,836405 17528,141157 34289,278096 51789,419593 16594,134166 46122,300656 50948,432813 654874,-89381 1330355,4358 1942881,232650 70894,26423 157413,71045 223145,88653l571167 -1284448c-27686,-50928 -55980,-43319 -91312,-103450 -29429,-50086 -65322,-62625 -105380,-90432 -209697,-145567 -248788,-198068 -433383,-349387 -32440,-26592 -77499,-59389 -93989,-101814 -17963,-46211 -9647,-119390 -40992,-153865 -96979,6045 -230191,24888 -339592,31289 -122456,7166 -252251,158 -374880,-5486z"/>
    <path class="fil20" d="M13041875 1587679c49265,101211 304792,383334 394817,461221 118288,102341 63771,90349 192626,100200l189575 -445621c-106481,-30447 -287249,-137513 -390173,-151054 -42890,62852 -86598,86189 -179938,92134 -127047,8092 -128256,-14874 -206908,-56881z"/>
   </g>
   <g>
    <path class="fil21" d="M2078475 5934828l3397201 2831c122164,-10510 608968,-2411 772293,-2927 250181,-791 541622,-64370 513638,252268 -10387,117535 -96824,170558 -220020,170595l-1144529 -750 -7735 5648c-4169,75410 -18746,140584 -28035,208467 -8937,65316 -12408,144914 -26651,205288 203539,-351 407285,-174 610904,-208 173052,-29 429208,-26348 574081,46923 310665,157123 243228,479737 243924,832392 86,43174 -7963,128300 10639,151298l711 -284181c46303,0 28383,11330 55526,21973 21356,8375 19358,1760 39101,5663 45469,8988 2134,13922 55156,24918 10795,2238 18970,541 32345,3214l97544 26669c54735,31052 25718,1593 71410,26505l52707 27402c19451,11609 6413,14897 54401,14897 -2618,-212915 -21171,-431381 4280,-646053 25343,-213764 44137,-378741 90035,-578156 112261,-487749 330400,-986199 607401,-1386723 124096,-179434 172026,-224619 290288,-376698 16380,-21064 25208,-25914 43182,-45508l121076 -127935c29647,-31081 55979,-53507 85000,-84053l439286 -382185c-35898,12509 -37839,2090 -71078,-305l72 -35646c-6901,-619 -27574,-4790 -27735,-4791 -46955,-460 -29,13531 -44324,6525l-120958 -29404 -11389 -43443c-130194,811 -66158,1663 -154999,-21905 -34826,-9239 -48640,663 -75983,-13817 -20299,-10749 1684,-18970 -68953,-18578 -1445,-2037 -3077,-4967 -3876,-6411l-13913 -28255c-26109,-447 -62442,-5403 -88080,-11138 -44648,-9985 -38750,-5700 -39152,-59649 -49215,-4620 -118825,-36951 -160285,-52348 -151622,-56310 -81343,-26647 -151069,-19210 -769,-57535 2038,-25991 -16894,-35444 -136,-67 -72060,-16403 -96008,-44684 -19619,7858 -12848,17593 -38550,26749 -10360,-7994 1640,-8666 -41505,-9580 -1493,-2094 -2215,-5457 -2928,-7137 -36799,-86744 -139968,-64141 -247943,-64273 -3773,-42842 -16474,-26855 -71160,-26690 -8484,-34805 -19210,-37191 16662,-52250 -35623,-268 -107749,-31689 -149141,-44918l-76843 -30015c-22641,-7370 -39612,-10627 -61320,-19076 -124413,-48420 -67922,-38500 -175040,-30751l73 -35646 -21280 0c-14257,28141 23003,12721 -33708,17218l13141 -28893c-43434,18608 -122102,124920 -160841,168507 -398499,448365 -786735,1131921 -1002411,1693049 -64504,167820 -139472,385821 -185801,560799 -9138,34509 -18328,66985 -26226,98197 -16229,64139 -10395,82473 -38977,89514l-3386736 2123z"/>
    <path class="fil21" d="M16079022 15226301l2355173 0c-14696,-38808 -297387,-421886 -346039,-490714l-259853 -362591c-71475,-99962 -55653,-57365 -66954,-132911 -15302,20568 -10048,13279 -13160,46115l-25656 1661c14204,199338 71705,153611 -114830,233735 -34946,15010 -58425,27416 -91065,43196 -122284,59120 -329511,43320 -429908,-23523 -6679,-121025 167662,-88534 297765,-176762 55924,-37924 78192,-49774 85136,-85815 -28071,-17731 -14857,-52245 -11708,-92381 2760,-35194 4074,-71922 5904,-107708 3636,-71096 6469,-141663 9922,-213141 -37322,-21101 -156183,-205364 -191410,-254037 -118190,-163304 -1253354,-1758330 -1285475,-1782121 -32048,10699 -338642,235854 -390258,274345 -129683,96705 -259457,182865 -387548,279732l-771139 559711c-976,-1695 -3746,3686 -5432,5697 18741,41644 376330,527378 410250,574456l1026420 1420358c34320,48498 66513,92984 100700,139547 26227,35721 81136,103800 99165,143151z"/>
    <path class="fil21" d="M15213203 6239215c20469,123352 66751,258193 89880,391311 24028,138300 43124,275858 54502,419296 23712,298921 11959,611246 -31065,899490l-47901 259173c-30544,188463 -97277,355924 -145245,523238 30717,28587 57608,10457 102175,33482 47303,24439 26484,28707 85046,41310l57386 21686c43367,14825 94481,21151 169363,52514l58865 20917c19868,8651 -10628,-84 26311,10564 34539,9957 27281,5123 60020,18898l64222 24572c2461,1198 9534,4944 12099,6083 45916,20393 53368,10872 112822,37943l153801 50810c34114,15878 20822,7073 55915,16592 34866,9458 17682,13139 57763,22632l102496 47514c27610,10992 30598,4551 59794,12217l196550 69328c17720,7421 9590,3471 27459,9074l289003 101419c1823,774 3970,2064 5764,2895 61049,28318 12079,4847 74316,23746 20942,6360 -20250,5865 38373,12017l123384 -397867 -64091 -78487c-79127,-98185 -102538,-169153 -144879,-299763 -41361,-127588 -121856,-332745 -142121,-457362l56107 -9227c-8114,-37973 -34350,-120094 -48942,-163856 -16748,-50227 -54818,-95354 -56168,-153480 32077,-794 32460,2143 75288,49161 -3775,-61849 -67516,-304987 -66586,-327728 2324,-56753 -10560,45804 2278,-13736 18707,-86755 190449,172220 201523,191945 54438,96970 39828,259508 43336,385388 24898,10944 21336,20282 34570,52715 9721,23822 19703,45857 28854,69073 18009,45687 37278,92663 55083,140618l74688 218894c3377,10664 7600,24973 10886,33241 4374,11004 3475,9676 8825,19278 12873,23101 2935,6918 12416,18189l22649 -79475c3318,-90640 42399,-246930 57353,-347205 88096,-590750 86116,-1265575 -17991,-1852484 -19799,-111615 -40526,-224788 -66465,-334329 -22129,-93457 -65435,-229541 -77457,-317262l-1852254 525039z"/>
    <path class="fil21" d="M16779666 10436795c2238,2179 4310,5142 5776,7381l45873 211478 145700 731306c8352,33143 -186,19398 17125,39796l-1249 -1618897c-14999,30730 -946,69756 -13093,113477l-149377 1717 8412 124266 -122527 10327c-15817,79458 63753,277860 63360,379149z"/>
    <polygon class="fil21" points="7928153,6908147 8829083,6907586 8830213,6779120 7925035,6779930 "/>
    <polygon class="fil21" points="14368115,6908167 15181090,6908169 15182093,6779098 14364425,6779067 "/>
    <polygon class="fil21" points="14364939,7135851 15019989,7133447 15017652,7005860 14366096,7005780 "/>
    <path class="fil21" d="M7925553 7135182c118508,2372 486223,15137 580900,-4333l-1656 -124844 -578247 70 -997 129108z"/>
    <polygon class="fil21" points="11351803,7132879 11829471,7135754 11826087,7005845 11530152,7004167 "/>
    <polygon class="fil21" points="11567185,6910414 11735680,6906422 11736300,6780190 11600443,6779150 "/>
    <path class="fil21" d="M11186073 6909944c53487,-19805 156154,-90036 186184,-127083l-195363 1344c0,39973 -7621,94069 9179,125739z"/>
   </g>
   <g>
    <path class="fil22" d="M3501406 9971537l33588 -1360 471997 206 31710 1049 2325 102587 -540507 1672 886 -104154zm2677557 -2326241l159968 -30c0,563 5573,926036 -5842,966374l-153165 -1103 -932 -679389 -29 -285851zm-301709 549300l158899 3447c2807,70375 9812,363751 -5167,413835l-154152 -1218 421 -416063zm-292356 -57163l1490 -557410 157563 -2159 -2976 560769 1877 472977 -160384 -3220 2432 -470956zm-282568 160442l159847 1304 -40 183553 66 128642 -68151 446 -35580 20 -56883 30 433 -66862 307 -247133zm-307581 -127468l159051 1045 1243 440275 -63420 -508 -35580 -7 -26696 319 -34602 -1616 4 -439508zm-301118 -194117l-371 -364440 161155 -3146 -2196 368612 30 634086 -159670 -2172 1051 -632939zm-293225 -78954l-870 -409381 160325 -1652 -3324 412434 1137 712061 -159886 418 2618 -713881zm903132 119712l159100 1734 88 273189 -159110 -3409 -78 -271514zm575826 -247960l159389 -4086 44 424593 -159530 -4680 40 -378319 57 -37508zm-881989 129837l157991 -1743 457 266565 -160177 -4796 1729 -260026zm1184228 -588839l158512 -3975 -6 251381 -42 79988 -158625 -5760 298 -100917 -139 -62275 2 -158442zm-1407219 -301427l543168 24 -3198 123869 -542945 -1262 2975 -122631zm-2947 -223282l565241 -87c-9261,130693 9112,120848 -57172,120822l-506855 -994 -1215 -119740zm-2861984 1312692c21790,-39940 23742,-58973 59584,-87316 32522,-25717 58743,-25816 99465,-42836 72877,-30460 115946,-52922 203688,-68742 14905,-731143 950830,-957860 1315480,-358712 150734,247668 130113,562097 -46967,796698 -96944,128434 -265632,241449 -461182,267870 -224501,30332 -320442,-30163 -479014,-100374 -23396,108626 -34015,182272 -131521,210038l-2473 26938c28033,28035 26176,26565 31160,75177 473137,103837 486821,156831 947240,-14911 263762,-98386 502076,-518992 601205,-579235 7967,-77795 38325,-170529 74197,-209570l-1082 -287636 160821 -3696 -2592 287044c34154,25289 84052,69771 108252,100273 -5701,51606 -27708,58649 -49966,97989 -22024,38927 -40115,54181 -62918,81650 15452,40571 4942,253980 4942,316104 -47811,14916 -109073,6428 -160221,6482l1656 -62636c-70859,77497 -128075,157830 -202164,235999 -95884,101163 -228777,248869 -349972,326210 -49597,31651 -93101,55657 -144555,86670 -150018,90419 -295692,153536 -441680,234424 -64722,35862 -95185,27742 -101177,118831 -30712,466810 -44445,370910 7999,841680 13340,119745 23230,291405 46828,403228 54539,-25783 126038,-129233 202016,-176474 -2659,-26625 -44178,-165945 84198,-200659 93816,-25367 156867,36746 170808,119031l632099 135201c64821,-93347 89680,-82367 195923,-64306 16604,-29119 49111,-59078 72490,-87572 23023,-28060 52184,-61042 74643,-85520 54667,-59578 96421,-113371 150517,-169483l149908 -170426c44955,-56308 112371,-116573 146872,-172600 -46969,-26855 -42106,-59940 -41639,-132323 384,-59604 -3159,-126366 2209,-184865 27359,44304 58405,90195 96184,112479 39651,-67101 89861,-103677 188642,-68506 13558,-46698 -78771,-283885 -73959,-357024 4949,-75243 69539,-78271 141655,-77943l454244 13c127943,1026 116541,40475 169232,272660l52403 182046c53107,-88744 128985,-179234 190571,-267004 29986,-42734 59819,-80666 94076,-128145 31562,-43745 61749,-93340 99702,-130424l23794 -30444 90266 -127708 35262 21402c-9511,25977 -16471,28165 -30553,56268l244861 -109551 98056 -45501 9521 -7408c24292,-18708 50499,-41427 81360,-54340l1022 -79162 -48094 -18502c-44898,-14637 -60319,-31777 -85095,-83374 -103935,-216452 -88315,-366110 -38590,-577674 -58144,-37396 -61374,-105651 -45637,-186175 35619,-18055 252165,-89584 262760,-98707l-12028 3664c-18602,-22999 -10554,-108125 -10639,-151298 -697,-352654 66740,-675268 -243924,-832392 -144873,-73271 -401029,-46953 -574081,-46923 -203619,34 -407365,-143 -610904,208 -384486,-16701 -806122,-923 -1194777,-923l-1779227 -121c-188499,1395 -313828,96432 -382342,204041 -95071,149319 -70347,327172 -70347,524869 0,192059 -8489,404446 1509,593955z"/>
    <path class="fil22" d="M2440562 7923187c62218,47302 66825,38996 113853,108061 29191,42870 54857,112342 26673,166804l15381 80492c71572,35332 121715,125715 315917,150875 143638,18610 278515,-26985 371614,-91041 476014,-327517 137441,-1101174 -439581,-946373 -131671,35324 -217027,106412 -279729,182501 -32157,39021 -60188,89266 -82577,148864 -11871,31598 -18197,57281 -23986,90753 -5478,31671 -4457,88621 -17565,109063z"/>
    <path class="fil22" d="M1899827 8844090l196828 -43794c-7256,-41281 -8029,-60783 6810,-91410l-47738 -191060c-28751,-45241 -58687,-96276 -85844,-151475 -25579,-51990 -43113,-129731 -63063,-168805 235,103425 16387,585181 -6993,646543z"/>
    <path class="fil22" d="M5844273 9858391l14528 74098 30332 -1865 228550 -603183c-9421,7260 -7297,5135 -15983,13648l-169827 231148c-19352,26597 -76238,99058 -89248,124797 -21319,42176 48477,65210 1648,161357z"/>
    <path class="fil22" d="M6161866 10128545l134680 -4855c-1208,-84506 -26775,-161009 -39190,-238797l-95489 243651z"/>
   </g>
   <g>
    <path class="fil23" d="M13818893 1703479l-189575 445621c10788,50322 166479,115800 189792,224121 -48530,-12128 -75711,-70873 -134175,-101421 26315,52468 92292,96828 110611,170189 -10394,5605 -18461,15227 -41693,16920 -40703,2967 -56077,-35981 -84103,-43638 -17668,-4827 1030,-997 -13942,283 -62828,5372 -67238,-42617 -122720,-63590l-571167 1284448c38577,29689 169754,82462 225527,112242 73865,39441 139658,76608 209927,118933 314174,189231 353505,242645 581246,423812 104591,83202 432219,413121 486426,507560 27274,23202 17046,8913 28244,37343 79324,74540 319199,436988 376307,565718l19744 35056c63785,121748 125633,250111 181449,386538 45730,111774 117454,296327 142413,415603l1852254 -525039 1170663 -336379c-62024,-257755 -180015,-561768 -277771,-796307 -142332,-341487 -354716,-760909 -553312,-1065713 -220257,-338047 -317811,-471168 -564780,-778612l-799243 -819555c-525209,-451590 -1127234,-854274 -1796462,-1145333 -25857,23461 -269699,589117 -319427,700976 -26474,59552 -74773,183251 -106232,230225z"/>
    <path class="fil23" d="M16994140 11426756l714114 2530 1121010 -2044c-8331,-81317 40617,-180550 59536,-258264 -11978,-73141 12616,-293003 17388,-380943 7032,-129611 12953,-243805 12952,-374758 -1,-165602 17170,-200177 -45035,-342500 -35982,-82323 -104464,-190412 -129500,-262723l-1083627 1244 -668086 -1441 1249 1618897z"/>
    <path class="fil23" d="M19140266 11225918c30457,90748 26267,95694 27194,197627l387885 -588 -1465 -1616220 -405057 85c68017,261576 100792,412807 65084,701474 -29328,237091 -54664,478982 -73642,717621z"/>
   </g>
   <path class="fil24" d="M6879468 3322639l-13141 28893c56711,-4497 19450,10923 33708,-17218l21280 0 -73 35646c107118,-7749 50627,-17669 175040,30751 21709,8449 38679,11706 61320,19076l76843 30015c41393,13228 113518,44649 149141,44918 -35872,15059 -25146,17445 -16662,52250 54686,-165 67388,-16151 71160,26690 107976,131 211145,-22472 247943,64273 713,1680 1434,5043 2928,7137 43145,914 31145,1586 41505,9580 25702,-9156 18931,-18891 38550,-26749 23948,28281 95872,44617 96008,44684 18933,9453 16126,-22091 16894,35444 69726,-7437 -553,-37100 151069,19210 41461,15397 111070,47728 160285,52348 402,53949 -5497,49663 39152,59649 25638,5735 61971,10691 88080,11138l13913 28255c800,1444 2431,4374 3876,6411 70636,-392 48654,7829 68953,18578 27343,14480 41157,4578 75983,13817 88841,23569 24805,22716 154999,21905l11389 43443 120958 29404c44295,7005 -2632,-6985 44324,-6525 161,2 20834,4173 27735,4791l-72 35646c33239,2395 35180,12815 71078,305l428893 -261983c80214,-42181 148910,-76742 230651,-116137l247284 -105112c-31911,-16923 -34799,-49918 -55142,-101910l-306672 -778764c-74439,-190069 -284924,-750918 -353107,-893528 -78854,17466 -259753,102728 -335949,140509 -502502,249162 -728162,374132 -1169926,716733 -89428,69354 -182026,143566 -257747,213931 -28262,26264 -454901,417142 -462452,462496z"/>
   <path class="fil25" d="M9415360 7017482c-22838,54377 137482,266742 173814,321009 89704,133986 126557,154135 167406,348514 64422,306559 87356,600569 105507,922380l10543 161063c148387,93438 748340,21665 920519,-30908l-8192 -142277c-9281,-143967 -20372,-289383 -21220,-434809 -748,-128004 42992,-257784 64023,-384439 27044,-162862 7646,-238949 101352,-351506 73003,-87690 192341,-101519 273726,-172478 17227,-106393 -61799,-235642 -96718,-310970 -79653,-4917 -224313,27826 -315011,33634 -80740,5171 -219001,-18787 -306385,-28343l-9548 -32131 -341082 12422 -9943 49296c-52681,10313 -105816,17793 -159208,24572 -80515,10223 -93622,15639 -146250,-27028 -103732,-84098 -139182,-169918 -192364,-163809 -61649,27183 -79498,55562 -118037,92194 -37173,35333 -57468,77640 -92931,113615z"/>
   <g>
    <path class="fil26" d="M11647220 12952853l462899 -1024 244452 752608 -956475 -166 249124 -751417zm-2796219 751274l255540 -781306c9403,37773 6723,18819 14506,29935l443571 -525 243948 752403 -957566 -507zm800171 -751290l1906940 1462 -242177 750264 -1424057 -152 -240706 -751574zm2430515 -77812l-413635 -2220 209864 -634096 203771 636315zm-2749999 -637869l204856 637808 -414541 -1318 209684 -636491zm74639 -34148l2396330 866 -219808 671069 -1960753 -874 -215769 -671061zm1984295 -89700c-99269,31167 -188592,22361 -294890,21385 -92765,-851 -218725,17097 -283864,-24944 -21333,19789 -53638,14028 -89658,13553 -105721,-1396 -619851,9639 -642261,-7597 -96532,26230 -422072,39562 -498516,-1512 -25993,19167 -256936,7665 -298351,10095l-797430 2464368 66116 20096c19125,-26193 254096,-752287 271792,-826224l1000191 16c32978,22734 62255,154519 77323,200899 38740,119253 178206,575853 208097,626094l70109 -23286 -259232 -803721 1368564 631 -257464 805283 64584 20632c16137,-17993 255922,-751290 273258,-826545l998723 13c26390,6954 31565,56294 45397,99173 12583,39006 23286,70731 35114,107328 44400,137374 167438,539448 204775,621419l72490 -22540 -804141 -2464262c-36925,-736 -501503,10662 -530727,-10353z"/>
   </g>
   <path class="fil27" d="M5397058 6356845l1144529 750c123196,-37 209633,-53061 220020,-170595 27984,-316638 -263458,-253058 -513638,-252268 -163325,516 -650129,-7584 -772293,2927l-78618 419186z"/>
   <path class="fil28" d="M10017937 419259l9478 -66723c68826,-7853 112612,-9208 116438,61001 42232,-32579 100287,-147876 97879,-222500 -107568,-45927 -167780,-50478 -250408,-123036 -49486,-43456 -220599,-110379 -287605,-31335 -25143,81664 116656,119569 173728,171895 58984,54078 89586,144648 140490,210697z"/>
   <path class="fil29" d="M1160702 11328060c-12625,106808 22932,108540 49892,120722 49716,22464 28885,20180 92463,16246 32291,-1998 105499,-13888 118510,-41625 19514,-36700 15496,-101467 337,-143398 -14145,-39128 -11189,-26241 -35769,-33503 -25181,-7441 -1771,3111 -25053,-10611 -60582,-35704 -31963,-7917 -45730,516 -32562,19945 -14925,2356 -66399,6111 -37313,57161 -25034,25039 -50953,31619 -27083,6877 -16954,27802 -37299,53923z"/>
   <path class="fil30" d="M6600162 10704135l8336 135580 40734 27c24593,1300 41763,-713 66714,-3147 6154,-600 25579,-2428 30871,-3624 35106,-7929 15589,2178 29403,-13301l-1683 -142925c-51787,-4289 -135185,8849 -174375,27390z"/>
   <path class="fil31" d="M18070463 9000630l-4923 33390c125568,4145 288646,-103939 312015,-191941 -44711,67525 -167624,116979 -290372,124016l-16720 34535z"/>
  </g>
 </g>
</svg>
