<?xml version="1.0" encoding="UTF-8"?>
<svg xmlns="http://www.w3.org/2000/svg" viewBox="0 0 64 64" width="512" height="512"><g id="avatar-man-boy-male-people"><path d="M29,23a3,3,0,0,0-6,0h2a1,1,0,0,1,2,0Z"/><path d="M38,22a1,1,0,0,1,1,1h2a3,3,0,0,0-6,0h2A1,1,0,0,1,38,22Z"/><path d="M49.29,43.46,37,40.23V37a13.022,13.022,0,0,0,7.84-10.08A4.967,4.967,0,0,0,48,19.03V18a16,16,0,0,0-32,0v1.03A4.939,4.939,0,0,0,15,22a4.982,4.982,0,0,0,4.16,4.92A13.037,13.037,0,0,0,27,37v3.23L14.7,43.46A9.03,9.03,0,0,0,8,52.17V61a1,1,0,0,0,1,1H55a1,1,0,0,0,1-1V52.17A9.028,9.028,0,0,0,49.29,43.46ZM47,22a3,3,0,0,1-.87,2.12,2.951,2.951,0,0,1-1.13.69V19.18A3.01,3.01,0,0,1,47,22ZM19,24.82a3.179,3.179,0,0,1-1.12-.69A3,3,0,0,1,19,19.18Zm-.97-7.41a13.973,13.973,0,0,1,23.86-9.3,13.808,13.808,0,0,1,4.08,9.3A4.959,4.959,0,0,0,44,17H41.54l-1.71-2.55a1,1,0,0,0-1.36-.3L32,18.2V15a.983.983,0,0,0-.43-.82,1,1,0,0,0-.92-.12L22.82,17H20A5,5,0,0,0,18.03,17.41ZM21,25V19h2a1.03,1.03,0,0,0,.35-.06L30,16.44V20a1.008,1.008,0,0,0,1.53.85l7.18-4.49,1.46,2.19A1,1,0,0,0,41,19h2v6a11,11,0,0,1-22,0ZM35,37.64V43a3,3,0,0,1-6,0V37.64a12.68,12.68,0,0,0,6,0ZM54,60H10V52.17a7.019,7.019,0,0,1,5.21-6.77L27,42.3V43a5,5,0,0,0,10,0v-.7l11.78,3.1A7.017,7.017,0,0,1,54,52.17Z"/><path d="M37,29H35c0,.249-1.064,1-3,1s-3-.751-3-1H27c0,1.71,2.149,3,5,3S37,30.71,37,29Z"/></g></svg>
