<?xml version="1.0" encoding="UTF-8"?>
<!DOCTYPE svg PUBLIC "-//W3C//DTD SVG 1.1//EN" "http://www.w3.org/Graphics/SVG/1.1/DTD/svg11.dtd">
<!-- Creator: CorelDRAW 2019 (64 Bit) -->
<svg xmlns="http://www.w3.org/2000/svg" xml:space="preserve" width="30.3031mm" height="19.2265mm" version="1.1" style="shape-rendering:geometricPrecision; text-rendering:geometricPrecision; image-rendering:optimizeQuality; fill-rule:evenodd; clip-rule:evenodd"
viewBox="0 0 3029240 1921971"
 xmlns:xlink="http://www.w3.org/1999/xlink">
 <defs>
  <style type="text/css">
   <![CDATA[
    .fil3 {fill:none}
    .fil1 {fill:#00A88E}
    .fil2 {fill:#014683}
    .fil0 {fill:#054A86}
   ]]>
  </style>
 </defs>
 <g id="Camada_x0020_1">
  <metadata id="CorelCorpID_0Corel-Layer"/>
  <g id="_2229736825152">
   <g>
    <path class="fil0" d="M1829954 1094284l0 0zm0 0c-2669,119918 -54721,224471 -57390,344388l229589 0c3399,-152756 111811,-478231 114799,-612234l-363522 0 -94926 211185c-2149,4628 -17744,38716 -18064,39336l-20943 -250522c-376047,0 -361392,16374 -435546,368010 -16214,76883 -41095,169250 -42765,244224l229589 0c2859,-128395 57400,-207197 57400,-363512l19133 0c0,145948 19133,213355 19133,363512l191322 0 172189 -344388z"/>
    <path class="fil1" d="M490677 1228216c-117299,-2609 -283320,-92997 -349667,-166911 -51262,-57120 -23072,-55880 -90378,-100944 -47153,56450 8007,165961 34358,214364 248272,456119 874841,240375 903131,-99565 -176908,42345 -360883,-23022 -486328,-106782l-226860 -174908c-40716,-42075 -35957,-46264 -67686,-86479 -170570,-216174 -83261,224161 212745,438855 41675,30239 56170,27990 70685,82371z"/>
    <path class="fil2" d="M2423064 1438672c256489,0 312490,-201859 459068,-421031 36517,-54601 97036,-124276 114909,-191202l-248722 0c-62458,93267 -225500,379526 -286989,401778 0,-436976 -80801,-401778 -306122,-401778l57200 382855c23342,147058 38187,229379 210656,229379z"/>
    <path class="fil2" d="M930731 1056027c163142,0 59619,-360593 -24681,-419072 -102474,-71085 25051,170350 -70985,170350 -140980,0 -302513,-135612 -387783,-224481 -16634,-17344 -57420,-72464 -61508,-76253 -106722,-99055 -85210,134153 185684,392152 62448,59479 244274,157304 359273,157304z"/>
   </g>
   <rect class="fil3" width="3029240" height="1921971"/>
  </g>
 </g>
</svg>
