<?xml version="1.0" encoding="UTF-8"?>
<!DOCTYPE svg PUBLIC "-//W3C//DTD SVG 1.1//EN" "http://www.w3.org/Graphics/SVG/1.1/DTD/svg11.dtd">
<!-- Creator: CorelDRAW 2019 (64 Bit) -->
<svg xmlns="http://www.w3.org/2000/svg" xml:space="preserve" width="31.4747mm" fill="#cccccc" height="31.4747mm" version="1.1" style="shape-rendering:geometricPrecision; text-rendering:geometricPrecision; image-rendering:optimizeQuality; fill-rule:evenodd; clip-rule:evenodd"
viewBox="0 0 400.45 400.45"
 xmlns:xlink="http://www.w3.org/1999/xlink">
 <g id="Camada_x0020_1">
  <metadata id="CorelCorpID_0Corel-Layer"/>
  <g id="_2049858184976">
   <path class="fil0" d="M-0 171.62c0,11.79 0.06,22.48 1.98,33.97l3.74 18.33c1.56,-0.42 2.03,-2.01 2.86,-3.27l8.23 -10.98c3.62,-4.58 7.79,-9.54 13.02,-12.31 0,-5.16 -0.8,-9.03 -0.8,-13.91 -0,-2.25 -0.32,-2.62 -0.43,-4.48 -0.18,-3.06 0.99,-15.34 1.24,-18.38 0.48,-5.7 1.83,-11.35 2.95,-16.66 1.6,-7.62 4.37,-15.36 7.31,-22.52 5.23,-12.76 14.97,-29.72 24.16,-39.59 1.03,-1.11 1.48,-1.82 2.45,-2.87l14.93 -14.49c1.75,-1.52 3.62,-3.05 5.4,-4.41 24.28,-18.57 56.1,-31.05 87.86,-31.05 13.59,0 26.68,1.14 38.74,4.17 21.96,5.51 45.78,16.77 62.7,32.5 6.27,5.83 12.56,11.7 17.93,18.44l5.99 7.9c6.28,9.22 12.03,18.72 16.19,29.16 0.92,2.3 1.74,4.1 2.53,6.46 9.53,28.06 11.88,57.22 4.56,86.4 -5.39,21.46 -15.28,41.51 -29.24,58.61 -1.47,1.8 -2.7,3.09 -4.12,4.87 -0.73,0.91 -1.36,1.44 -2.21,2.28 -2.1,2.09 -4.01,4.82 -6.37,6.71 -1.88,1.5 -2.93,2.87 -4.73,4.26 -1.74,1.35 -3.04,2.58 -4.67,3.91 -14.13,11.51 -26.04,17.31 -42.24,23.96 -1.8,0.74 -1.49,0.55 -1.97,2.52 -1.69,6.84 -3.81,13.58 -6.78,19.78l-5.86 12.12c0.91,-0.44 4.45,-1.11 5.88,-1.47 2.19,-0.55 3.73,-0.93 5.82,-1.53 21.64,-6.27 40.67,-16.14 58.99,-29.28l6.12 -4.91c1,-0.8 1.18,-1.29 2.45,-1.63 0.52,1.95 20.39,21.01 21.76,22.37l55.37 55.37c3.88,3.88 7.63,8.48 14.81,8.48l0 0c3.88,0 7.28,-1.76 9.3,-3.77 3.91,-3.88 4.59,-7.04 4.59,-12.57 0,-5.51 -5.67,-9.96 -8.68,-12.97l-74.37 -74.37c-1.03,-1.04 -1.65,-2.15 -3.17,-2.55 2.54,-3.79 5.64,-7.12 8.35,-10.86 9.85,-13.62 18.38,-28.5 23.68,-44.56 11.6,-35.16 13.73,-64.83 5.74,-101.26 -1.38,-6.27 -3.02,-11.43 -4.92,-17.14 -2.31,-6.94 -4.84,-13.22 -7.91,-19.47 -0.64,-1.29 -1.19,-2.41 -1.91,-3.81 -0.74,-1.46 -1.18,-1.94 -1.92,-3.39 -3.06,-6.08 -6.82,-11.6 -10.57,-17.22 -5.01,-7.52 -11.07,-14.64 -17.17,-21.24 -0.97,-1.05 -1.84,-1.83 -2.87,-2.85 -34.09,-34.09 -77.99,-52.41 -127.8,-52.41 -23.77,0 -42.77,4.63 -63.79,12.21 -2.79,1 -5.28,2.25 -7.77,3.26 -14.23,5.78 -28.17,15.48 -40.17,24.81 -4.8,3.73 -16.09,14.24 -19.5,18.51 -1.05,1.31 -1.66,1.83 -2.68,3.04 -21.61,25.66 -36.08,56.23 -41.22,89.54 -0.96,6.24 -1.81,13.43 -1.81,20.26z"/>
   <path class="fil0" d="M111.55 371.03c-12.21,0 -22.35,-1.39 -33.22,-6.01 -1.35,-0.57 -1.89,-0.91 -3.38,-1.52 -3.17,-1.31 -9.56,-5.23 -12.32,-7.3 -1.89,-1.41 -3.79,-2.75 -5.52,-4.28l-5.12 -4.69c-0.97,-1.06 -1.17,-1.6 -2.23,-2.67 -3.72,-3.72 -7.69,-9.66 -10.36,-14.16 -11.87,-20.02 -13.93,-49.3 -3.72,-71.2 4.02,-8.62 7.39,-14.06 13.45,-20.87 7.2,-8.11 14.42,-13.88 24.69,-19.03 21.43,-10.74 48.84,-10.86 70.29,-0.14 4.65,2.32 13.38,7.72 17.4,11.61l5.08 4.72c0.9,1.09 1,1.39 2.06,2.44 4.52,4.45 11.22,15.14 13.53,20.79 0.98,2.39 1.78,4.08 2.66,6.73 9.51,28.61 2.63,60.1 -18.44,81.17 -8.17,8.17 -12.52,11.4 -22.98,16.65 -7.8,3.91 -20.2,7.76 -31.87,7.76zm-111.55 -80.5c0,33.56 14.31,59.87 31.16,76.72 11.64,11.63 14.32,12.62 26.79,20.2 11.87,7.23 33.72,12.59 48.7,12.59 12.54,0 16.25,-0.49 28.1,-2.96 18.05,-3.76 37.66,-15.19 50.67,-28.2 1.19,-1.19 2.08,-2.09 3.27,-3.27l6.06 -7.02c4.83,-6.15 9.02,-13.1 12.57,-20.12 4.93,-9.79 10.48,-27.76 10.48,-42.23l0 -10.22c0,-23.63 -12.84,-53.18 -28.91,-69.16 -9.54,-9.49 -21.32,-19.59 -34.07,-24.77 -8.4,-3.41 -9.76,-4.34 -19.39,-6.76 -23.33,-5.87 -51.41,-3.48 -72.91,7.11 -9.36,4.61 -20.18,11.32 -27.68,18.91l-9.81 10.22 -8.41 11.61c-4.09,6.88 -3.71,6.33 -7.09,13.34 -5.22,10.87 -9.53,28.07 -9.53,43.99z"/>
   <path class="fil0" d="M54.76 250.48c0,6.8 2.18,8.92 6.23,12.97 3.58,3.58 26.03,25.62 27.28,27.48 -1.47,2.19 -6.66,6.87 -8.89,9.09 -4.28,4.28 -19.66,19.14 -22.35,23.01 -4.98,7.17 -2.45,22.24 13.25,22.24 7.16,0 14.46,-9.35 20.53,-15.43 2.77,-2.77 16.52,-16.9 18.29,-18.08 1.86,1.24 23.52,23.31 27.07,26.87 4.83,4.83 6.45,6.64 13.79,6.64 10.98,0 17.03,-13.48 11.37,-22 -1.12,-1.68 -2.68,-3.44 -4.12,-4.87 -3.49,-3.46 -26.07,-25.67 -27.28,-27.48 1.26,-1.87 23.86,-24.07 27.48,-27.68 4.99,-4.99 7.97,-9.89 4.76,-18.04 -0.44,-1.13 -2.05,-3.5 -2.95,-4.4 -0.95,-0.95 -2.8,-2.18 -4.17,-2.77 -7.28,-3.15 -13.1,-0.65 -18.27,4.58 -3.52,3.56 -26.24,26.65 -28.09,27.89 -1.19,-1.77 -15.51,-15.72 -18.29,-18.49 -2.59,-2.59 -11.27,-11.79 -14.01,-13.37 -10.27,-5.94 -21.65,2.11 -21.65,11.84z"/>
  </g>
 </g>
</svg>
