<?xml version="1.0" encoding="iso-8859-1"?>
<!-- Generator: Adobe Illustrator 19.0.0, SVG Export Plug-In . SVG Version: 6.00 Build 0)  -->
<svg version="1.1" id="Capa_1" xmlns="http://www.w3.org/2000/svg" xmlns:xlink="http://www.w3.org/1999/xlink" x="0px" y="0px"
	 viewBox="0 0 390.4 390.4" style="enable-background:new 0 0 390.4 390.4;" xml:space="preserve">
<g>
	<g>
		<path d="M387.72,105.92v-0.72c-0.392-0.862-0.934-1.647-1.6-2.32L285.08,2c-0.696-0.674-1.51-1.216-2.4-1.6h-0.72
			c-0.698-0.232-1.425-0.367-2.16-0.4H74.12c-8.147,0.17-14.71,6.733-14.88,14.88v80.8H18.2c-8.837,0-16,7.163-16,16v85.36
			c0,8.837,7.163,16,16,16h41.04V375.2c0,8.395,6.805,15.2,15.2,15.2H373c8.395,0,15.2-6.805,15.2-15.2v0V108.48c0,0,0,0,0-0.48
			C388.134,107.288,387.972,106.589,387.72,105.92z M287.4,27.04l73.52,73.44H287.4V27.04z M18.2,197.04v-85.36h169.04v85.36H18.2z
			 M372.2,374.4H75.24V213.04h112c8.837,0,16-7.163,16-16v-85.36c0-8.837-7.163-16-16-16h-112v-80H271.4v85.6
			c0.044,8.377,6.823,15.156,15.2,15.2h85.6V374.4z"/>
	</g>
</g>
<g>
	<g>
		<path d="M75.736,140.304c-0.605-8.284-7.812-14.509-16.096-13.904H47.08c-2.121,0-3.84,1.719-3.84,3.84v41.36c0,2.209,1.791,4,4,4
			c2.209,0,4-1.791,4-4v-15.2h8.4c0.73,0.053,1.463,0.053,2.192,0C70.117,155.795,76.342,148.588,75.736,140.304z M59.88,148.64
			h-8.64v-14.48h8.64c3.999,0,7.24,3.241,7.24,7.24S63.879,148.64,59.88,148.64z"/>
	</g>
</g>
<g>
	<g>
		<path d="M96.2,126.4h-8c-2.121,0-3.84,1.719-3.84,3.84v41.36c-0.001,0.027-0.001,0.054-0.001,0.081c0,2.121,1.72,3.84,3.841,3.839
			h8c13.555-0.006,24.543-10.993,24.549-24.549C120.755,137.407,109.764,126.406,96.2,126.4z M96.68,167.68h-4.32v-33.52h4.32
			c8.365,0.578,15.023,7.236,15.601,15.601C112.921,159.018,105.936,167.04,96.68,167.68z"/>
	</g>
</g>
<g>
	<g>
		<path d="M161.56,134.4c2.209,0,4-1.791,4-4c0-2.209-1.791-4-4-4H138.6c-2.121,0-3.84,1.719-3.84,3.84v41.36
			c-0.012,0.138-0.016,0.276-0.012,0.415c0.052,2.12,1.812,3.797,3.932,3.745c2.134,0,3.876-1.706,3.92-3.84v-16.88h16
			c2.209,0,4-1.791,4-4c0-2.209-1.791-4-4-4h-16V134.4H161.56z"/>
	</g>
</g>
<g>
</g>
<g>
</g>
<g>
</g>
<g>
</g>
<g>
</g>
<g>
</g>
<g>
</g>
<g>
</g>
<g>
</g>
<g>
</g>
<g>
</g>
<g>
</g>
<g>
</g>
<g>
</g>
<g>
</g>
</svg>
