<?xml version="1.0" encoding="UTF-8"?>
<!DOCTYPE svg PUBLIC "-//W3C//DTD SVG 1.1//EN" "http://www.w3.org/Graphics/SVG/1.1/DTD/svg11.dtd">
<!-- Creator: CorelDRAW 2019 (64 Bit) -->
<svg xmlns="http://www.w3.org/2000/svg" xml:space="preserve" width="30.3031mm" height="19.2265mm" version="1.1" style="shape-rendering:geometricPrecision; text-rendering:geometricPrecision; image-rendering:optimizeQuality; fill-rule:evenodd; clip-rule:evenodd"
viewBox="0 0 481642 305589"
 xmlns:xlink="http://www.w3.org/1999/xlink">
 <defs>
  <style type="text/css">
   <![CDATA[
    .fil0 {fill:none}
    .fil5 {fill:#27A392;fill-rule:nonzero}
    .fil6 {fill:#96CB46;fill-rule:nonzero}
    .fil1 {fill:url(#id0)}
    .fil3 {fill:url(#id1)}
    .fil2 {fill:url(#id2)}
    .fil4 {fill:url(#id3)}
   ]]>
  </style>
  <linearGradient id="id0" gradientUnits="userSpaceOnUse" x1="17277" y1="153947" x2="102199" y2="153947">
   <stop offset="0" style="stop-opacity:1; stop-color:#50B4A7"/>
   <stop offset="1" style="stop-opacity:1; stop-color:#CEE9E7"/>
  </linearGradient>
  <linearGradient id="id1" gradientUnits="userSpaceOnUse" x1="11404" y1="110582" x2="111620" y2="110582">
   <stop offset="0" style="stop-opacity:1; stop-color:#B9DC85"/>
   <stop offset="1" style="stop-opacity:1; stop-color:white"/>
  </linearGradient>
  <linearGradient id="id2" gradientUnits="userSpaceOnUse" x1="5328" y1="167483" x2="46646" y2="167483">
   <stop offset="0" style="stop-opacity:1; stop-color:#C7E39C"/>
   <stop offset="1" style="stop-opacity:1; stop-color:white"/>
  </linearGradient>
  <linearGradient id="id3" gradientUnits="userSpaceOnUse" xlink:href="#id2" x1="63626" y1="180332" x2="111834" y2="180332">
  </linearGradient>
 </defs>
 <g id="Camada_x0020_1">
  <metadata id="CorelCorpID_0Corel-Layer"/>
  <g id="_2634830954448">
   <rect class="fil0" width="481642" height="305589"/>
   <g>
    <g>
     <path class="fil1" d="M59738 111486c11429,0 21802,4517 29436,11860l-146 -13c4684,39103 -52115,29008 -39832,-10528 3371,-861 6903,-1319 10543,-1319zm31760 14282c6658,7496 10703,17364 10703,28179 0,9282 -2982,17868 -8036,24857 -426,-1181 -852,-2241 -1254,-3009 -750,-1430 -1502,-2863 -2252,-4293 -2850,-5445 -9687,-12087 -14138,-17573 10625,-4245 15265,-15284 14977,-28161zm-13030 66294c-5650,2781 -12006,4345 -18730,4345 -16225,0 -30324,-9101 -37472,-22479l7685 1737c1130,3077 5263,5358 10185,5358 5793,0 10490,-3160 10490,-7057 0,-3897 -4697,-7055 -10490,-7055 -4976,0 -9144,2330 -10220,5456 -2200,64 -4379,2 -5951,-448 -1397,-399 -2594,-1074 -3559,-1950 -1103,-2705 -1937,-5545 -2465,-8494 32,-134 67,-265 103,-399 1009,-3590 3376,-6261 6656,-7973 9074,-4733 22694,3794 27788,11530 9099,15608 17223,25731 25979,27429zm-61178 -37068c-10,-348 -14,-698 -14,-1047 0,-17954 11143,-33305 26890,-39514 -1405,18790 10047,36776 29369,39996l10083 12065c11965,13135 -1039,40799 -24825,1442 -8786,-11264 -20866,-24773 -36646,-17485 -1785,812 -3406,2767 -4857,4544z"/>
     <path class="fil2" d="M9173 126222c-1925,10385 -3290,21134 -3673,31693 -404,11216 -768,26263 7116,35121 9336,10487 20550,13836 34031,15708 -12984,-9954 -23121,-22652 -29563,-38909 -4897,-12359 -2344,-33459 -7911,-43614z"/>
     <path class="fil3" d="M111621 126050c-24380,-14103 -34230,-16069 -52160,-16400 -15619,-286 -36275,9379 -48056,12908 13089,-15778 30757,-25577 51274,-27333 18299,-1567 34940,13842 45797,26893 1070,1294 2117,2605 3144,3932z"/>
     <path class="fil4" d="M63624 210246c17746,-5712 33742,-25594 45616,-60056 9667,33729 -8133,63200 -45616,60056z"/>
    </g>
    <polygon class="fil5" points="186160,193853 172981,193853 170485,137538 159800,193853 147294,193853 161400,126446 181171,126446 183242,172780 204440,126446 224384,126446 212098,193853 199529,193853 211251,137931 "/>
    <polygon id="1" class="fil5" points="259499,193853 244687,193853 232668,126446 246413,126446 254932,177472 282847,126446 296593,126446 "/>
    <path id="2" class="fil6" d="M302351 193853l-13853 0 14120 -67407 27349 0c4880,0 8724,580 11549,1726 2840,1144 5085,3044 6731,5695 1648,2653 2479,5822 2479,9494 0,3405 -660,6715 -1977,9932 -1318,3233 -2934,5806 -4848,7736 -1915,1930 -3970,3389 -6183,4393 -2197,989 -5162,1742 -8912,2274 -2166,299 -6245,456 -12208,456l-8864 0 -5383 25701zm7736 -36998l4269 0c7311,0 12191,-455 14639,-1365 2448,-911 4377,-2370 5790,-4377 1397,-2009 2103,-4221 2103,-6621 0,-1616 -361,-2934 -1082,-3970 -723,-1035 -1726,-1788 -3029,-2259 -1302,-472 -4204,-707 -8708,-707l-9932 0 -4048 19300z"/>
    <polygon id="3" class="fil6" points="351292,193853 365413,126446 415311,126446 412957,137743 376883,137743 373573,152994 408533,152994 406180,164291 371109,164291 367123,182555 406273,182555 403918,193853 "/>
    <path id="4" class="fil6" d="M427942 193853l-13853 0 14120 -67407 27349 0c4880,0 8724,580 11549,1726 2840,1144 5085,3044 6731,5695 1648,2653 2479,5822 2479,9494 0,3405 -660,6715 -1977,9932 -1318,3233 -2934,5806 -4848,7736 -1915,1930 -3970,3389 -6183,4393 -2197,989 -5162,1742 -8912,2274 -2166,299 -6245,456 -12208,456l-8864 0 -5383 25701zm7736 -36998l4269 0c7311,0 12191,-455 14639,-1365 2448,-911 4377,-2370 5790,-4377 1397,-2009 2103,-4221 2103,-6621 0,-1616 -361,-2934 -1082,-3970 -723,-1035 -1726,-1788 -3029,-2259 -1302,-472 -4204,-707 -8708,-707l-9932 0 -4048 19300z"/>
   </g>
  </g>
 </g>
</svg>
