<svg id="Layer_3" enable-background="new 0 0 64 64" height="512" viewBox="0 0 64 64" width="512" xmlns="http://www.w3.org/2000/svg"><g><path d="m45.912 35.59c-.162-.359-.518-.59-.912-.59h-1v-3c0-.552-.448-1-1-1h-6c-.552 0-1 .448-1 1v3h-8v-3c0-.552-.448-1-1-1h-6c-.552 0-1 .448-1 1v3h-1c-.394 0-.75.231-.912.59l-9 20c-.058.129-.088.268-.088.41v6c0 .552.448 1 1 1h44c.552 0 1-.448 1-1v-6c0-.142-.03-.281-.088-.41zm-7.912-2.59h4v2h-4zm-16 0h4v2h-4zm-2.354 4h24.707l8.1 18h-40.906zm-8.646 24v-4h42v4z"/><path d="m32 53c3.86 0 7-3.14 7-7s-3.14-7-7-7-7 3.14-7 7 3.14 7 7 7zm0-12c2.757 0 5 2.243 5 5s-2.243 5-5 5-5-2.243-5-5 2.243-5 5-5z"/><path d="m40 10h-16c-8.822 0-16 7.178-16 16 0 .552.448 1 1 1h15c.308 0 .599-.142.788-.385s.257-.559.182-.858l-1.689-6.757h18.438l-1.689 6.757c-.075.299-.007.615.182.858s.48.385.788.385h14c.552 0 1-.448 1-1 0-8.822-7.178-16-16-16zm-29.965 15c.049-.683.161-1.347.305-2h11.879l.5 2zm11.965-8c-.308 0-.599.142-.788.385s-.257.559-.182.858l.689 2.757h-10.791c2.018-5.256 7.114-9 13.072-9h16c5.958 0 11.054 3.744 13.072 9h-9.791l.689-2.757c.075-.299.007-.615-.182-.858s-.48-.385-.788-.385zm20.281 8 .5-2h10.879c.143.653.256 1.317.305 2z"/><path d="m53 1v2c4.411 0 8 3.589 8 8h2c0-5.514-4.486-10-10-10z"/><path d="m53 5v2c2.206 0 4 1.794 4 4h2c0-3.309-2.691-6-6-6z"/><path d="m11 3v-2c-5.514 0-10 4.486-10 10h2c0-4.411 3.589-8 8-8z"/><path d="m11 7v-2c-3.309 0-6 2.691-6 6h2c0-2.206 1.794-4 4-4z"/></g></svg>