<?xml version="1.0" encoding="UTF-8"?>
<!DOCTYPE svg PUBLIC "-//W3C//DTD SVG 1.1//EN" "http://www.w3.org/Graphics/SVG/1.1/DTD/svg11.dtd">
<!-- Creator: CorelDRAW 2019 (64 Bit) -->
<svg xmlns="http://www.w3.org/2000/svg" xml:space="preserve" width="134.914mm" height="144.506mm" version="1.1" style="shape-rendering:geometricPrecision; text-rendering:geometricPrecision; image-rendering:optimizeQuality; fill-rule:evenodd; clip-rule:evenodd"
viewBox="0 0 1877394 2010878"
 xmlns:xlink="http://www.w3.org/1999/xlink">
 <defs>
  <style type="text/css">
   <![CDATA[
    .fil0 {fill:black}
   ]]>
  </style>
 </defs>
 <g id="Camada_x0020_1">
  <metadata id="CorelCorpID_0Corel-Layer"/>
  <g id="_1884776140272">
   <path class="fil0" d="M66769 1732018l0 -1453213c0,-27466 5981,-44932 27575,-50977l208300 -31285c228877,-31705 466425,-70847 695192,-102111l141169 -19863 0 1861683 -1041491 -152501c-24611,-5730 -30745,-22748 -30745,-51734zm1142932 -750172l0 -424181c21945,-5113 35109,-15093 62842,-15711l0 227801c0,47701 65959,35348 113900,35348 51059,0 102118,0 153176,0 -6632,13821 -8669,35049 -15740,51030 -8650,19547 -12303,28894 -24227,46469 -62399,91963 -193904,130065 -289952,79243zm0 -498805l0 -247439 565575 0c28011,0 35348,22817 35348,51059l0 1437502c0,28242 -7338,51059 -35348,51059l-565575 0 0 -133539 373122 0c33162,0 40237,-66769 -7855,-66769l-365267 0 0 -133537 373122 0c33811,0 35632,-66769 0,-66769l-373122 0 0 -133539 365267 0c44314,0 53448,-70696 -11782,-70696l-353484 0 0 -113901c82537,39604 241831,8519 314180,-74653 51393,-59082 86435,-120343 86435,-208134 0,-26690 -19998,-39277 -47130,-39277l-219946 0c0,-46785 7949,-232329 -9361,-253788 -24107,-29888 -100398,443 -124178,2421zm-1209701 -231728l0 1508199c0,46394 41298,84317 84061,92681 52509,10270 103851,14550 157793,22877 256324,39569 524121,73649 777117,114448 33355,5378 130934,21360 159309,21360 45058,0 31421,-110709 31421,-164960l549864 0c62392,0 117828,-37537 117828,-94262l0 -1492488c0,-58099 -54993,-94262 -121755,-94262l-545937 0c0,-189927 27793,-179947 -187374,-144170 -49518,8232 -105307,15797 -157574,23096l-777328 114237c-47147,7382 -87426,50309 -87426,93245z"/>
   <path class="fil0" d="M612705 1005412l-176741 0 0 -267078 196380 0c110091,0 164126,108885 124505,191276 -25489,53003 -78293,75802 -144144,75802zm-243510 -302426l0 604851c0,44340 66769,44340 66769,0l0 -235656 212090 0c57033,0 106028,-31807 134619,-61761 47996,-50289 66129,-112885 51667,-183440 -7413,-36165 -30294,-74261 -57063,-100040 -41015,-39499 -87083,-59302 -164572,-59302l-192451 0c-28243,0 -51059,7338 -51059,35348z"/>
   <path class="fil0" d="M1476779 443765c58000,4826 155763,96906 157103,157103l-157103 0 0 -157103zm-70698 -31421l0 219946c0,23815 15712,39275 43203,39275l223874 0c53459,0 36489,-67249 27544,-98241 -10772,-37319 -30801,-68407 -52709,-96540 -46951,-60290 -119793,-107643 -214418,-107643 -16721,0 -27494,24303 -27494,43203z"/>
  </g>
 </g>
</svg>
