<?xml version="1.0" encoding="UTF-8"?>
<!DOCTYPE svg PUBLIC "-//W3C//DTD SVG 1.1//EN" "http://www.w3.org/Graphics/SVG/1.1/DTD/svg11.dtd">
<!-- Creator: CorelDRAW 2019 (64 Bit) -->
<svg xmlns="http://www.w3.org/2000/svg" xml:space="preserve" width="30.3031mm" height="19.2265mm" version="1.1" style="shape-rendering:geometricPrecision; text-rendering:geometricPrecision; image-rendering:optimizeQuality; fill-rule:evenodd; clip-rule:evenodd"
viewBox="0 0 1968652 1249057"
 xmlns:xlink="http://www.w3.org/1999/xlink">
 <defs>
  <style type="text/css">
   <![CDATA[
    .fil0 {fill:none}
    .fil4 {fill:#CC6866}
    .fil3 {fill:#FDE94B}
    .fil7 {fill:url(#id0)}
    .fil1 {fill:url(#id1)}
    .fil8 {fill:url(#id2)}
    .fil6 {fill:url(#id3)}
    .fil2 {fill:url(#id4)}
    .fil5 {fill:url(#id5)}
    .fil9 {fill:url(#id6);fill-rule:nonzero}
   ]]>
  </style>
  <linearGradient id="id0" gradientUnits="userSpaceOnUse" x1="461365" y1="855185" x2="452477" y2="617983">
   <stop offset="0" style="stop-opacity:1; stop-color:#748998"/>
   <stop offset="1" style="stop-opacity:1; stop-color:#B9C3CB"/>
  </linearGradient>
  <linearGradient id="id1" gradientUnits="userSpaceOnUse" x1="131581" y1="750980" x2="131581" y2="860902">
   <stop offset="0" style="stop-opacity:1; stop-color:#5293BA"/>
   <stop offset="0.14902" style="stop-opacity:1; stop-color:#7EB3D4"/>
   <stop offset="0.301961" style="stop-opacity:1; stop-color:#568CB0"/>
   <stop offset="0.639216" style="stop-opacity:1; stop-color:#61AFE0"/>
   <stop offset="1" style="stop-opacity:1; stop-color:#ABD4EF"/>
  </linearGradient>
  <linearGradient id="id2" gradientUnits="userSpaceOnUse" xlink:href="#id0" x1="828861" y1="855126" x2="818544" y2="617782">
  </linearGradient>
  <linearGradient id="id3" gradientUnits="userSpaceOnUse" x1="494367" y1="287433" x2="493373" y2="371582">
   <stop offset="0" style="stop-opacity:1; stop-color:#EDDFDC"/>
   <stop offset="0.101961" style="stop-opacity:0; stop-color:#F6EFED"/>
   <stop offset="0.180392" style="stop-opacity:0.956863; stop-color:#FFB5B5"/>
   <stop offset="0.431373" style="stop-opacity:0.580392; stop-color:#FDD2D2"/>
   <stop offset="0.568627" style="stop-opacity:0.27451; stop-color:#FEEDEA"/>
   <stop offset="0.619608" style="stop-opacity:0.14902; stop-color:#FEF4F4"/>
   <stop offset="0.658824" style="stop-opacity:0.0666667; stop-color:#FEF8F8"/>
   <stop offset="1" style="stop-opacity:0; stop-color:white"/>
  </linearGradient>
  <linearGradient id="id4" gradientUnits="userSpaceOnUse" x1="88301" y1="567323" x2="88301" y2="711624">
   <stop offset="0" style="stop-opacity:1; stop-color:#8ED18C"/>
   <stop offset="0.168627" style="stop-opacity:1; stop-color:#C6E8C5"/>
   <stop offset="0.341176" style="stop-opacity:1; stop-color:#69BF67"/>
   <stop offset="0.701961" style="stop-opacity:1; stop-color:#98CA67"/>
   <stop offset="1" style="stop-opacity:1; stop-color:white"/>
  </linearGradient>
  <linearGradient id="id5" gradientUnits="userSpaceOnUse" x1="236416" y1="384770" x2="235623" y2="451990">
   <stop offset="0" style="stop-opacity:1; stop-color:#ECEDDC"/>
   <stop offset="0.156863" style="stop-opacity:0; stop-color:#F5F6ED"/>
   <stop offset="0.278431" style="stop-opacity:1; stop-color:#FBF7B1"/>
   <stop offset="0.431373" style="stop-opacity:0.580392; stop-color:#F9FDD2"/>
   <stop offset="0.568627" style="stop-opacity:0.27451; stop-color:#FEEAEA"/>
   <stop offset="0.619608" style="stop-opacity:0.14902; stop-color:#FEF4F4"/>
   <stop offset="0.658824" style="stop-opacity:0.0980392; stop-color:#FEF8F8"/>
   <stop offset="1" style="stop-opacity:0; stop-color:white"/>
  </linearGradient>
  <linearGradient id="id6" gradientUnits="userSpaceOnUse" x1="1466145" y1="855990" x2="1468731" y2="616879">
   <stop offset="0" style="stop-opacity:1; stop-color:#60C3B1"/>
   <stop offset="0.141176" style="stop-opacity:1; stop-color:#85D1C3"/>
   <stop offset="0.490196" style="stop-opacity:1; stop-color:#9AD9CE"/>
   <stop offset="1" style="stop-opacity:1; stop-color:#AADFD5"/>
  </linearGradient>
 </defs>
 <g id="Camada_x0020_1">
  <metadata id="CorelCorpID_0Corel-Layer"/>
  <g id="_2634827381232">
   <rect class="fil0" width="1968652" height="1249057"/>
   <g>
    <g>
     <circle class="fil1" cx="131579" cy="805939" r="54962"/>
     <circle class="fil2" cx="88300" cy="639473" r="72149"/>
     <circle class="fil3" cx="236019" cy="471920" r="95640"/>
     <circle class="fil4" cx="493871" cy="394667" r="116518"/>
     <path class="fil5" d="M236019 384777c40811,0 74886,28812 83019,67200l-1104 -767 -1117 -747 -1124 -747c-1787,-1169 -3599,-2300 -5438,-3391l-279 -169 -1163 -682 -1176 -669 -1176 -663 -312 -169 -1923 -1039 -143 -78 -1195 -630 -1202 -617 -1215 -604 -110 -52 -2176 -1059 -156 -71 -1228 -572 -188 -91 -1618 -721 -1962 -864 -1065 -442 -1910 -780 -1377 -546 -2144 -812 -974 -357 -2592 -916 -91 -32 -182 -58 -377 -130 -2553 -825 -1052 -325 -2462 -734 -948 -266 -2326 -630 -1163 -299 -2365 -578 -994 -227 -2884 -637 -221 -39 -117 -26c-1098,-221 -2202,-435 -3307,-637l-149 -26 -318 -58c-987,-169 -1981,-331 -2969,-487l-630 -97c-1085,-162 -2183,-318 -3274,-455l-32 -6 -32 0c-2332,-299 -4678,-539 -7042,-721l-266 -26 -253 -13c-1130,-84 -2248,-156 -3378,-214l-117 -6c-1221,-58 -2449,-110 -3671,-136l-32 0c-1241,-32 -2495,-52 -3742,-52 -1247,0 -2501,19 -3742,52l-32 0c-1234,26 -2456,78 -3671,136l-117 6c-1130,58 -2254,130 -3378,214l-260 13 -266 26c-2358,188 -4710,422 -7042,721l-26 0 -39 6c-1091,136 -2183,292 -3268,455l-630 97 -2975 487 -318 58 -149 26c-1104,201 -2202,416 -3300,637l-117 26 -221 39 -2891 637 -994 227 -2358 578 -1163 299 -2332 630 -948 266 -2462 734 -1052 325 -2547 825 -377 130 -182 58 -91 32 -2599 916 -968 357 -2144 812 -1377 546 -1916 780 -1065 442 -1962 864 -1611 721 -195 91 -1228 572 -156 71 -2170 1059 -110 52 -1215 604 -1202 617 -1202 630 -143 78 -1923 1039 -312 169 -1176 663 -1169 669 -1169 682 -273 169c-1839,1085 -3658,2228 -5444,3391l-1117 747 -1117 747 -1111 767c8134,-38388 42215,-67200 83026,-67200z"/>
     <path class="fil6" d="M493873 287452c51082,0 93745,36056 103925,84111l-1390 -955 -1397 -942 -1403 -929c-2235,-1468 -4509,-2884 -6808,-4249l-351 -208 -1455 -851 -1468 -838 -1475 -832 -383 -214 -2410 -1299 -175 -97 -1501 -793 -1507 -767 -1520 -760 -136 -65 -2722 -1325 -195 -84 -1540 -721 -240 -110 -2020 -910 -2456 -1072 -1332 -559 -2397 -974 -1722 -682 -2683 -1020 -1221 -448 -3248 -1143 -110 -39 -227 -78 -474 -156 -3190 -1033 -1319 -416 -3079 -910 -1189 -338 -2917 -793 -1455 -370 -2956 -721 -1247 -292 -3612 -786 -279 -58 -143 -26c-1377,-279 -2755,-546 -4138,-799l-182 -32 -403 -71c-1234,-214 -2475,-416 -3716,-611l-793 -123c-1358,-208 -2729,-396 -4093,-572l-45 -6 -39 0c-2917,-377 -5853,-669 -8816,-903l-331 -26 -318 -19c-1416,-104 -2813,-201 -4229,-273l-149 0c-1527,-78 -3060,-143 -4593,-175l-39 0c-1553,-39 -3118,-65 -4684,-65 -1566,0 -3125,19 -4684,65l-45 0c-1533,32 -3066,97 -4593,175l-143 0c-1416,71 -2826,169 -4229,273l-325 19 -331 26c-2949,240 -5899,533 -8816,903l-39 0 -39 6c-1377,175 -2735,370 -4099,572l-786 123 -3723 611 -396 71 -188 32c-1384,253 -2761,520 -4132,799l-149 26 -279 58 -3612 786 -1247 292 -2949 721 -1462 370 -2910 793 -1189 338 -3086 910 -1312 416 -3190 1033 -474 156 -227 78 -117 39 -3248 1143 -1215 448 -2683 1020 -1728 682 -2391 974 -1332 559 -2462 1072 -2020 910 -234 110 -1540 721 -195 84 -2722 1325 -136 65 -1520 760 -1507 767 -1501 793 -175 97 -2410 1299 -390 214 -1468 832 -1468 838 -1462 851 -344 208c-2300,1364 -4580,2787 -6815,4249l-1403 929 -1397 942 -1384 955c10180,-48055 52836,-84111 103925,-84111z"/>
    </g>
    <g>
     <path class="fil7" d="M534724 721765l0 0zm0 0c-1033,46437 -21198,86930 -22231,133374l88918 0c1319,-59164 43299,-185210 44456,-237111l-140786 0 -36757 81791c-832,1793 -6873,14994 -6997,15234l-8108 -97026c-145639,0 -139968,6341 -168683,142528 -6276,29774 -15917,65544 -16560,94583l88912 0c1111,-49724 22231,-80245 22231,-140786l7413 0c0,56526 7406,82629 7406,140786l74100 0 66687 -133374z"/>
     <path class="fil8" d="M764422 855139c99332,0 121024,-78179 177791,-163057 14136,-21146 37582,-48133 44501,-74054l-96324 0c-24193,36121 -87333,146984 -111149,155605 0,-169235 -31294,-155605 -118555,-155605l22153 148270c9037,56955 14793,88840 81584,88840z"/>
    </g>
    <path class="fil9" d="M982361 775557l67804 -4255c1455,10979 4463,19373 8985,25077 7374,9310 17865,13994 31534,13994 10167,0 18021,-2371 23511,-7159 5542,-4788 8290,-10329 8290,-16625 0,-5977 -2586,-11356 -7802,-16092 -5223,-4729 -17378,-9147 -36485,-13396 -31313,-6997 -53596,-16358 -66940,-28033 -13454,-11629 -20178,-26480 -20178,-44560 0,-11837 3443,-23030 10329,-33581 6893,-10602 17222,-18885 31053,-24914 13831,-6022 32769,-9037 56819,-9037 29546,0 52037,5490 67538,16521 15494,10979 24693,28461 27656,52466l-67155 3982c-1780,-10492 -5542,-18138 -11252,-22874 -5756,-4788 -13669,-7159 -23725,-7159 -8290,0 -14585,1780 -18781,5275 -4197,3502 -6295,7802 -6295,12863 0,3658 1722,6945 5113,9901 3281,3066 11246,5866 23836,8504 31209,6724 53544,13558 66992,20445 13513,6893 23362,15397 29488,25616 6139,10174 9206,21575 9206,34224 0,14799 -4093,28461 -12272,41000 -8231,12486 -19639,22010 -34380,28474 -14695,6451 -33204,9680 -55591,9680 -39278,0 -66512,-7588 -81629,-22705 -15124,-15117 -23673,-34334 -25668,-57631zm387648 38362l-80927 0 -11622 38102 -72917 0 87015 -231173 78186 0 86631 231173 -74795 0 -11570 -38102zm-15124 -50043l-25233 -83084 -25343 83084 50576 0zm272231 -6458l62633 18892c-4190,17541 -10810,32229 -19905,43962 -9043,11785 -20230,20665 -33691,26636 -13396,5970 -30449,8985 -51173,8985 -25181,0 -45684,-3658 -61659,-10921 -15930,-7315 -29657,-20185 -41221,-38531 -11577,-18346 -17385,-41916 -17385,-70546 0,-38200 10174,-67583 30514,-88139 20393,-20503 49179,-30781 86417,-30781 29111,0 52037,5866 68714,17651 16631,11785 29059,29865 37134,54292l-62958 13942c-2209,-6997 -4522,-12110 -6945,-15338 -4034,-5438 -8933,-9634 -14689,-12538 -5814,-2956 -12272,-4411 -19425,-4411 -16254,0 -28682,6510 -37290,19477 -6510,9634 -9797,24804 -9797,45417 0,25616 3878,43105 11681,52628 7802,9465 18723,14208 32821,14208 13669,0 23998,-3820 30995,-11525 6997,-7633 12058,-18775 15228,-33360zm98098 94603l0 -231173 119023 0c22062,0 38966,1884 50589,5704 11674,3774 21094,10817 28247,21042 7159,10278 10706,22816 10706,37563 0,12805 -2742,23888 -8231,33197 -5438,9362 -12967,16897 -22601,22705 -6081,3664 -14474,6730 -25077,9147 8504,2852 14689,5652 18567,8504 2579,1884 6406,5970 11408,12162 4950,6185 8283,10979 9953,14370l34711 66778 -80719 0 -38154 -70494c-4840,-9147 -9147,-15065 -12909,-17807 -5165,-3554 -11031,-5327 -17541,-5327l-6295 0 0 93628 -71676 0zm71676 -137220l30183 0c3229,0 9582,-1072 18944,-3177 4729,-910 8608,-3333 11570,-7263 3008,-3924 4515,-8394 4515,-13448 0,-7484 -2365,-13240 -7101,-17222 -4736,-4034 -13610,-6022 -26688,-6022l-31424 0 0 47132z"/>
   </g>
  </g>
 </g>
</svg>
