<?xml version="1.0" encoding="UTF-8"?>
<!DOCTYPE svg PUBLIC "-//W3C//DTD SVG 1.1//EN" "http://www.w3.org/Graphics/SVG/1.1/DTD/svg11.dtd">
<!-- Creator: CorelDRAW 2019 (64 Bit) -->
<svg xmlns="http://www.w3.org/2000/svg" xml:space="preserve" width="30.3031mm" height="19.2265mm" version="1.1" style="shape-rendering:geometricPrecision; text-rendering:geometricPrecision; image-rendering:optimizeQuality; fill-rule:evenodd; clip-rule:evenodd"
viewBox="0 0 3029240 1921971"
 xmlns:xlink="http://www.w3.org/1999/xlink">
 <defs>
  <style type="text/css">
   <![CDATA[
    .fil3 {fill:none}
    .fil0 {fill:#0038A8}
    .fil1 {fill:#7B9CCC}
    .fil2 {fill:#2F89C9;fill-rule:nonzero}
   ]]>
  </style>
 </defs>
 <g id="Camada_x0020_1">
  <metadata id="CorelCorpID_0Corel-Layer"/>
  <g id="_2231198481648">
   <g>
    <g>
     <path class="fil0" d="M1005835 1347954c86759,0 290268,-23502 260198,120957 -27910,134143 -278052,130174 -333742,27750 -36337,-66856 -6978,-148707 73544,-148707zm66267 294856l-92447 0c-52212,-5208 -99265,-19563 -133363,-42815 -29600,-20193 -65937,-60639 -65937,-107502 0,-121547 97276,-87349 115639,-156105 -43964,-10236 -107022,-69256 -94936,-124276 11356,-51722 105053,-47823 106502,-112760 -63678,-14835 -104073,-90238 -104073,-173449 0,-65587 40016,-123117 79172,-152086 110321,-81601 217733,-64687 331303,-15565 42655,18453 119268,11546 179247,11546 21492,92247 -26081,75163 -115629,75163 14715,30669 5418,93697 -3599,123596 -32449,107622 -121477,159694 -245013,159694 -1989,0 -86719,-23652 -86719,46254 0,123196 445173,-66397 445173,202359 0,164672 -160703,251321 -315319,265946zm-112510 -722695c0,-204778 185005,-188174 185005,17354 0,191552 -185005,168890 -185005,-17354z"/>
     <path class="fil1" d="M2694059 1226537c-72784,0 -127185,-28490 -127185,-109841 0,-48283 -7217,-241615 10576,-272724 26641,-46574 232248,-69166 232248,186004 0,51282 -11436,93937 -28670,127435 -14275,27760 -46933,69126 -86969,69126zm265956 -241925l0 24181 0 3829c0,84330 -64667,177797 -116649,212905 -86629,58469 -130954,58829 -270714,58829 -9067,38906 -12166,205767 660,242164 19123,54271 97626,9687 97626,52701 0,15105 450,23122 -17344,23122l-120577 -850c-91588,-10486 -43515,850 -122247,850 -52981,0 -75163,7327 -75163,-17344 0,-53741 67976,60 84490,-60049 13305,-48413 8017,-521966 8017,-593261 0,-57860 -5268,-97366 -52032,-109851l0 -34698c58010,-27840 43765,-9307 156075,-69985 66347,-35837 24971,49962 39666,64657 13065,13065 6628,4588 20273,-2799 99095,-53671 226530,-71665 305822,18194 57260,64877 61818,119058 62098,187404z"/>
     <path class="fil1" d="M2081215 1209193c-85510,0 -100335,-104443 -34708,-144549 14035,-8577 65827,-27150 86739,-28890 11216,48123 260,55111 130,104193 -100,41175 -12755,69246 -52162,69246zm-219702 -312200c0,13245 1959,6728 5788,23122 25161,5868 38846,5748 66666,-2669 121697,-36797 17524,-118738 141470,-118738 60729,0 69376,71415 69376,127195 0,49852 -22742,52871 -60249,66946 -110431,41455 -223051,57190 -223051,164312 0,68686 48883,127195 115629,127195 128705,0 128145,-46244 161883,-46244 29410,0 16874,46244 127205,46244 36677,0 121407,-24851 121407,-69376 0,-69565 -151287,135192 -110701,-226320 10306,-91688 12176,-181206 -52451,-229149 -84760,-62868 -269735,-1170 -326045,70345 -11616,14755 -36927,46414 -36927,67136z"/>
     <path class="fil0" d="M92357 873871c0,84970 28100,123866 106412,171100 48353,29160 130624,52002 130624,123756 0,33588 -20813,57670 -48763,67266 -74404,25551 -134582,-49383 -159274,-113620 -9177,-23872 -8237,-34588 -34788,-34588 -10686,0 -15435,4418 -17344,13815l0 67126c0,43595 6838,81841 34538,98435 107612,64507 352825,31929 352825,-121557 0,-65007 20,-96666 -53311,-149047 -64937,-63797 -168201,-73254 -184325,-139661 -17674,-72784 85780,-119538 147868,-37797 22472,29610 25621,51172 43515,77892 39126,-3249 34688,-13395 34688,-46254 0,-40536 -3619,-95036 -29530,-109211 -61328,-33588 -186154,-31479 -254740,15734 -32988,22712 -68396,63218 -68396,116609z"/>
     <path class="fil1" d="M1416340 781364l6488 22902c27290,6748 39506,6008 74444,6008 38167,163782 -70485,485649 127205,485649 66307,0 85270,4129 146648,-26791 39416,-19863 55700,-35148 55700,-71495 -48223,-11236 -25581,17344 -86719,17344 -75803,0 -92507,-68766 -92507,-144539 0,-299584 -20643,-260788 69356,-260188 13575,90 27290,310 40826,360 69915,190 61018,-27280 57480,-69715 -206967,0 -161913,14845 -167081,-87339 -1739,-34348 -22362,-41705 -41585,-23722 -4388,4099 -13185,19093 -16794,24351 -7327,10626 -9017,11996 -18683,21792 -77183,78302 -132223,71695 -154775,105383z"/>
     <path class="fil0" d="M497054 810274c23872,6368 52042,27190 52042,57810l0 294866c0,130864 -99325,17694 -75153,121407 77703,0 166761,-12895 244444,-1529 52971,7757 61968,3779 61968,-27370 0,-39986 -80931,8847 -80931,-86729l0 -427829c0,-40 19393,-54021 -28630,-35467 -33468,12915 -68426,37337 -129604,56460 -36907,11526 -44134,1000 -44134,48383z"/>
     <path class="fil0" d="M392991 596349l0 0zm17344 -80931l57680 -6858 29040 76233 -40466 5788c-25041,0 -45484,-47663 -46254,-75163zm80951 -11566c119458,-27830 104063,-48793 104063,57810 -14505,3379 -63747,17654 -75163,23132 -14575,-27550 -24072,-43235 -28900,-80941zm121407 -34688c15575,-3629 23892,-8987 35148,-12476 26201,-8127 22662,-200 22662,41385 0,36217 -28770,39726 -52032,52032 0,-37057 -5778,-47763 -5778,-80941zm-219702 127185c63408,0 56790,50602 121417,52042 -15495,-21153 -39936,-19543 -57820,-46254 114290,0 51502,35617 109851,40476 -10086,-27880 -25591,-12176 -34688,-46264 30099,-660 30689,-9297 57810,-11556 -2309,27870 -9237,18384 -11556,46254 29470,-7867 17344,-25001 31529,-49413 9457,-16284 33438,-23072 49413,-31529 -2999,36067 -26691,45214 -34688,75163 24751,-6618 37827,-33068 47213,-56860 4268,-10836 8757,-25601 15874,-36157 12875,-19103 15495,-5848 17844,-34178 -20433,4328 -16524,10146 -18024,-16204 -740,-12955 680,-33378 680,-47393 17114,-4568 9377,-2359 23132,-11566 810,36547 16754,87999 -5658,138881 -21782,49483 -72155,93627 -133303,97955 -25121,1779 -54511,2479 -78622,-1899 -43505,-7907 -77023,-26581 -100405,-61498zm11566 -179217c13015,-3039 45414,-17174 57810,-23132l0 98285 -57660 6848c-10306,-44634 -150,-37587 -150,-82001zm86729 63588c-19553,0 -11576,-71455 -11576,-92497 24681,-2049 42975,-10976 69386,-11566 12166,18164 32419,53641 34688,80941 -15575,7467 -69985,23122 -92497,23122zm80931 -109841l57820 0c11286,21332 26571,35547 28910,63598 -22282,5188 -32429,12775 -52032,17344l-34698 -80941zm80941 -5788c17904,-1529 10936,70 23132,-5778 11646,17384 23432,34318 28900,57820 -25221,5868 -20933,12706 -45034,-35897l-3709 -7867c-630,-1400 -2389,-6568 -3289,-8277zm-242824 -17344l-5778 5788 5778 -5788zm0 0c12086,-18044 31639,-31959 52611,-39886 11196,-4229 23062,-6958 36707,-10026 5768,-1290 12566,-3099 18773,-3729 18723,-1929 20073,2809 32229,5358 8757,1829 11956,1699 20593,2929 36617,5208 72554,19883 93477,51142 -73044,-17014 -61958,-37447 -98285,-40476 7207,19903 -920,4538 16284,18404 15215,12276 11586,-3469 18404,22072l-46254 0c-18773,-28050 -14825,-29630 -46244,-46254 3099,37367 1659,550 28900,52032 -22922,1909 -34888,9657 -57820,11566 4258,-18254 7317,-39566 11576,-57820 -30689,8197 -14905,27250 -26910,54041 -7267,16224 -34538,25281 -54041,26901 4358,-18703 9827,-25361 11566,-46254l-11566 0zm-5778 5788c-2479,10646 -10396,38976 -15425,48173 -15714,28750 -22012,5538 -30829,38546l22902 -6488 220 75863c-26841,2239 -10106,-6198 -23122,11566l28910 0c7127,30589 13995,41325 28910,63598 -40746,0 -41885,-1240 -53071,-33648 -6138,-17764 -15764,-45984 -16314,-70425l-11556 0c0,169760 210036,267855 342709,140360 141500,-135972 24211,-354655 -132813,-341319 -42855,3639 -82191,-12686 -142960,48203 -840,840 -1999,2099 -2829,2959 -23112,24221 -57060,69236 -58010,104303 -270,9777 -820,450 690,9517 2179,13125 280,5768 4768,12855 11076,-47543 22712,-80552 57820,-104063z"/>
    </g>
    <path class="fil2" d="M2016558 607406c0,12905 -4938,24052 -14835,33468 -10716,10226 -24491,15355 -41285,15355 -3229,0 -8027,-90 -14485,-280 -6448,-190 -11276,-260 -14505,-260 -2919,0 -7267,70 -13095,260 -5848,190 -10206,280 -13115,280 -1549,0 -2299,-560 -2299,-1719 0,-5008 250,-12546 750,-22662 510,-10106 770,-17674 770,-22722 0,-5318 -260,-13335 -770,-24032 -500,-10696 -750,-18703 -750,-24042 0,-970 790,-1439 2389,-1439 2309,0 5728,30 10246,70 4558,50 7967,70 10246,70 2119,0 5308,-20 9637,-70 4338,-40 7597,-70 9847,-70 21422,0 37397,3009 47883,9027 7557,4308 13375,10106 17524,17424 3879,6788 5848,13915 5848,21342zm-22762 0c0,-9916 -3799,-18004 -11386,-24261 -7897,-6458 -18423,-9707 -31639,-9707 -10916,0 -15315,-50 -13215,-140 -7207,280 -10856,1270 -10856,2959 0,3529 -90,8837 -300,15894 -230,7048 -330,12336 -330,15864 0,3499 100,8747 330,15724 210,6988 300,12206 300,15704 0,1739 3739,2749 11136,3029 -1010,-40 3509,-70 13495,-70 7087,0 12745,-540 16914,-1639 5188,-1390 9877,-3929 13975,-7667 7717,-6978 11576,-15535 11576,-25691z"/>
    <path id="1" class="fil2" d="M2159378 655668c0,370 -730,560 -2209,560 -1170,0 -2899,-50 -5148,-140 -2279,-100 -3989,-140 -5158,-140 -1170,0 -2929,40 -5308,140 -2339,90 -4109,140 -5278,140 -1699,0 -3899,-3479 -6548,-10436 -2659,-6958 -5348,-10486 -8087,-10576 -2249,-100 -8097,-140 -17614,-140l-14415 0c-10026,0 -15744,40 -17164,140 -2179,140 -4658,3689 -7397,10626 -2759,6928 -4878,10386 -6358,10386l-20753 0c-1220,0 -1849,-330 -1849,-1010 0,-490 440,-1599 1320,-3289l23112 -46034c1959,-3689 7877,-14385 17744,-32059 1759,-2939 4169,-7357 7167,-13255 760,-1769 1559,-2639 2429,-2639 1170,0 2949,120 5258,330 2299,240 4049,360 5218,360 1130,0 2809,-120 5078,-380 2289,-260 3959,-380 5028,-380 540,0 1330,830 2339,2469 1429,2589 8567,16484 21402,41675 18154,35457 27190,53321 27190,53651zm-42645 -38246c-570,-1110 -3539,-7008 -8917,-17654 -5218,-10346 -8627,-17184 -10336,-20553 -12805,24241 -19183,36957 -19183,38087 0,1569 2309,2469 6948,2749 260,50 3229,70 8977,70l9427 0c8727,0 13085,-890 13085,-2699z"/>
    <path id="2" class="fil2" d="M2271168 572638c0,1200 -560,1789 -1679,1789 -1739,0 -12676,-280 -32848,-850 -490,14015 -750,25221 -750,33688 0,5268 260,13185 750,23762 510,10556 770,18473 770,23742 0,970 -890,1459 -2689,1459 -1120,0 -2779,-70 -5098,-210 -2269,-140 -3979,-210 -5148,-210 -1100,0 -2809,70 -5098,210 -2269,140 -3979,210 -5078,210 -1559,0 -2309,-560 -2309,-1719 0,-5238 280,-13085 860,-23602 560,-10476 840,-18374 840,-23642 0,-8177 -300,-19423 -950,-33688 -15954,750 -27680,1130 -35118,1130 -730,0 -1100,-240 -1100,-680 0,-850 280,-2019 840,-3599 700,-2019 1110,-3219 1240,-3569 120,-1629 570,-3859 1330,-6708 310,-580 820,-890 1579,-890l1100 70c21852,940 36277,1410 43255,1410 6168,0 16274,-330 30289,-1010 9587,-450 13565,-680 11946,-680 1619,0 2509,420 2689,1250 -130,-500 -180,1709 -180,6668 0,610 90,1529 280,2799 190,1270 280,2209 280,2869z"/>
    <path id="3" class="fil2" d="M2410199 655668c0,370 -730,560 -2199,560 -1180,0 -2909,-50 -5158,-140 -2279,-100 -3989,-140 -5158,-140 -1170,0 -2929,40 -5308,140 -2339,90 -4109,140 -5278,140 -1699,0 -3899,-3479 -6548,-10436 -2659,-6958 -5348,-10486 -8087,-10576 -2249,-100 -8097,-140 -17614,-140l-14415 0c-10026,0 -15744,40 -17164,140 -2179,140 -4658,3689 -7397,10626 -2759,6928 -4878,10386 -6358,10386l-20743 0c-1230,0 -1859,-330 -1859,-1010 0,-490 440,-1599 1320,-3289l23112 -46034c1959,-3689 7877,-14385 17744,-32059 1759,-2939 4169,-7357 7167,-13255 770,-1769 1559,-2639 2429,-2639 1170,0 2949,120 5258,330 2299,240 4049,360 5218,360 1130,0 2809,-120 5078,-380 2289,-260 3959,-380 5028,-380 540,0 1340,830 2339,2469 1429,2589 8567,16484 21412,41675 18144,35457 27180,53321 27180,53651zm-42645 -38246c-570,-1110 -3539,-7008 -8917,-17654 -5218,-10346 -8627,-17184 -10336,-20553 -12795,24241 -19183,36957 -19183,38087 0,1569 2309,2469 6948,2749 260,50 3229,70 8987,70l9417 0c8727,0 13085,-890 13085,-2699z"/>
    <path id="4" class="fil2" d="M2510044 566600c-1240,1529 -2949,3829 -5088,6908 -700,1439 -1909,3459 -3599,6088 -390,400 -890,610 -1499,610 70,0 -2899,-820 -8937,-2469 -6008,-1639 -10966,-2469 -14865,-2469 -11356,0 -17034,3719 -17034,11146 0,4119 3979,7737 11946,10816 13365,5168 20773,8157 22182,8957 7977,4718 11956,11096 11956,19133 0,10296 -5458,18404 -16404,24331 -9827,5328 -21942,7987 -36297,7987 -6668,0 -10236,-540 -10746,-1649 -250,-1759 -790,-4298 -1679,-7657 -470,-1360 -1260,-3429 -2299,-6188 -200,-420 -290,-790 -290,-1170 0,-640 480,-970 1390,-970 1479,0 3769,120 6838,360 3089,230 5398,350 6948,350 19223,0 28840,-4608 28840,-13795 0,-4518 -3859,-8417 -11606,-11706 -14125,-5978 -21352,-9077 -21662,-9317 -7807,-4678 -11696,-10976 -11696,-18873 0,-8557 3769,-15395 11326,-20543 7327,-4958 16844,-7427 28540,-7427 4938,0 10626,610 17054,1809 6978,1340 12226,2939 15764,4838 280,190 610,470 920,900z"/>
    <path id="5" class="fil2" d="M2644686 561122c0,5338 -280,13305 -850,23932 -560,10626 -840,18593 -840,23922 0,1739 20,4358 90,7807 50,3479 90,6048 90,7757 0,9597 -1210,16244 -3599,19963 -3739,5688 -10916,9537 -21602,11566 -6538,1240 -15774,1849 -27690,1849 -21632,0 -35787,-2649 -42525,-7987 -5188,-4119 -7777,-12386 -7777,-24781 0,-1499 40,-4059 90,-7687 70,-3589 100,-6418 100,-8487 0,-5428 -310,-15395 -950,-29939 0,-3769 -280,-9387 -860,-16884 -50,-540 -90,-910 -90,-1080 0,-960 790,-1459 2409,-1459 2529,0 5968,30 10306,70 4988,50 8407,70 10206,70 1429,0 2129,400 2129,1250 0,6958 -190,17464 -580,31449 -380,14015 -570,24501 -570,31459 0,7897 2369,13255 7157,16054 4049,2469 11556,3709 22462,3709 9966,0 17024,-1010 21213,-3029 5318,-2519 7977,-7237 7977,-14175 0,-7267 -160,-18144 -470,-32678 -320,-14525 -490,-25411 -490,-32668 0,-730 890,-1180 2689,-1370 1310,-140 3139,-140 5548,0 2829,190 4169,290 4069,290 1100,0 2789,-70 5028,-220 2249,-140 3929,-210 5028,-210 1549,0 2299,500 2299,1509z"/>
    <path id="6" class="fil2" d="M2752268 566600c-1230,1529 -2939,3829 -5078,6908 -700,1439 -1909,3459 -3609,6088 -390,400 -880,610 -1489,610 70,0 -2899,-820 -8937,-2469 -6008,-1639 -10976,-2469 -14875,-2469 -11346,0 -17034,3719 -17034,11146 0,4119 3979,7737 11956,10816 13365,5168 20773,8157 22182,8957 7977,4718 11956,11096 11956,19133 0,10296 -5458,18404 -16404,24331 -9827,5328 -21942,7987 -36297,7987 -6678,0 -10236,-540 -10746,-1649 -260,-1759 -790,-4298 -1679,-7657 -470,-1360 -1270,-3429 -2299,-6188 -200,-420 -300,-790 -300,-1170 0,-640 490,-970 1400,-970 1479,0 3769,120 6828,360 3099,230 5408,350 6958,350 19223,0 28840,-4608 28840,-13795 0,-4518 -3859,-8417 -11606,-11706 -14135,-5978 -21352,-9077 -21662,-9317 -7807,-4678 -11696,-10976 -11696,-18873 0,-8557 3769,-15395 11326,-20543 7327,-4958 16844,-7427 28540,-7427 4928,0 10616,610 17044,1809 6978,1340 12236,2939 15774,4838 280,190 600,470 910,900z"/>
   </g>
   <rect class="fil3" width="3029240" height="1921971"/>
  </g>
 </g>
</svg>
