<?xml version="1.0" encoding="UTF-8"?>
<!DOCTYPE svg PUBLIC "-//W3C//DTD SVG 1.1//EN" "http://www.w3.org/Graphics/SVG/1.1/DTD/svg11.dtd">
<!-- Creator: CorelDRAW 2019 (64 Bit) -->
<svg xmlns="http://www.w3.org/2000/svg" xml:space="preserve" width="30.3031mm" height="19.2265mm" version="1.1" style="shape-rendering:geometricPrecision; text-rendering:geometricPrecision; image-rendering:optimizeQuality; fill-rule:evenodd; clip-rule:evenodd"
viewBox="0 0 88894276 56401022"
 xmlns:xlink="http://www.w3.org/1999/xlink">
 <defs>
  <style type="text/css">
   <![CDATA[
    .fil0 {fill:none}
    .fil2 {fill:#222D31}
    .fil1 {fill:#F4811F}
    .fil3 {fill:#F5821F}
    .fil4 {fill:#FFF200}
   ]]>
  </style>
 </defs>
 <g id="Camada_x0020_1">
  <metadata id="CorelCorpID_0Corel-Layer"/>
  <g id="_2028378101040">
   <rect class="fil0" x="3" width="88894272" height="56401024"/>
   <g>
    <path class="fil1" d="M51479188 24349846l0 14063807 3835557 0 0 -11080433c5745855,-478161 4687740,-630410 4687740,11080433l3835557 0c0,-3957591 -341460,-7358696 426238,-10654488 2439796,-584061 882398,-687907 3835850,0 767698,3295792 425945,6696897 425945,10654488l3835557 0c0,-9716940 1538623,-14916283 -6818638,-14916283 -1611081,0 -2842859,1039927 -3835850,1704659 -2185754,-3264404 -7282718,-1097131 -10227956,-852183z"/>
    <path class="fil2" d="M29317736 32873143c0,7266584 13637568,6299994 13637568,3409612l0 -12785385 -4261795 0 0 11080726c-6504459,0 -5540216,126727 -5540216,-11080726l-3835557 0 0 9375773z"/>
    <path class="fil1" d="M77049665 38413653l5114271 0c879171,-3773953 4475354,-12361201 4688033,-14916283l-4262088 0c-622490,2671836 -2504333,7013716 -2556842,9375773l-852476 0c-56030,-2519294 -1968381,-6849439 -2557136,-9375773l-4261795 0c530378,2275519 1494914,5143607 2291067,7511238l2396966 7405045z"/>
    <path class="fil3" d="M19883879 26257504c6301167,-1543903 8088845,8036922 2146738,9265767 -6322289,1307756 -8070951,-7814562 -2146738,-9265767zm-6334609 3632558l0 2130898c0,7816029 14915990,9471992 14915990,-1278421 0,-3459188 -3113328,-7245169 -6392693,-7245169l-2130898 0c-2999802,0 -6392399,3392891 -6392399,6392693z"/>
    <path class="fil2" d="M8861237 33725620c-1289862,1926139 -2186634,1534223 -5114271,-426238 -882105,1317730 -1274608,946935 -1704659,2557136 3247389,4849376 10654488,1804985 10654488,-852476 0,-2538068 231453,-4003060 -2541001,-5130112 -2172260,-882985 -3643999,-44296 -3851691,-2540708 1301009,-1086863 3476496,143742 4688033,425945 671479,-1268741 1148760,-1424510 1278421,-2983081 -130541,-34909 -5681318,-3270271 -9004098,374315 -941655,1032594 -1359386,2672129 -904986,3954071 1363199,3843477 4903353,2442436 6499766,4621149z"/>
    <path class="fil2" d="M43807781 34151858c0,4354494 4018608,4261795 6392693,4261795l0 -3409612c-1082756,-251988 -2130898,-356127 -2130898,-1704659l0 -15342228 -4261795 0 0 16194704z"/>
    <path class="fil4" d="M19883879 26257504c-5924212,1451205 -4175550,10573523 2146738,9265767 5942106,-1228845 4154429,-10809670 -2146738,-9265767z"/>
   </g>
  </g>
 </g>
</svg>
