<?xml version="1.0" encoding="UTF-8"?>
<!DOCTYPE svg PUBLIC "-//W3C//DTD SVG 1.1//EN" "http://www.w3.org/Graphics/SVG/1.1/DTD/svg11.dtd">
<!-- Creator: CorelDRAW 2019 (64 Bit) -->
<svg xmlns="http://www.w3.org/2000/svg" xml:space="preserve" width="30.3031mm" height="19.2265mm" version="1.1" style="shape-rendering:geometricPrecision; text-rendering:geometricPrecision; image-rendering:optimizeQuality; fill-rule:evenodd; clip-rule:evenodd"
viewBox="0 0 1950844 1237758"
 xmlns:xlink="http://www.w3.org/1999/xlink">
 <defs>
  <style type="text/css">
   <![CDATA[
    .fil10 {fill:none}
    .fil1 {fill:#0081C6}
    .fil5 {fill:#429ED6}
    .fil4 {fill:#449ED4}
    .fil7 {fill:#6A6B6E}
    .fil3 {fill:#7BC141}
    .fil8 {fill:#7BC241}
    .fil0 {fill:#9CCD6D}
    .fil9 {fill:#DAEECA}
    .fil6 {fill:#EE3B42}
    .fil2 {fill:#FEFEFE}
   ]]>
  </style>
 </defs>
 <g id="Camada_x0020_1">
  <metadata id="CorelCorpID_0Corel-Layer"/>
  <g id="_2229749223632">
   <g>
    <path class="fil0" d="M673359 91049l-142 227388c14942,-785 100178,-3109 107079,2034 31545,-7706 226951,5176 271062,-2350l-26 342019c6,9599 -2594,43770 -1609,48573 6824,-9805 3219,-182833 3219,-193255 0,-65079 1082,-131079 -103,-196056l106088 -534 -335 392099 3425 -195509c0,-65485 -148,-130989 6,-196481l115294 567 251 -228522c-10822,-3850 -595642,-3258 -604210,26z"/>
    <path class="fil1" d="M675412 1147417c10964,3097 593041,2266 601912,-393l-45 -227228 -380730 -1204 -19468 -193 -201116 193c-3180,10828 -3264,211719 -554,228824z"/>
    <path class="fil2" d="M675264 710176l502 17131c1848,36521 17639,78715 38137,107279 19674,27399 48779,50652 82848,63760 38163,14685 70584,14942 80330,20054l19468 193c75489,425 138998,-9998 187217,-47363 40751,-31577 72206,-84689 74826,-160262l335 -392099 -106088 534c1185,64976 103,130976 103,196056 0,10423 3605,183451 -3219,193255 1918,15470 -7133,39702 -12412,51444 -7217,16056 -16461,26240 -26646,36071 -49455,47749 -208397,58706 -228084,-81354l-4120 -97751c0,-92047 -2948,-210554 187,-296627l-104273 -90c3412,81064 418,204251 348,292809 -26,30373 2176,67777 541,96959z"/>
    <polygon class="fil1" points="1277279,919796 1503773,919520 1504314,320112 1277318,319545 "/>
    <path class="fil0" d="M446543 918908l227446 -155c-393,-23575 -4062,-184107 1777,-191446l-502 -17131c-2891,-6547 -2324,-10526 -2427,-24618l-161 -366850 -226011 135 -122 600065z"/>
    <path class="fil3" d="M782582 714876c19687,140060 178629,129103 228084,81354 10185,-9830 19429,-20015 26646,-36071 5279,-11742 14330,-35974 12412,-51444 -985,-4803 1616,-38974 1609,-48573l26 -342019c-44112,7526 -239517,-5356 -271062,2350 3322,25146 586,71672 586,99193 0,32582 0,65170 0,97758 0,64436 -2479,133918 1700,197453z"/>
    <path class="fil3" d="M1158593 710968c-2620,75573 -34075,128685 -74826,160262 -48219,37365 -111728,47788 -187217,47363l380730 1204 39 -600251 -115294 -567c-155,65491 -6,130996 -6,196481l-3425 195509z"/>
    <path class="fil4" d="M675412 1147417c-2710,-17105 -2627,-217996 554,-228824l-1976 161 -227446 155c8742,76680 30657,135200 81773,173659 5697,4281 10127,8755 16101,13159 38285,28217 81631,36599 130996,41691z"/>
    <path class="fil5" d="M1277318 319545l226996 567c-5839,-37243 -6773,-60393 -20994,-92691 -12380,-28107 -27058,-49764 -45438,-67983 -37790,-37461 -87521,-65015 -160313,-68414l-251 228522z"/>
    <path class="fil6" d="M446665 318843l226011 -135 541 -270 142 -227388c-70043,2427 -123045,30773 -159547,67474 -41041,41279 -59517,85468 -67146,160320z"/>
    <path class="fil7" d="M1277324 1147024c130835,-5054 218067,-96991 226449,-227504l-226494 277 45 227228z"/>
    <path class="fil8" d="M673989 918754l1976 -161 201116 -193c-9747,-5112 -42167,-5369 -80330,-20054 -34069,-13107 -63174,-36361 -82848,-63760 -20498,-28564 -36290,-70758 -38137,-107279 -5839,7339 -2170,167871 -1777,191446z"/>
    <path class="fil9" d="M675264 710176c1635,-29182 -567,-66586 -541,-96959 71,-88558 3064,-211745 -348,-292809l104273 90c-3135,86073 -187,204579 -187,296627l4120 97751c-4178,-63534 -1700,-133017 -1700,-197453 0,-32588 0,-65176 0,-97758 0,-27521 2736,-74047 -586,-99193 -6901,-5144 -92137,-2820 -107079,-2034l-541 270 161 366850c103,14092 -464,18071 2427,24618z"/>
   </g>
   <rect class="fil10" width="1950844" height="1237758"/>
  </g>
 </g>
</svg>
