<?xml version="1.0" encoding="iso-8859-1"?>
<!-- Generator: Adobe Illustrator 19.0.0, SVG Export Plug-In . SVG Version: 6.00 Build 0)  -->
<svg version="1.1" id="Capa_1" xmlns="http://www.w3.org/2000/svg" xmlns:xlink="http://www.w3.org/1999/xlink" x="0px" y="0px"
	 viewBox="0 0 468.293 468.293" style="enable-background:new 0 0 468.293 468.293;" xml:space="preserve">
<rect x="34.341" y="40.585" style="fill:#64798A;" width="399.61" height="387.122"/>
<g>
	<path style="fill:#3A556A;" d="M121.756,468.293H59.317c-13.794,0-24.976-11.182-24.976-24.976V24.976
		C34.341,11.182,45.523,0,59.317,0h62.439V468.293z"/>
	<path style="fill:#3A556A;" d="M408.976,468.293h-62.439V0h62.439c13.794,0,24.976,11.182,24.976,24.976v418.341
		C433.951,457.111,422.769,468.293,408.976,468.293z"/>
</g>
<g>
	<path style="fill:#D5D6DB;" d="M365.268,424.353v-24.976c0-3.448,2.796-6.244,6.244-6.244h37.463c3.448,0,6.244,2.795,6.244,6.244
		v24.976c0,3.448-2.795,6.244-6.244,6.244h-37.463C368.064,430.597,365.268,427.801,365.268,424.353z"/>
	<path style="fill:#D5D6DB;" d="M365.268,353.265V328.29c0-3.448,2.796-6.244,6.244-6.244h37.463c3.448,0,6.244,2.796,6.244,6.244
		v24.976c0,3.448-2.795,6.244-6.244,6.244h-37.463C368.064,359.509,365.268,356.714,365.268,353.265z"/>
	<path style="fill:#D5D6DB;" d="M365.268,282.178v-24.976c0-3.448,2.796-6.244,6.244-6.244h37.463c3.448,0,6.244,2.795,6.244,6.244
		v24.976c0,3.448-2.795,6.244-6.244,6.244h-37.463C368.064,288.422,365.268,285.626,365.268,282.178z"/>
	<path style="fill:#D5D6DB;" d="M365.268,211.09v-24.976c0-3.448,2.796-6.244,6.244-6.244h37.463c3.448,0,6.244,2.796,6.244,6.244
		v24.976c0,3.448-2.795,6.244-6.244,6.244h-37.463C368.064,217.334,365.268,214.539,365.268,211.09z"/>
	<path style="fill:#D5D6DB;" d="M365.268,140.003v-24.976c0-3.448,2.796-6.244,6.244-6.244h37.463c3.448,0,6.244,2.795,6.244,6.244
		v24.976c0,3.448-2.795,6.244-6.244,6.244h-37.463C368.064,146.247,365.268,143.451,365.268,140.003z"/>
	<path style="fill:#D5D6DB;" d="M365.268,68.915V43.94c0-3.448,2.796-6.244,6.244-6.244h37.463c3.448,0,6.244,2.795,6.244,6.244
		v24.976c0,3.448-2.795,6.244-6.244,6.244h-37.463C368.064,75.159,365.268,72.364,365.268,68.915z"/>
	<path style="fill:#D5D6DB;" d="M53.073,424.353v-24.976c0-3.448,2.795-6.244,6.244-6.244H96.78c3.448,0,6.244,2.795,6.244,6.244
		v24.976c0,3.448-2.795,6.244-6.244,6.244H59.317C55.869,430.597,53.073,427.801,53.073,424.353z"/>
	<path style="fill:#D5D6DB;" d="M53.073,353.265V328.29c0-3.448,2.795-6.244,6.244-6.244H96.78c3.448,0,6.244,2.796,6.244,6.244
		v24.976c0,3.448-2.795,6.244-6.244,6.244H59.317C55.869,359.509,53.073,356.714,53.073,353.265z"/>
	<path style="fill:#D5D6DB;" d="M53.073,282.178v-24.976c0-3.448,2.795-6.244,6.244-6.244H96.78c3.448,0,6.244,2.795,6.244,6.244
		v24.976c0,3.448-2.795,6.244-6.244,6.244H59.317C55.869,288.422,53.073,285.626,53.073,282.178z"/>
	<path style="fill:#D5D6DB;" d="M53.073,211.09v-24.976c0-3.448,2.795-6.244,6.244-6.244H96.78c3.448,0,6.244,2.796,6.244,6.244
		v24.976c0,3.448-2.795,6.244-6.244,6.244H59.317C55.869,217.334,53.073,214.539,53.073,211.09z"/>
	<path style="fill:#D5D6DB;" d="M53.073,140.003v-24.976c0-3.448,2.795-6.244,6.244-6.244H96.78c3.448,0,6.244,2.795,6.244,6.244
		v24.976c0,3.448-2.795,6.244-6.244,6.244H59.317C55.869,146.247,53.073,143.451,53.073,140.003z"/>
	<path style="fill:#D5D6DB;" d="M53.073,68.915V43.94c0-3.448,2.795-6.244,6.244-6.244H96.78c3.448,0,6.244,2.795,6.244,6.244
		v24.976c0,3.448-2.795,6.244-6.244,6.244H59.317C55.869,75.159,53.073,72.364,53.073,68.915z"/>
</g>
<circle style="fill:#E1E6E9;" cx="234.146" cy="234.146" r="87.415"/>
<path style="fill:#27A2DB;" d="M288.409,224.883l-71.627-46.091c-7.33-4.717-16.976,0.546-16.976,9.263l-0.001,92.181
	c0,8.718,9.646,13.981,16.976,9.264l71.627-46.09C295.148,239.074,295.148,229.22,288.409,224.883z"/>
<g>
</g>
<g>
</g>
<g>
</g>
<g>
</g>
<g>
</g>
<g>
</g>
<g>
</g>
<g>
</g>
<g>
</g>
<g>
</g>
<g>
</g>
<g>
</g>
<g>
</g>
<g>
</g>
<g>
</g>
</svg>
