<?xml version="1.0" encoding="UTF-8"?>
<!DOCTYPE svg PUBLIC "-//W3C//DTD SVG 1.1//EN" "http://www.w3.org/Graphics/SVG/1.1/DTD/svg11.dtd">
<!-- Creator: CorelDRAW 2019 (64 Bit) -->
<svg xmlns="http://www.w3.org/2000/svg" xml:space="preserve" width="130.398mm" height="144.49mm" version="1.1" style="shape-rendering:geometricPrecision; text-rendering:geometricPrecision; image-rendering:optimizeQuality; fill-rule:evenodd; clip-rule:evenodd"
viewBox="0 0 2714805 3008196"
 xmlns:xlink="http://www.w3.org/1999/xlink">
 <defs>
  <style type="text/css">
   <![CDATA[
    .fil0 {fill:black}
   ]]>
  </style>
 </defs>
 <g id="Camada_x0020_1">
  <metadata id="CorelCorpID_0Corel-Layer"/>
  <g id="_1884776069616">
   <path class="fil0" d="M105771 2620366l0 -2232956c0,-59017 84441,-55290 151059,-66362l579294 -90591c129035,-18823 256526,-42184 381230,-59487l289433 -45509c30781,-4724 71223,-13649 97416,-14232l0 2785320c-43119,-960 -1260394,-197701 -1438946,-224021 -30986,-4566 -59487,-15171 -59487,-52161zm1604204 -2268214l846173 0c31993,0 52885,20892 52885,52885l0 2197700c0,31993 -20892,52885 -52885,52885l-846173 0 0 -346695 534734 0c93327,0 77563,-105773 11753,-105773l-546486 0 0 -193914 522981 0c113274,0 86396,-105771 23505,-105771l-546486 0 0 -199791 552364 0c63499,0 63499,-99896 0,-99896l-552364 0 0 -199791 552364 0c63499,0 63499,-99896 0,-99896l-552364 0 0 -199791 546486 0c64790,0 87983,-105771 -23505,-105771l-522981 0 0 -193914 534734 0c87918,0 87918,-105773 0,-105773l-534734 0 0 -346695zm-1709975 52885l0 2197700c0,40679 9972,76236 26763,102513 41345,64696 109281,68873 179884,78670l1229625 192415c52305,8028 189386,31860 232569,31860 18710,0 41133,-29942 41133,-52885l0 -193916 816793 0c118612,0 188037,-58757 188037,-176284l0 -2162445c0,-110691 -65594,-176284 -176286,-176284l-828544 0 0 -193916c0,-82888 -117498,-44435 -161138,-37737l-783226 121710c-12725,1855 -638025,96504 -667578,108080 -65614,25699 -98032,87523 -98032,160520z"/>
   <path class="fil0" d="M1134106 1827080c-6818,-7847 -2167,-135 -9200,-14303l-24163 -52230c-12217,-24286 -19724,-45880 -31254,-68642l-158452 -341026c-28308,-64536 -81258,-63168 -110026,-3804l-225143 444746 -99107 -535523c-5294,-31929 -11596,-61559 -16803,-88970 -20336,-107051 -107384,-56864 -107384,-21890 0,28856 28702,159808 35256,199789l112924 603975c11825,52255 62215,104828 114303,-670 15577,-31552 225909,-454515 242869,-474027 7181,30817 17842,47568 31383,74388 13720,27176 21404,49157 35247,76401 42980,84581 96954,219124 139038,301677 20241,39709 42594,129278 94018,129278 49871,0 50766,-45066 57103,-83927 7364,-45157 13429,-80821 20955,-125949l82268 -493601c8197,-49159 39465,-216686 39465,-254344 0,-37687 -87541,-93977 -106002,17399l-100531 604612c-4905,29345 -14347,77594 -16764,106639z"/>
  </g>
 </g>
</svg>
